<svg xmlns="http://www.w3.org/2000/svg" xmlns:xlink="http://www.w3.org/1999/xlink" fill="none" version="1.1" width="22" height="22" viewBox="0 0 22 22"><defs><clipPath id="master_svg0_807_02033/347_00552"><rect x="0" y="0" width="22" height="22" rx="0"/></clipPath></defs><g style="mix-blend-mode:passthrough" clip-path="url(#master_svg0_807_02033/347_00552)"><g style="mix-blend-mode:passthrough"><path d="M9.16667,11.91667L9.16667,17.4167C9.16667,17.9229,9.57707,18.3333,10.0833,18.3333C10.5896,18.3333,11,17.9229,11,17.4167L11,3.666667C11,3.160406,10.5896,2.75,10.0833,2.75C9.76728,2.75,9.47351,2.912818,9.306,3.180834L4.73765,10.49019L0.171114,16.8833L0.170744,16.8839C0.0596962,17.0393,0,17.2256,0,17.4167C0,17.9229,0.410406,18.3333,0.916667,18.3333C1.21271,18.3333,1.49052,18.1904,1.66259,17.9495L1.66296,17.948999999999998L5.97173,11.91667L9.16667,11.91667ZM9.16667,10.08333L9.16667,6.8629L7.15389,10.08333L9.16667,10.08333Z" fill-rule="evenodd" fill="#FFFFFF" fill-opacity="1"/></g><g style="mix-blend-mode:passthrough"><path d="M12.161691046875,11.62375L18.120028046875,18.040399999999998C18.293468046875,18.2272,18.536858046875,18.3333,18.791748046875,18.3333C19.298018046875,18.3333,19.708418046875,17.9229,19.708418046875,17.4167C19.708418046875,17.185299999999998,19.620918046875,16.9625,19.463478046875,16.7929L14.935528046875,11.91667L15.125088046875,11.91667Q17.023568046875,11.91667,18.365988046875,10.57424Q19.708418046875,9.23181,19.708418046875,7.33333Q19.708418046875,5.43485,18.365988046875,4.09243Q17.023568046875,2.750000437101,15.125088046875,2.75L12.833419046875001,2.750000437101C12.327158046875,2.750000437101,11.916751980785,3.160406,11.916751980785,3.666667C11.916751980785,4.17293,12.327158046875,4.58333,12.833419046875001,4.58333L15.125088046875,4.58333Q16.264168046875,4.58333,17.069628046875,5.38879Q17.875088046875,6.19425,17.875088046875,7.33333Q17.875088046875,8.47242,17.069628046875,9.27788Q16.264178046875,10.08333,15.125088046875,10.08333L12.833419046875001,10.08333C12.602042046875,10.08333,12.379223046875,10.170829999999999,12.209672046875,10.32827C11.838686946875,10.67276,11.817205346875,11.25276,12.161691046875,11.62375Z" fill-rule="evenodd" fill="#FFFFFF" fill-opacity="1"/></g></g></svg>