<svg xmlns="http://www.w3.org/2000/svg" xmlns:xlink="http://www.w3.org/1999/xlink" fill="none" version="1.1" width="48" height="48" viewBox="0 0 48 48"><defs><clipPath id="master_svg0_135_09299/135_09265"><rect x="12" y="12" width="24" height="24" rx="0"/></clipPath></defs><g style="mix-blend-mode:passthrough"><g style="mix-blend-mode:passthrough" clip-path="url(#master_svg0_135_09299/135_09265)"><g style="mix-blend-mode:passthrough"><path d="M16,16C15.73478,16,15.48043,16.10536,15.29289,16.29289C15.105360000000001,16.48043,15,16.73478,15,17C15,17,15,27,15,27C15,27.2652,15.105360000000001,27.5196,15.29289,27.7071C15.48043,27.8946,15.73478,28,16,28C16,28,17,28,17,28C17.55228,28,18,28.447699999999998,18,29C18,29.552300000000002,17.55228,30,17,30C17,30,16,30,16,30C15.20435,30,14.44129,29.6839,13.87868,29.121299999999998C13.31607,28.5587,13,27.7956,13,27C13,27,13,17,13,17C13,16.204349999999998,13.31607,15.44129,13.87868,14.87868C14.44129,14.31607,15.20435,14,16,14C16,14,32,14,32,14C32.7957,14,33.5587,14.31607,34.121300000000005,14.87868C34.6839,15.44129,35,16.204349999999998,35,17C35,17,35,27,35,27C35,27.7957,34.6839,28.5587,34.121300000000005,29.121299999999998C33.5587,29.6839,32.7957,30,32,30C32,30,31,30,31,30C30.4477,30,30,29.552300000000002,30,29C30,28.447699999999998,30.4477,28,31,28C31,28,32,28,32,28C32.2652,28,32.5196,27.8946,32.7071,27.7071C32.8946,27.5196,33,27.2652,33,27C33,27,33,17,33,17C33,16.73478,32.8946,16.48043,32.7071,16.29289C32.5196,16.10536,32.2652,16,32,16C32,16,16,16,16,16C16,16,16,16,16,16ZM24,26C24.296799999999998,26,24.578200000000002,26.1318,24.7682,26.3598C24.7682,26.3598,29.7682,32.3598,29.7682,32.3598C30.0166,32.6579,30.0702,33.0728,29.9056,33.4242C29.741,33.7755,29.388,34,29,34C29,34,19,34,19,34C18.61198,34,18.25899,33.7755,18.09441,33.4242C17.92983,33.0728,17.98338,32.6579,18.23178,32.3598C18.23178,32.3598,23.2318,26.3598,23.2318,26.3598C23.421799999999998,26.1318,23.703200000000002,26,24,26C24,26,24,26,24,26ZM21.13504,32C21.13504,32,26.865000000000002,32,26.865000000000002,32C26.865000000000002,32,24,28.561999999999998,24,28.561999999999998C24,28.561999999999998,21.13504,32,21.13504,32C21.13504,32,21.13504,32,21.13504,32Z" fill-rule="evenodd" fill="#000000" fill-opacity="1"/></g></g></g></svg>