<svg xmlns="http://www.w3.org/2000/svg" xmlns:xlink="http://www.w3.org/1999/xlink" fill="none" version="1.1" width="24" height="24" viewBox="0 0 24 24"><defs><clipPath id="master_svg0_1_00822/503_01726"><rect x="0" y="0" width="24" height="24" rx="0"/></clipPath></defs><g style="mix-blend-mode:passthrough" clip-path="url(#master_svg0_1_00822/503_01726)"><g style="mix-blend-mode:passthrough"><path d="M14.781746875,20.0962Q16.685546875,18.19239,16.685546875,15.5Q16.685546875,12.80761,14.781746875,10.90381Q12.877936875,9,10.185546875,9Q7.493156875,9,5.589356875,10.90381Q3.685546875,12.80761,3.685546875,15.5Q3.685546875,18.19239,5.589356875,20.0962Q7.493156875,22,10.185546875,22Q12.877936875,22,14.781746875,20.0962ZM13.367526875,12.31802Q14.685546875,13.636040000000001,14.685546875,15.5Q14.685546875,17.36396,13.367526875,18.68198Q12.049506875,20,10.185546875,20Q8.321586875000001,20,7.003566875000001,18.68198Q5.685546875,17.36396,5.685546875,15.5Q5.685546875,13.636040000000001,7.003566875000001,12.31802Q8.321586875000001,11,10.185546875,11Q12.049506875,11,13.367526875,12.31802Z" fill-rule="evenodd" fill="#6F7977" fill-opacity="1"/></g><g style="mix-blend-mode:passthrough" transform="matrix(0.9337562918663025,-0.35790950059890747,0.35790950059890747,0.9337562918663025,-5.66930773173226,1.3115684251533821)"><path d="M4.4027660937499995,17.90752140625C4.79306609375,17.76116140625,5.05164609375,17.38803140625,5.05164609375,16.97119140625C5.05164609375,16.41890640625,4.60392609375,15.97119140625,4.05164609375,15.97119140625C3.93172609375,15.97119140625,3.81279609375,15.99275830625,3.70051609375,16.03486220625Q0.70849609375,17.15687140625,0.70849609375,19.09251140625Q0.70849609375,21.02815140625,3.70051609375,22.15016140625Q6.21345609375,23.09251140625,9.70849609375,23.09251140625Q11.41489609375,23.09251140625,12.97909609375,22.84441140625Q13.73839609375,22.72398140625,14.42699609375,22.54953140625Q14.77099609375,22.46238140625,15.09289609375,22.36275140625C15.51169609375,22.23314140625,15.79719609375,21.845861406250002,15.79719609375,21.40746140625C15.79719609375,20.85517140625,15.34949609375,20.40746140625,14.79719609375,20.40746140625C14.69699609375,20.40746140625,14.59739609375,20.42252140625,14.50159609375,20.45216140625Q14.22939609375,20.53640140625,13.93579609375,20.61078140625Q13.33529609375,20.762911406249998,12.66579609375,20.86910140625Q11.25729609375,21.09251140625,9.70849609375,21.09251140625Q6.57612609375,21.09251140625,4.4027660937499995,20.27750140625Q3.46910609375,19.92738140625,3.00058609375,19.51199140625Q2.70849609375,19.25302140625,2.70849609375,19.09251140625Q2.70849609375,18.93200140625,3.00058609375,18.67303140625Q3.46910609375,18.25764140625,4.4027660937499995,17.90752140625Z" fill-rule="evenodd" fill="#6F7977" fill-opacity="1"/></g><g style="mix-blend-mode:passthrough"><path d="M14.719595,15.874655859375L14.719131,15.875255859375C14.5772808,16.052555859374998,14.5,16.272855859375,14.5,16.499955859375C14.5,17.052255859375,14.947715,17.499955859375,15.5,17.499955859375C15.80378,17.499955859375,16.0911,17.361855859375,16.28087,17.124655859375Q16.28166,17.123655859375,16.28242,17.122655859375Q18.34725,14.541555859375,18.89443,13.447155859375Q20.5,10.236015859375,20.5,8.999945859375Q20.5,7.919685859375,20.231650000000002,7.293525859375Q19.87453,6.460265859375,18.70711,5.292845859375Q17.4212,4.006935859375,16.98058,1.803832859375C16.87227,1.262272859375,16.34544,0.911056159375,15.80388,1.019368059375C15.351754,1.109793859375,15.020062,1.497634859375,15.000867,1.9583178593750001L14.50086695,13.958355859375C14.500289023,13.972155859375,14.5,13.986055859375,14.5,13.999955859375C14.5,14.518255859375,14.895992,14.950655859375,15.412284,14.996055859375Q15.093645,15.407055859375,14.719595,15.874655859375ZM16.52184,13.496655859375Q16.92787,12.908155859375,17.10557,12.552755859375Q18.5,9.763875859375,18.5,8.999945859375Q18.5,8.330205859374999,18.393349999999998,8.081365859375001Q18.18797,7.602125859375,17.29289,6.707055859375Q17.04768,6.461835859375,16.8261,6.194465859375L16.52184,13.496655859375Z" fill-rule="evenodd" fill="#6F7977" fill-opacity="1"/></g></g></svg>