<svg xmlns="http://www.w3.org/2000/svg" xmlns:xlink="http://www.w3.org/1999/xlink" fill="none" version="1.1" width="25" height="25" viewBox="0 0 25 25"><defs><clipPath id="master_svg0_135_03516/135_01462"><rect x="0" y="0" width="25" height="25" rx="0"/></clipPath></defs><g style="mix-blend-mode:passthrough" clip-path="url(#master_svg0_135_03516/135_01462)"><g style="mix-blend-mode:passthrough"><path d="M9.024204765625,2.09229485C10.440284765625,2.0401188,11.849884765625,2.3096565,13.146884765625,2.8806445C14.443784765625,3.4516375,15.594484765625,4.309207499999999,16.512284765625,5.3889075C17.253384765625,6.2607075,17.827084765625,7.2589975,18.207284765625,8.333377500000001C18.207284765625,8.333377500000001,18.749884765625,8.333377500000001,18.749884765625,8.333377500000001C20.138584765625,8.3342875,21.487884765625,8.7976075,22.583984765625,9.650187500000001C23.679984765625,10.5027675,24.460884765625,11.6960575,24.803384765625,13.0417375C25.145884765625,14.3874375,25.030484765625,15.8088375,24.475384765625,17.0816375C23.920384765625,18.3544375,22.957284765625,19.4062375,21.738084765625,20.0708375C21.232984765625,20.3462375,20.600284765625,20.1600375,20.324884765625,19.6549375C20.049584765625,19.1498375,20.235884765625,18.5170375,20.740984765625,18.2416375C21.553684765625,17.798637499999998,22.195784765625,17.097437499999998,22.565884765625,16.2488375C22.935884765625,15.4003375,23.012684765625,14.4527375,22.784384765625,13.5556375C22.556084765625,12.6585375,22.035484765625,11.8629675,21.304784765625,11.2945775C20.574184765625,10.7261975,19.674984765625,10.4173175,18.749284765625,10.4167075C18.749284765625,10.4167075,17.437384765625,10.4167075,17.437384765625,10.4167075C16.962584765625,10.4167075,16.547784765625,10.0955375,16.428984765625,9.6357775C16.152984765625,8.5686875,15.638884765625,7.5780075,14.924984765625,6.7382475C14.211184765625,5.8984775,13.316184765625,5.2314775000000004,12.307384765625,4.7873775C11.298684765625,4.3432675,10.202384765625,4.1336375,9.100914765625,4.1742175C7.999474765624999,4.2147875,6.921574765625,4.5045375,5.948224765625,5.0216775C4.974894765625,5.538797499999999,4.131454765625,6.2698675,3.481324765625,7.1598775C2.831184765625,8.0498975,2.391284765625,9.0757175,2.194664765625,10.1602275C1.9980647656250001,11.2447375,2.049864765625,12.3597375,2.346184765625,13.4213375C2.642504765625,14.4829375,3.175634765625,15.4635375,3.905494765625,16.289337500000002C4.286444765625,16.7205375,4.245814765625,17.3788375,3.814714765625,17.7598375C3.383634765625,18.1407375,2.725344765625,18.1001375,2.344384765625,17.6689375C1.405994765625,16.6070375,0.720539765625,15.3463375,0.339554765625,13.9814375C-0.041431834375,12.6164375,-0.108036234375,11.1829575,0.144749765625,9.7885975C0.397534765625,8.3942275,0.963131765625,7.0753175,1.799024765625,5.9309975C2.634904765625,4.7866975,3.719334765625,3.8467575,4.970754765625,3.1818875C6.222194765625,2.5170035,7.608074765625,2.1444709,9.024204765625,2.09229485C9.024204765625,2.09229485,9.024204765625,2.09229485,9.024204765625,2.09229485ZM11.763384765625,11.7634775C12.170084765625,11.3566775,12.829684765625,11.3566775,13.236484765625,11.7634775C13.236484765625,11.7634775,17.403184765625,15.9301375,17.403184765625,15.9301375C17.809984765625,16.336937499999998,17.809984765625,16.9964375,17.403184765625,17.4032375C16.996384765625,17.8101375,16.336784765625,17.8101375,15.929984765625,17.4032375C15.929984765625,17.4032375,13.541584765625,15.0149375,13.541584765625,15.0149375C13.541584765625,15.0149375,13.541584765625,21.8750375,13.541584765625,21.8750375C13.541584765625,22.4503375,13.075184765625,22.9166375,12.499884765625,22.9166375C11.924584765625,22.9166375,11.458284765625,22.4503375,11.458284765625,21.8750375C11.458284765625,21.8750375,11.458284765625,15.0149375,11.458284765625,15.0149375C11.458284765625,15.0149375,9.069844765625,17.4032375,9.069844765625,17.4032375C8.663044765625,17.8101375,8.003494765625,17.8101375,7.596704765625,17.4032375C7.189904765625,16.9964375,7.189904765625,16.336937499999998,7.596704765625,15.9301375C7.596704765625,15.9301375,11.763384765625,11.7634775,11.763384765625,11.7634775C11.763384765625,11.7634775,11.763384765625,11.7634775,11.763384765625,11.7634775Z" fill-rule="evenodd" fill="#FFFFFF" fill-opacity="1"/></g></g></svg>