<svg xmlns="http://www.w3.org/2000/svg" xmlns:xlink="http://www.w3.org/1999/xlink" fill="none" version="1.1" width="24" height="24" viewBox="0 0 24 24"><defs><clipPath id="master_svg0_135_5293/135_5198"><rect x="0" y="0" width="24" height="24" rx="0"/></clipPath></defs><g style="mix-blend-mode:passthrough" clip-path="url(#master_svg0_135_5293/135_5198)"><g style="mix-blend-mode:passthrough"><path d="M12,3C10.93913,3,9.92172,3.42143,9.17157,4.17157C8.42143,4.9217200000000005,8,5.93913,8,7C8,7,8,10,8,10C8,10,16,10,16,10C16,10,16,7,16,7C16,5.93913,15.5786,4.9217200000000005,14.8284,4.17157C14.0783,3.42143,13.0609,3,12,3C12,3,12,3,12,3ZM18,10C18,10,18,7,18,7C18,5.4087,17.3679,3.88258,16.2426,2.7573600000000003C15.1174,1.6321409999999998,13.5913,1,12,1C10.4087,1,8.88258,1.6321409999999998,7.75736,2.7573600000000003C6.63214,3.88258,6,5.4087,6,7C6,7,6,10,6,10C6,10,5,10,5,10C3.34315,10,2,11.3431,2,13C2,13,2,20,2,20C2,21.6569,3.34315,23,5,23C5,23,19,23,19,23C20.6569,23,22,21.6569,22,20C22,20,22,13,22,13C22,11.3431,20.6569,10,19,10C19,10,18,10,18,10C18,10,18,10,18,10ZM5,12C4.44772,12,4,12.4477,4,13C4,13,4,20,4,20C4,20.5523,4.44772,21,5,21C5,21,19,21,19,21C19.5523,21,20,20.5523,20,20C20,20,20,13,20,13C20,12.4477,19.5523,12,19,12C19,12,5,12,5,12C5,12,5,12,5,12Z" fill-rule="evenodd" fill="#000000" fill-opacity="1"/></g></g></svg>