<svg xmlns="http://www.w3.org/2000/svg" xmlns:xlink="http://www.w3.org/1999/xlink" fill="none" version="1.1" width="24" height="24" viewBox="0 0 24 24"><defs><clipPath id="master_svg0_135_5371/135_5198"><rect x="0" y="0" width="24" height="24" rx="0"/></clipPath></defs><g style="mix-blend-mode:passthrough" clip-path="url(#master_svg0_135_5371/135_5198)"><g style="mix-blend-mode:passthrough"><path d="M12,2C8.68629,2,6,4.68629,6,8C6,11.3137,8.68629,14,12,14C13.16384,14,14.2503,13.6686,15.1701,13.0951C15.2198,13.0558,15.2735,13.021,15.3306,12.9915C16.9401,11.9154,18,10.0815,18,8C18,4.68629,15.3137,2,12,2C12,2,12,2,12,2ZM16.8616,14.3538C18.7696,12.8917,20,10.5895,20,8C20,3.58172,16.418300000000002,0,12,0C7.58172,0,4,3.58172,4,8C4,10.59,5.23083,12.8926,7.1395,14.3547C7.1395,14.3547,6.008710000000001,22.8683,6.008710000000001,22.8683C5.95815,23.249,6.13002,23.625,6.45096,23.8358C6.7719000000000005,24.0466,7.18522,24.0551,7.5145,23.8575C7.5145,23.8575,12,21.1662,12,21.1662C12,21.1662,16.485500000000002,23.8575,16.485500000000002,23.8575C16.814799999999998,24.055,17.228,24.0466,17.549,23.8358C17.8699,23.625,18.041800000000002,23.2491,17.991300000000003,22.8685C17.991300000000003,22.8685,16.8616,14.3538,16.8616,14.3538C16.8616,14.3538,16.8616,14.3538,16.8616,14.3538ZM14.9861,15.4241C14.0634,15.7956,13.0556,16,12,16C10.94481,16,9.93733,15.7957,9.01497,15.4245C9.01497,15.4245,8.26444,21.0751,8.26444,21.0751C8.26444,21.0751,11.4855,19.1425,11.4855,19.1425C11.80219,18.9525,12.19781,18.9525,12.5145,19.1425C12.5145,19.1425,15.7359,21.0753,15.7359,21.0753C15.7359,21.0753,14.9861,15.4241,14.9861,15.4241C14.9861,15.4241,14.9861,15.4241,14.9861,15.4241Z" fill-rule="evenodd" fill="#000000" fill-opacity="1"/></g></g></svg>