<svg xmlns="http://www.w3.org/2000/svg" xmlns:xlink="http://www.w3.org/1999/xlink" fill="none" version="1.1" width="20" height="20" viewBox="0 0 20 20"><defs><clipPath id="master_svg0_160_8765/37_8773/37_8329"><rect x="0" y="0" width="20" height="20" rx="0"/></clipPath></defs><g style="mix-blend-mode:passthrough" clip-path="url(#master_svg0_160_8765/37_8773/37_8329)"><g style="mix-blend-mode:passthrough"><path d="M16.66661298828125,2.399091875C16.41881298828125,2.399091875,16.18111298828125,2.497541875,16.00591298828125,2.672781875C16.00591298828125,2.672781875,8.25244298828125,10.426251875,8.25244298828125,10.426251875C8.25244298828125,10.426251875,7.81195298828125,12.188221875,7.81195298828125,12.188221875C7.81195298828125,12.188221875,9.57398298828125,11.747721875,9.57398298828125,11.747721875C9.57398298828125,11.747721875,17.32741298828125,3.994261875,17.32741298828125,3.994261875C17.50261298828125,3.819021875,17.60101298828125,3.581341875,17.60101298828125,3.333521875C17.60101298828125,3.085701875,17.50261298828125,2.848021875,17.32741298828125,2.672781875C17.15211298828125,2.497541875,16.91451298828125,2.399091875,16.66661298828125,2.399091875C16.66661298828125,2.399091875,16.66661298828125,2.399091875,16.66661298828125,2.399091875ZM14.82741298828125,1.494266875C15.31521298828125,1.006464875,15.97681298828125,0.732421875,16.66661298828125,0.732421875C17.35651298828125,0.732421875,18.01801298828125,1.006464875,18.50591298828125,1.494266875C18.99371298828125,1.982061875,19.26771298828125,2.6436618750000003,19.26771298828125,3.333521875C19.26771298828125,4.023381875,18.99371298828125,4.684981875,18.50591298828125,5.172781875C18.50591298828125,5.172781875,10.58923298828125,13.089421875,10.58923298828125,13.089421875C10.48239298828125,13.196221875,10.34864298828125,13.272021875,10.20206298828125,13.308721875C10.20206298828125,13.308721875,6.86876298828125,14.142021875,6.86876298828125,14.142021875C6.58478298828125,14.213021875,6.28437298828125,14.129721875,6.07738298828125,13.922721875C5.87040298828125,13.715721875,5.78719298828125,13.415421875,5.85819298828125,13.131421875C5.85819298828125,13.131421875,6.69153298828125,9.798091875,6.69153298828125,9.798091875C6.72816298828125,9.651591875,6.80392298828125,9.517751875,6.91072298828125,9.410921875C6.91072298828125,9.410921875,14.82741298828125,1.494266875,14.82741298828125,1.494266875C14.82741298828125,1.494266875,14.82741298828125,1.494266875,14.82741298828125,1.494266875ZM1.56554598828125,3.232421875C2.03438298828125,2.763581875,2.67027298828125,2.500191875,3.33331298828125,2.500191875C3.33331298828125,2.500191875,9.16664298828125,2.500191875,9.16664298828125,2.500191875C9.62689298828125,2.500191875,9.99998298828125,2.873291875,9.99998298828125,3.333521875C9.99998298828125,3.793751875,9.62689298828125,4.166851875,9.16664298828125,4.166851875C9.16664298828125,4.166851875,3.33331298828125,4.166851875,3.33331298828125,4.166851875C3.11229298828125,4.166851875,2.90033298828125,4.254651875,2.74405298828125,4.410931875C2.58778298828125,4.567211875,2.49998298828125,4.779171875,2.49998298828125,5.000191875C2.49998298828125,5.000191875,2.49998298828125,16.666821875,2.49998298828125,16.666821875C2.49998298828125,16.887821875,2.58778298828125,17.099821875,2.74405298828125,17.256121875C2.90033298828125,17.412421875,3.11229298828125,17.500121875,3.33331298828125,17.500121875C3.33331298828125,17.500121875,15.00001298828125,17.500121875,15.00001298828125,17.500121875C15.22101298828125,17.500121875,15.43301298828125,17.412421875,15.58921298828125,17.256121875C15.74551298828125,17.099821875,15.83331298828125,16.887821875,15.83331298828125,16.666821875C15.83331298828125,16.666821875,15.83331298828125,10.833521875,15.83331298828125,10.833521875C15.83331298828125,10.373251875,16.20641298828125,10.000171875,16.66661298828125,10.000171875C17.12691298828125,10.000171875,17.50001298828125,10.373251875,17.50001298828125,10.833521875C17.50001298828125,10.833521875,17.50001298828125,16.666821875,17.50001298828125,16.666821875C17.50001298828125,17.329921875,17.23651298828125,17.965721875,16.76771298828125,18.434621875C16.298912988281252,18.903521875,15.66311298828125,19.166821875,15.00001298828125,19.166821875C15.00001298828125,19.166821875,3.33331298828125,19.166821875,3.33331298828125,19.166821875C2.67027298828125,19.166821875,2.03438298828125,18.903521875,1.56554598828125,18.434621875C1.09670498828125,17.965721875,0.83331298828125,17.329921875,0.83331298828125,16.666821875C0.83331298828125,16.666821875,0.83331298828125,5.000191875,0.83331298828125,5.000191875C0.83331298828125,4.337141875,1.09670498828125,3.701261875,1.56554598828125,3.232421875C1.56554598828125,3.232421875,1.56554598828125,3.232421875,1.56554598828125,3.232421875Z" fill-rule="evenodd" fill="#FFFFFF" fill-opacity="1"/></g></g></svg>