<svg xmlns="http://www.w3.org/2000/svg" xmlns:xlink="http://www.w3.org/1999/xlink" fill="none" version="1.1" width="24" height="24" viewBox="0 0 24 24"><defs><clipPath id="master_svg0_135_5507/135_5198"><rect x="0" y="0" width="24" height="24" rx="0"/></clipPath></defs><g style="mix-blend-mode:passthrough" clip-path="url(#master_svg0_135_5507/135_5198)"><g style="mix-blend-mode:passthrough"><path d="M12,3C7.02944,3,3,7.02944,3,12C3,16.970599999999997,7.02944,21,12,21C16.970599999999997,21,21,16.970599999999997,21,12C21,7.02944,16.970599999999997,3,12,3C12,3,12,3,12,3ZM1,12C1,5.92487,5.92487,1,12,1C18.0751,1,23,5.92487,23,12C23,18.0751,18.0751,23,12,23C5.92487,23,1,18.0751,1,12C1,12,1,12,1,12ZM11,8C11,7.44772,11.4477,7,12,7C12,7,12.01,7,12.01,7C12.5623,7,13.01,7.44772,13.01,8C13.01,8.55228,12.5623,9,12.01,9C12.01,9,12,9,12,9C11.4477,9,11,8.55228,11,8C11,8,11,8,11,8ZM12,11C12.5523,11,13,11.4477,13,12C13,12,13,16,13,16C13,16.552300000000002,12.5523,17,12,17C11.4477,17,11,16.552300000000002,11,16C11,16,11,12,11,12C11,11.4477,11.4477,11,12,11C12,11,12,11,12,11Z" fill-rule="evenodd" fill="#FFFFFF" fill-opacity="1"/></g></g></svg>