<svg xmlns="http://www.w3.org/2000/svg" xmlns:xlink="http://www.w3.org/1999/xlink" fill="none" version="1.1" width="24" height="24" viewBox="0 0 24 24"><defs><clipPath id="master_svg0_317_7290/214_7833/214_6948/214_6818"><rect x="0" y="0" width="24" height="24" rx="0"/></clipPath></defs><g style="mix-blend-mode:passthrough" clip-path="url(#master_svg0_317_7290/214_7833/214_6948/214_6818)"><g style="mix-blend-mode:passthrough"><path d="M2,2C2,1.447715,2.447715,1,3,1C3,1,21,1,21,1C21.5523,1,22,1.447715,22,2C22,2,22,14,22,14C22,14.2652,21.8946,14.5196,21.7071,14.7071C21.7071,14.7071,17.7071,18.7071,17.7071,18.7071C17.5196,18.8946,17.2652,19,17,19C17,19,12.4142,19,12.4142,19C12.4142,19,8.70711,22.7071,8.70711,22.7071C8.421109999999999,22.9931,7.99099,23.0787,7.61732,22.9239C7.24364,22.7691,7,22.4045,7,22C7,22,7,19,7,19C7,19,3,19,3,19C2.447715,19,2,18.5523,2,18C2,18,2,2,2,2C2,2,2,2,2,2ZM4,3C4,3,4,17,4,17C4,17,8,17,8,17C8.55228,17,9,17.4477,9,18C9,18,9,19.5858,9,19.5858C9,19.5858,11.29289,17.2929,11.29289,17.2929C11.48043,17.1054,11.73478,17,12,17C12,17,16.5858,17,16.5858,17C16.5858,17,20,13.5858,20,13.5858C20,13.5858,20,3,20,3C20,3,4,3,4,3C4,3,4,3,4,3ZM11,6C11.55229,6,12,6.44772,12,7C12,7,12,11,12,11C12,11.5523,11.55229,12,11,12C10.44772,12,10,11.5523,10,11C10,11,10,7,10,7C10,6.44772,10.44772,6,11,6C11,6,11,6,11,6ZM16,6C16.552300000000002,6,17,6.44772,17,7C17,7,17,11,17,11C17,11.5523,16.552300000000002,12,16,12C15.4477,12,15,11.5523,15,11C15,11,15,7,15,7C15,6.44772,15.4477,6,16,6C16,6,16,6,16,6Z" fill-rule="evenodd" fill="#FFFFFF" fill-opacity="1"/></g></g></svg>