<svg xmlns="http://www.w3.org/2000/svg" xmlns:xlink="http://www.w3.org/1999/xlink" fill="none" version="1.1" width="20" height="20" viewBox="0 0 20 20"><defs><clipPath id="master_svg0_101_4419/1_7751"><rect x="0" y="0" width="20" height="20" rx="0"/></clipPath></defs><g style="mix-blend-mode:passthrough" clip-path="url(#master_svg0_101_4419/1_7751)"><g style="mix-blend-mode:passthrough"><path d="M9.16668701171875,3.33335701171875C5.94502701171875,3.33335701171875,3.33335701171875,5.94502701171875,3.33335701171875,9.16668701171875C3.33335701171875,12.38838701171875,5.94502701171875,14.99998701171875,9.16668701171875,14.99998701171875C10.73826701171875,14.99998701171875,12.16478701171875,14.37848701171875,13.21368701171875,13.36788701171875C13.23558701171875,13.33938701171875,13.25958701171875,13.31188701171875,13.28578701171875,13.28578701171875C13.31188701171875,13.25958701171875,13.33938701171875,13.23558701171875,13.36788701171875,13.21368701171875C14.37848701171875,12.16478701171875,14.99998701171875,10.73826701171875,14.99998701171875,9.16668701171875C14.99998701171875,5.94502701171875,12.38838701171875,3.33335701171875,9.16668701171875,3.33335701171875C9.16668701171875,3.33335701171875,9.16668701171875,3.33335701171875,9.16668701171875,3.33335701171875ZM15.02658701171875,13.84808701171875C16.052887011718752,12.56498701171875,16.66668701171875,10.93751701171875,16.66668701171875,9.16668701171875C16.66668701171875,5.02455701171875,13.30888701171875,1.66668701171875,9.16668701171875,1.66668701171875C5.02455701171875,1.66668701171875,1.66668701171875,5.02455701171875,1.66668701171875,9.16668701171875C1.66668701171875,13.30888701171875,5.02455701171875,16.66668701171875,9.16668701171875,16.66668701171875C10.93751701171875,16.66668701171875,12.56498701171875,16.052887011718752,13.84808701171875,15.02658701171875C13.84808701171875,15.02658701171875,16.91078701171875,18.08928701171875,16.91078701171875,18.08928701171875C17.236187011718748,18.41468701171875,17.76388701171875,18.41468701171875,18.08928701171875,18.08928701171875C18.41468701171875,17.76388701171875,18.41468701171875,17.236187011718748,18.08928701171875,16.91078701171875C18.08928701171875,16.91078701171875,15.02658701171875,13.84808701171875,15.02658701171875,13.84808701171875C15.02658701171875,13.84808701171875,15.02658701171875,13.84808701171875,15.02658701171875,13.84808701171875Z" fill-rule="evenodd" fill="#D8D8D8" fill-opacity="1"/></g></g></svg>