<svg xmlns="http://www.w3.org/2000/svg" xmlns:xlink="http://www.w3.org/1999/xlink" fill="none" version="1.1" width="30" height="30" viewBox="0 0 30 30"><defs><clipPath id="master_svg0_597_60902/120_05713"><rect x="0" y="0" width="30" height="30" rx="0"/></clipPath></defs><g style="mix-blend-mode:passthrough" clip-path="url(#master_svg0_597_60902/120_05713)"><g style="mix-blend-mode:passthrough"><path d="M9.05,3.75C9.05,3.75,20.95,3.750000149011,20.95,3.750000149011C21.6476,3.750370517,22.332,3.945354,22.925,4.313025C23.5174,4.680372,23.9956,5.20555,24.3061,5.8296C24.3064,5.83015,24.3066,5.8307,24.3069,5.83125C24.3069,5.83125,28.6177,14.4403,28.6177,14.4403C28.7048,14.6141,28.75,14.8057,28.75,15C28.75,15,28.75,22.5,28.75,22.5C28.75,23.4946,28.3549,24.4484,27.6516,25.1516C26.9484,25.8549,25.9946,26.25,25,26.25C25,26.25,5,26.25,5,26.25C4.00544,26.25,3.05161,25.8549,2.34835,25.1516C1.645087,24.4484,1.25,23.4945,1.25,22.5C1.25,22.5,1.25,15,1.25,15C1.25,14.8057,1.2952955,14.6141,1.382291,14.4403C1.382291,14.4403,5.69309,5.83125,5.69309,5.83125C5.69339,5.83064,5.69369,5.83004,5.694,5.82943C6.00448,5.20545,6.48271,4.680338,7.07505,4.313025C7.66796,3.945354,8.35234,3.750370219,9.05,3.75C9.05,3.75,9.05,3.75,9.05,3.75ZM9.05043,6.25C8.81795,6.25016,8.59014,6.3151600000000006,8.39256,6.43767C8.19493,6.56024,8.0354,6.73549,7.93191,6.94375C7.93191,6.94375,7.93021,6.94716,7.93021,6.94716C7.93021,6.94716,4.5238499999999995,13.75,4.5238499999999995,13.75C4.5238499999999995,13.75,10,13.75,10,13.75C10.41794,13.75,10.80823,13.9589,11.04006,14.3066C11.04006,14.3066,13.169,17.5,13.169,17.5C13.169,17.5,16.831,17.5,16.831,17.5C16.831,17.5,18.9599,14.3066,18.9599,14.3066C19.1917,13.9589,19.582,13.75,20,13.75C20,13.75,25.4761,13.75,25.4761,13.75C25.4761,13.75,22.0697,6.94716,22.0697,6.94716C22.0697,6.94716,22.0681,6.94375,22.0681,6.94375C21.9646,6.73549,21.8051,6.56023,21.6074,6.43767C21.4099,6.3151600000000006,21.182,6.25016,20.9496,6.25C20.9496,6.25,9.05043,6.25,9.05043,6.25C9.05043,6.25,9.05043,6.25,9.05043,6.25ZM26.25,16.25C26.25,16.25,20.669,16.25,20.669,16.25C20.669,16.25,18.5401,19.4434,18.5401,19.4434C18.3083,19.7911,17.918,20,17.5,20C17.5,20,12.5,20,12.5,20C12.0821,20,11.6918,19.7911,11.4599,19.4434C11.4599,19.4434,9.33103,16.25,9.33103,16.25C9.33103,16.25,3.75,16.25,3.75,16.25C3.75,16.25,3.75,22.5,3.75,22.5C3.75,22.8315,3.8817,23.1495,4.11611,23.3839C4.3505400000000005,23.6182,4.668480000000001,23.75,5,23.75C5,23.75,25,23.75,25,23.75C25.3315,23.75,25.6495,23.6182,25.8839,23.3839C26.1182,23.1495,26.25,22.8315,26.25,22.5C26.25,22.5,26.25,16.25,26.25,16.25C26.25,16.25,26.25,16.25,26.25,16.25Z" fill-rule="evenodd" fill="#FFFFFF" fill-opacity="1"/></g></g></svg>