<svg xmlns="http://www.w3.org/2000/svg" xmlns:xlink="http://www.w3.org/1999/xlink" fill="none" version="1.1" width="24" height="24" viewBox="0 0 24 24"><defs><clipPath id="master_svg0_847_04944"><rect x="0" y="0" width="24" height="24" rx="0"/></clipPath></defs><g style="mix-blend-mode:passthrough" clip-path="url(#master_svg0_847_04944)"><g style="mix-blend-mode:passthrough"><path d="M5,4C5,3.447715,5.447715,3,6,3C6,3,10,3,10,3C10.55228,3,11,3.447715,11,4C11,4,11,20,11,20C11,20.5523,10.55228,21,10,21C10,21,6,21,6,21C5.447715,21,5,20.5523,5,20C5,20,5,4,5,4C5,4,5,4,5,4ZM7,5C7,5,7,19,7,19C7,19,9,19,9,19C9,19,9,5,9,5C9,5,7,5,7,5C7,5,7,5,7,5ZM13,4C13,3.447715,13.44772,3,14,3C14,3,18,3,18,3C18.552300000000002,3,19,3.447715,19,4C19,4,19,20,19,20C19,20.5523,18.552300000000002,21,18,21C18,21,14,21,14,21C13.44772,21,13,20.5523,13,20C13,20,13,4,13,4C13,4,13,4,13,4ZM15,5C15,5,15,19,15,19C15,19,17,19,17,19C17,19,17,5,17,5C17,5,15,5,15,5C15,5,15,5,15,5Z" fill-rule="evenodd" fill="#FFFFFF" fill-opacity="1"/></g></g></svg>