<svg xmlns="http://www.w3.org/2000/svg" xmlns:xlink="http://www.w3.org/1999/xlink" fill="none" version="1.1" width="24" height="24" viewBox="0 0 24 24"><defs><clipPath id="master_svg0_321_00181/214_7833/214_6957/214_6818"><rect x="0" y="0" width="24" height="24" rx="0"/></clipPath></defs><g style="mix-blend-mode:passthrough" clip-path="url(#master_svg0_321_00181/214_7833/214_6957/214_6818)"><g style="mix-blend-mode:passthrough"><path d="M12,3C12.55225,3,13,3.4477539999999998,13,4C13,4,13,17,13,17C13,17.5522,12.55225,18,12,18C11.44775,18,11,17.5522,11,17C11,17,11,4,11,4C11,3.4477539999999998,11.44775,3,12,3C12,3,12,3,12,3ZM18,9C18.5522,9,19,9.44775,19,10C19,10,19,20,19,20C19,20.5522,18.5522,21,18,21C17.4478,21,17,20.5522,17,20C17,20,17,10,17,10C17,9.44775,17.4478,9,18,9C18,9,18,9,18,9ZM6,13C6.55225,13,7,13.4478,7,14C7,14,7,20,7,20C7,20.5522,6.55225,21,6,21C5.447754,21,5,20.5522,5,20C5,20,5,14,5,14C5,13.4478,5.447754,13,6,13C6,13,6,13,6,13Z" fill-rule="evenodd" fill="#FFFFFF" fill-opacity="1"/></g><g style="mix-blend-mode:passthrough"><path d="M11.5527978258667,19.276482L11.0527387258667,20.27648C11.018018025866699,20.34591,10.9999418258667,20.42248,10.9999418258667,20.50011C10.9999418258667,20.77625,11.223799825866699,21.00011,11.4999418258667,21.00011L12.4999318258667,21.00011C12.5775518258667,21.00011,12.6541018258667,20.98204,12.7235218258667,20.94733C12.9705118258667,20.82385,13.0706418258667,20.52352,12.947161825866699,20.27653L12.447221825866698,19.276525C12.3988518258667,19.179759,12.320391825866698,19.101293,12.223631825866699,19.0529064C11.9766448258667,18.9294002,11.676303825866698,19.0294982,11.5527978258667,19.276482Z" fill-rule="evenodd" fill="#FFFFFF" fill-opacity="1"/></g></g></svg>