<svg xmlns="http://www.w3.org/2000/svg" xmlns:xlink="http://www.w3.org/1999/xlink" fill="none" version="1.1" width="24" height="24" viewBox="0 0 24 24"><defs><clipPath id="master_svg0_317_7290/214_7833/214_6929/214_6818"><rect x="0" y="0" width="24" height="24" rx="0"/></clipPath></defs><g style="mix-blend-mode:passthrough" clip-path="url(#master_svg0_317_7290/214_7833/214_6929/214_6818)"><g style="mix-blend-mode:passthrough"><path d="M5.575169900360107,21.041700476837157Q4.601879900360108,21.526000476837158,4.601879900360108,22.421100476837157Q4.601879900360108,23.344600476837158,5.786619900360107,23.643900476837157Q6.295709900360108,23.77250047683716,7.236679900360107,23.85170047683716Q8.997269900360108,24.000000476837158,12.476779900360107,24.000000476837158Q15.956179900360107,24.000000476837158,17.71677990036011,23.85170047683716Q18.657779900360108,23.77250047683716,19.166879900360108,23.643900476837157Q20.351579900360107,23.344600476837158,20.351579900360107,22.421100476837157Q20.351579900360107,21.47490047683716,19.247779900360108,20.99680047683716Q19.212979900360107,20.981800476837158,19.176679900360107,20.967100476837157Q19.519779900360106,20.43390047683716,19.76737990036011,19.811600476837157Q20.397079900360108,20.526300476837157,21.070279900360106,20.526300476837157Q21.971779900360108,20.526300476837157,22.32827990036011,19.58050047683716Q22.499979900360106,19.125100476837158,22.499979900360106,18.440800476837158Q22.499979900360106,17.19460047683716,22.019979900360106,15.739400476837158Q21.463279900360106,14.051600476837159,20.351579900360107,10.124400476837158L20.351579900360107,7.9473704768371585Q20.351579900360107,4.658530476837158,18.048779900360106,2.331450476837158Q15.741679900360108,1.5820312500312622e-13,12.476679900360107,4.76837158203125e-7Q9.211739900360108,2.38418158203125e-7,6.904619900360108,2.331450476837158Q4.601829900360107,4.658530476837158,4.601829900360107,7.9473704768371585L4.601829900360107,10.060100476837158Q2.9328699003601075,14.004300476837159,2.3605399003601075,15.739400476837158Q2.2619719003601073,16.038200476837158,2.0684549003601074,16.590200476837158Q1.6324539003601075,17.834000476837158,1.5458694003601074,18.35320047683716Q1.3473889003601074,19.543400476837157,2.0264989003601075,20.22970047683716Q2.6085399003601077,20.81790047683716,3.4145899003601077,20.546400476837157Q3.8541899003601072,20.398300476837157,4.307469900360108,19.94020047683716Q4.489019900360107,19.756800476837157,4.690489900360108,19.506100476837158Q5.058909900360107,20.35140047683716,5.575169900360107,21.041700476837157ZM8.392829900360107,21.922700476837157Q9.964319900360108,22.000000476837158,12.476779900360107,22.000000476837158Q14.878279900360107,22.000000476837158,16.420079900360108,21.92940047683716C16.360579900360108,21.78300047683716,16.336579900360107,21.62460047683716,16.350079900360107,21.467200476837156C16.372779900360108,21.203000476837158,16.499479900360107,20.95860047683716,16.702279900360107,20.78770047683716Q18.11007990036011,19.602200476837158,18.356479900360107,17.11210047683716C18.39047990036011,16.768800476837157,18.598979900360106,16.467200476837156,18.908179900360107,16.314200476837158C19.39527990036011,16.073200476837158,19.985779900360107,16.265400476837158,20.237679900360106,16.747100476837158Q20.184579900360106,16.559700476837158,20.12067990036011,16.365900476837158Q19.540979900360107,14.608600476837157,18.38927990036011,10.535200476837158C18.364279900360106,10.446700476837158,18.351579900360107,10.355200476837158,18.351579900360107,10.263200476837158L18.351579900360107,7.9473704768371585Q18.351579900360107,5.480820476837158,16.627179900360108,3.7382204768371583Q14.907079900360108,2.000000476837158,12.476679900360107,2.000000476837158Q10.046319900360107,2.000000476837158,8.326239900360108,3.7382204768371583Q6.601829900360108,5.480820476837158,6.601829900360108,7.9473704768371585L6.601829900360108,10.263200476837158C6.601829900360108,10.397300476837158,6.574839900360107,10.530100476837157,6.522459900360108,10.653600476837159Q4.819849900360108,14.668200476837159,4.259879900360108,16.365900476837158Q4.202969900360108,16.538400476837158,4.117739900360108,16.78620047683716Q4.143249900360107,16.74360047683716,4.169129900360107,16.700000476837157C4.314139900360107,16.45570047683716,4.556189900360108,16.28470047683716,4.834829900360107,16.22960047683716C5.094999900360108,16.17810047683716,5.364969900360107,16.232000476837158,5.585349900360107,16.379600476837158C5.805729900360108,16.52710047683716,5.958459900360108,16.756200476837158,6.009949900360107,17.01640047683716Q6.510369900360107,19.544900476837157,8.077549900360108,20.76310047683716C8.278859900360107,20.919600476837157,8.412789900360107,21.147100476837156,8.451949900360107,21.39900047683716C8.479429900360106,21.57570047683716,8.459009900360108,21.756500476837157,8.392829900360107,21.922700476837157Z" fill-rule="evenodd" fill="#FFFFFF" fill-opacity="1"/></g><g style="mix-blend-mode:passthrough"><path d="M5.5,12.33325Q7.25684,12.96777,8.19214,13.37231L8.19238,16.41675L11.01929,17L11.01929,13.97388Q11.8269,14.08325,12.5,14.08325Q15.19238,14.08325,19.5,12.33325L18.961399999999998,10Q16.2693,11.16675,12.5,11.16675Q8.73071,11.16675,6.038574,10L5.5,12.33325Z" fill="#FFFFFF" fill-opacity="1"/></g><g style="mix-blend-mode:passthrough"><path d="M7.6922360902404785,13.703658092651366L7.6923060902404785,16.416678092651367C7.692316090240478,16.65386809265137,7.858966090240479,16.858418092651366,8.09126609024048,16.906348092651367L10.918186090240479,17.489688092651367C10.951426090240478,17.496548092651366,10.985286090240479,17.499998092651367,11.01922609024048,17.499998092651367C11.295376090240477,17.499998092651367,11.51922609024048,17.276138092651365,11.51922609024048,16.999998092651367L11.51922609024048,14.534728092651367Q12.03827609024048,14.583328092651367,12.49999609024048,14.583328092651367Q15.29002609024048,14.583328092651367,19.688226090240477,12.796568092651366C19.91572609024048,12.704138092651368,20.04242609024048,12.460178092651367,19.987226090240476,12.220908092651367L19.448726090240477,9.887570092651368C19.44192609024048,9.857975092651367,19.432426090240476,9.829064092651366,19.42032609024048,9.801196092651367C19.367626090240478,9.679521092651367,19.268726090240477,9.583774392651367,19.14532609024048,9.535019692651368C19.02202609024048,9.486264792651367,18.884426090240478,9.488495892651367,18.762726090240477,9.541221992651368Q16.165526090240476,10.666668092651367,12.49999609024048,10.666668092651367Q8.834446090240478,10.666668092651367,6.237266090240478,9.541221992651368C6.209396090240478,9.529145692651367,6.180486090240478,9.519633792651367,6.150886090240478,9.512804192651368C6.0216760902404785,9.482985992651367,5.885913090240479,9.505718472651367,5.7734620902404785,9.576000692651368C5.661010090240478,9.646283092651368,5.581084090240479,9.758358092651367,5.551266090240478,9.887570092651368L5.012804290240479,12.220908092651367C4.955905490240479,12.467468092651368,5.092178690240479,12.717668092651367,5.330178090240478,12.803608092651366Q6.805626090240478,13.336408092651368,7.6922360902404785,13.703658092651366ZM8.692296090240479,16.009308092651366L8.692226090240478,13.372178092651367C8.692226090240478,13.172758092651367,8.573716090240477,12.992398092651367,8.39066609024048,12.913258092651368Q7.556146090240478,12.552418092651367,6.086696090240478,12.014588092651367L6.393986090240478,10.683008092651367Q9.005006090240478,11.666668092651367,12.49999609024048,11.666668092651367Q15.99502609024048,11.666668092651367,18.606026090240476,10.683008092651367L18.91652609024048,12.028348092651367Q14.97189609024048,13.583328092651367,12.49999609024048,13.583328092651367Q11.860626090240478,13.583328092651367,11.08632609024048,13.478478092651367C10.81268609024048,13.441428092651368,10.56080609024048,13.633218092651367,10.523756090240479,13.906858092651367C10.520746090240479,13.929098092651367,10.51922609024048,13.951518092651368,10.51922609024048,13.973958092651367L10.51922609024048,16.386288092651366L8.692296090240479,16.009308092651366Z" fill-rule="evenodd" fill="#FFFFFF" fill-opacity="1"/></g></g></svg>