<svg xmlns="http://www.w3.org/2000/svg" xmlns:xlink="http://www.w3.org/1999/xlink" fill="none" version="1.1" width="24" height="24" viewBox="0 0 24 24"><defs><clipPath id="master_svg0_321_00181/214_7833/214_6966/214_6818"><rect x="0" y="0" width="24" height="24" rx="0"/></clipPath></defs><g style="mix-blend-mode:passthrough" clip-path="url(#master_svg0_321_00181/214_7833/214_6966/214_6818)"><g style="mix-blend-mode:passthrough"><path d="M18,3C18.5522,3,19,3.4477539999999998,19,4C19,4,19,17,19,17C19,17.5522,18.5522,18,18,18C17.4478,18,17,17.5522,17,17C17,17,17,4,17,4C17,3.4477539999999998,17.4478,3,18,3C18,3,18,3,18,3ZM12,9C12.55225,9,13,9.44775,13,10C13,10,13,20,13,20C13,20.5522,12.55225,21,12,21C11.44775,21,11,20.5522,11,20C11,20,11,10,11,10C11,9.44775,11.44775,9,12,9C12,9,12,9,12,9ZM6,15C6.55225,15,7,15.4478,7,16C7,16,7,20,7,20C7,20.5522,6.55225,21,6,21C5.447754,21,5,20.5522,5,20C5,20,5,16,5,16C5,15.4478,5.447754,15,6,15C6,15,6,15,6,15Z" fill-rule="evenodd" fill="#FFFFFF" fill-opacity="1"/></g><g style="mix-blend-mode:passthrough"><path d="M17.552786,19.276503L17.0527864,20.2765C17.0180725,20.34593,17,20.42249,17,20.50011C17,20.77625,17.223858,21.00011,17.5,21.00011L18.5,21.00011C18.57762,21.00011,18.65418,20.98204,18.72361,20.94732C18.9706,20.82383,19.07071,20.52349,18.94721,20.2765L18.44721,19.276503C18.39883,19.179739,18.32037,19.101278,18.22361,19.0528959C17.976618,18.9294013,17.676281,19.0295135,17.552786,19.276503Z" fill-rule="evenodd" fill="#FFFFFF" fill-opacity="1"/></g></g></svg>