<svg xmlns="http://www.w3.org/2000/svg" xmlns:xlink="http://www.w3.org/1999/xlink" fill="none" version="1.1" width="24" height="24" viewBox="0 0 24 24"><defs><clipPath id="master_svg0_325_00420/214_7833/214_6966/214_6818"><rect x="0" y="0" width="24" height="24" rx="0"/></clipPath></defs><g style="mix-blend-mode:passthrough" clip-path="url(#master_svg0_325_00420/214_7833/214_6966/214_6818)"><g style="mix-blend-mode:passthrough"><path d="M10.528211091499328,2.2833019375C10.977481091499328,2.0303489375,11.484381091499328,1.8974609375,11.999981091499329,1.8974609375C12.515581091499328,1.8974609375,13.022481091499328,2.0303489375,13.471781091499329,2.2833019375C13.921081091499328,2.5362559375,14.297581091499328,2.9007409375,14.564981091499329,3.3415809375C14.564981091499329,3.3415809375,14.567881091499329,3.3463209375,14.567881091499329,3.3463209375C14.567881091499329,3.3463209375,23.03788109149933,17.486360937500002,23.03788109149933,17.486360937500002C23.03788109149933,17.486360937500002,23.04598109149933,17.5001609375,23.04598109149933,17.5001609375C23.30798109149933,17.9537609375,23.44658109149933,18.4680609375,23.44798109149933,18.9919609375C23.44948109149933,19.5157609375,23.31378109149933,20.0308609375,23.05438109149933,20.4859609375C22.794981091499327,20.9410609375,22.42088109149933,21.3202609375,21.96938109149933,21.5859609375C21.51798109149933,21.8515609375,21.00478109149933,21.9943609375,20.480981091499327,22.0001609375C20.480981091499327,22.0001609375,20.469981091499328,22.0002609375,20.469981091499328,22.0002609375C20.469981091499328,22.0002609375,3.5190110914993284,22.0001609375,3.5190110914993284,22.0001609375C2.995201091499329,21.9944609375,2.4820410914993287,21.8515609375,2.0305710914993287,21.5859609375C1.5791010914993286,21.3202609375,1.2050520914993286,20.9410609375,0.9456490914993286,20.4859609375C0.6862460914993286,20.0308609375,0.5505261614993286,19.5157609375,0.5519928540993286,18.9919609375C0.5534596014993286,18.4680609375,0.6920620914993286,17.9537609375,0.9540090914993287,17.5001609375C0.9540090914993287,17.5001609375,0.9621330914993287,17.486360937500002,0.9621330914993287,17.486360937500002C0.9621330914993287,17.486360937500002,9.43499109149933,3.3415709375000002,9.43499109149933,3.3415709375000002C9.70239109149933,2.9007309375,10.078921091499328,2.5362559375,10.528211091499328,2.2833019375C10.528211091499328,2.2833019375,10.528211091499328,2.2833019375,10.528211091499328,2.2833019375ZM11.999981091499329,3.8974609375C11.828181091499328,3.8974609375,11.65918109149933,3.9417609375,11.509381091499328,4.0260709375C11.360281091499328,4.1100109375,11.235281091499328,4.2307909375,11.14618109149933,4.3768409375C11.14618109149933,4.3768409375,2.6826910914993287,18.5060609375,2.6826910914993287,18.5060609375C2.5975110914993285,18.6558609375,2.5524710914993287,18.8251609375,2.5519810914993286,18.9975609375C2.5515010914993286,19.1721609375,2.5967310914993287,19.3438609375,2.6832010914993285,19.4955609375C2.7696710914993288,19.6472609375,2.8943510914993285,19.7736609375,3.0448410914993285,19.8621609375C3.194021091499329,19.9499609375,3.3633910914993286,19.9974609375,3.5364010914993287,20.0001609375C3.5364010914993287,20.0001609375,20.46358109149933,20.0001609375,20.46358109149933,20.0001609375C20.636581091499327,19.9974609375,20.80598109149933,19.9499609375,20.955181091499327,19.8621609375C21.105681091499328,19.7736609375,21.23028109149933,19.6472609375,21.31678109149933,19.4955609375C21.403281091499327,19.3438609375,21.44848109149933,19.1721609375,21.44798109149933,18.9975609375C21.44758109149933,18.8251609375,21.40248109149933,18.6558609375,21.31738109149933,18.5060609375C21.31738109149933,18.5060609375,12.85498109149933,4.3788309375,12.85498109149933,4.3788309375C12.854581091499329,4.3781709375,12.854181091499328,4.3775009375,12.853781091499329,4.3768409375C12.764681091499329,4.2307909375,12.639681091499329,4.1100109375,12.490581091499328,4.0260709375C12.340881091499329,3.9417609375,12.171881091499328,3.8974609375,11.999981091499329,3.8974609375C11.999981091499329,3.8974609375,11.999981091499329,3.8974609375,11.999981091499329,3.8974609375ZM11.999981091499329,8.0002009375C12.552281091499328,8.0002009375,12.999981091499329,8.447920937500001,12.999981091499329,9.0002009375C12.999981091499329,9.0002009375,12.999981091499329,13.0001609375,12.999981091499329,13.0001609375C12.999981091499329,13.5524609375,12.552281091499328,14.0001609375,11.999981091499329,14.0001609375C11.447681091499328,14.0001609375,10.999981091499329,13.5524609375,10.999981091499329,13.0001609375C10.999981091499329,13.0001609375,10.999981091499329,9.0002009375,10.999981091499329,9.0002009375C10.999981091499329,8.447920937500001,11.447681091499328,8.0002009375,11.999981091499329,8.0002009375C11.999981091499329,8.0002009375,11.999981091499329,8.0002009375,11.999981091499329,8.0002009375ZM10.999981091499329,17.0001609375C10.999981091499329,16.4479609375,11.447681091499328,16.0001609375,11.999981091499329,16.0001609375C11.999981091499329,16.0001609375,12.009981091499329,16.0001609375,12.009981091499329,16.0001609375C12.56228109149933,16.0001609375,13.009981091499329,16.4479609375,13.009981091499329,17.0001609375C13.009981091499329,17.5524609375,12.56228109149933,18.0001609375,12.009981091499329,18.0001609375C12.009981091499329,18.0001609375,11.999981091499329,18.0001609375,11.999981091499329,18.0001609375C11.447681091499328,18.0001609375,10.999981091499329,17.5524609375,10.999981091499329,17.0001609375C10.999981091499329,17.0001609375,10.999981091499329,17.0001609375,10.999981091499329,17.0001609375Z" fill-rule="evenodd" fill="#FFFFFF" fill-opacity="1"/></g></g></svg>