<svg xmlns="http://www.w3.org/2000/svg" xmlns:xlink="http://www.w3.org/1999/xlink" fill="none" version="1.1" width="20" height="20" viewBox="0 0 20 20"><defs><clipPath id="master_svg0_27_781/147_6426/1_06347"><rect x="0" y="0" width="20" height="20" rx="0"/></clipPath></defs><g style="mix-blend-mode:passthrough" clip-path="url(#master_svg0_27_781/147_6426/1_06347)"><g style="mix-blend-mode:passthrough"><path d="M12.0515974609375,2.0776010625C12.7090974609375,1.8052290625,13.4135974609375,1.6650390625,14.1251974609375,1.6650390625C14.8365974609375,1.6650390625,15.5411974609375,1.8052300625,16.1985974609375,2.0776010625C16.8557974609375,2.3499230625000003,17.4529974609375,2.7490490625,17.9558974609375,3.2521590625C18.4590974609375,3.7551190625,18.8584974609375,4.3525490625,19.1306974609375,5.0097690625C19.4030974609375,5.6671190625,19.5432974609375,6.3716790625,19.5432974609375,7.0832290625C19.5432974609375,7.7947690625,19.4030974609375,8.499339062499999,19.1306974609375,9.1566790625C18.8583974609375,9.8139690625,18.4591974609375,10.4111190625,17.9560974609375,10.9141190625C17.9559974609375,10.9142090625,17.9561974609375,10.9141190625,17.9560974609375,10.9141190625C17.9560974609375,10.9141190625,10.5893974609375,18.2807390625,10.5893974609375,18.2807390625C10.2639774609375,18.6062390625,9.7363174609375,18.6062390625,9.4108974609375,18.2807390625C9.4108974609375,18.2807390625,2.0442174609375,10.9141190625,2.0442174609375,10.9141190625C1.0281944609375,9.8981190625,0.4573974609375,8.5200990625,0.4573974609375,7.0832290625C0.4573974609375,5.6463590625,1.0281944609375,4.268329062499999,2.0442174609375,3.2523090625C3.0602374609375,2.2362810625,4.4382674609374995,1.6654847065,5.8751374609375,1.6654847065C7.3120174609375,1.6654847065,8.6900374609375,2.2362810625,9.7060674609375,3.2523090625C9.7060674609375,3.2523090625,10.0001474609375,3.5463790625,10.0001474609375,3.5463790625C10.0001474609375,3.5463790625,10.2940674609375,3.2524390624999997,10.2940674609375,3.2524390624999997C10.2941474609375,3.2523990625000003,10.2940674609375,3.2524890625,10.2940674609375,3.2524390624999997C10.7970974609375,2.7492590625,11.3943974609375,2.3499490625,12.0515974609375,2.0776010625C12.0515974609375,2.0776010625,12.0515974609375,2.0776010625,12.0515974609375,2.0776010625ZM14.1251974609375,3.3317090625C13.6325974609375,3.3317090625,13.1446974609375,3.4287690625,12.6896974609375,3.6173190625C12.2345974609375,3.8058890625,11.8211974609375,4.0822690625,11.4728974609375,4.430679062499999C11.4728974609375,4.430679062499999,10.5893974609375,5.3141490625,10.5893974609375,5.3141490625C10.2639774609375,5.6395890625,9.7363174609375,5.6395890625,9.4108974609375,5.3141490625C9.4108974609375,5.3141490625,8.5275474609375,4.4308090625,8.5275474609375,4.4308090625C7.8240874609375,3.7273590625,6.8699874609375,3.3321490625,5.8751374609375,3.3321490625C4.8802874609375,3.3321490625,3.9261874609375,3.7273590625,3.2227274609375,4.4308090625C2.5192674609375,5.1342790625,2.1240674609375,6.0883790625,2.1240674609375,7.0832290625C2.1240674609375,8.0780690625,2.5192674609375,9.0321690625,3.2227274609375,9.7356390625C3.2227274609375,9.7356390625,10.0001474609375,16.5130390625,10.0001474609375,16.5130390625C10.0001474609375,16.5130390625,16.7775974609375,9.7356390625,16.7775974609375,9.7356390625C17.1259974609375,9.3873990625,17.4024974609375,8.9737790625,17.5910974609375,8.5186990625C17.7795974609375,8.0636090625,17.8765974609375,7.5758290625,17.8765974609375,7.0832290625C17.8765974609375,6.5906190625,17.7795974609375,6.1028490625,17.5910974609375,5.6477590625000005C17.4024974609375,5.1926690625,17.1260974609375,4.7791990625,16.7775974609375,4.4309590624999995C16.429497460937498,4.0825490625,16.0156974609375,3.8058890625,15.5605974609375,3.6173190625C15.1055974609375,3.4287690625,14.6176974609375,3.3317090625,14.1251974609375,3.3317090625C14.1251974609375,3.3317090625,14.1251974609375,3.3317090625,14.1251974609375,3.3317090625Z" fill-rule="evenodd" fill="#FFFFFF" fill-opacity="1"/></g></g></svg>