<svg xmlns="http://www.w3.org/2000/svg" xmlns:xlink="http://www.w3.org/1999/xlink" fill="none" version="1.1" width="22" height="22" viewBox="0 0 22 22"><defs><clipPath id="master_svg0_807_02044/347_00552"><rect x="0" y="0" width="22" height="22" rx="0"/></clipPath></defs><g style="mix-blend-mode:passthrough" clip-path="url(#master_svg0_807_02044/347_00552)"><g style="mix-blend-mode:passthrough"><path d="M8.40711390625,1.07394C9.094743906249999,0.386308,10.02737390625,0,10.99983390625,0C11.97230390625,0,12.90494390625,0.386308,13.59253390625,1.07394C14.28020390625,1.76158,14.66650390625,2.6942,14.66650390625,3.66667C14.66650390625,3.66667,14.66650390625,11,14.66650390625,11C14.66650390625,11.9725,14.28020390625,12.9051,13.59253390625,13.5927C12.90494390625,14.2804,11.97230390625,14.6667,10.99983390625,14.6667C10.02737390625,14.6667,9.094743906249999,14.2804,8.40711390625,13.5927C7.71948390625,12.9051,7.33317390625,11.9725,7.33317390625,11C7.33317390625,11,7.33317390625,3.66667,7.33317390625,3.66667C7.33317390625,2.6942,7.71948390625,1.76158,8.40711390625,1.07394C8.40711390625,1.07394,8.40711390625,1.07394,8.40711390625,1.07394ZM10.99983390625,1.83333C10.51361390625,1.83333,10.047293906250001,2.02648,9.70347390625,2.37031C9.35965390625,2.71412,9.16650390625,3.18044,9.16650390625,3.66667C9.16650390625,3.66667,9.16650390625,11,9.16650390625,11C9.16650390625,11.4862,9.35965390625,11.9525,9.70347390625,12.2964C10.047293906250001,12.6402,10.51361390625,12.8333,10.99983390625,12.8333C11.48606390625,12.8333,11.95238390625,12.6402,12.29619390625,12.2964C12.64002390625,11.9525,12.83317390625,11.4862,12.83317390625,11C12.83317390625,11,12.83317390625,3.66667,12.83317390625,3.66667C12.83317390625,3.18044,12.64002390625,2.71412,12.29619390625,2.37031C11.95238390625,2.02648,11.48606390625,1.83333,10.99983390625,1.83333C10.99983390625,1.83333,10.99983390625,1.83333,10.99983390625,1.83333ZM4.58317090625,8.25C5.0894239062499995,8.25,5.49983390625,8.6604,5.49983390625,9.16667C5.49983390625,9.16667,5.49983390625,11,5.49983390625,11C5.49983390625,12.4587,6.07930390625,13.8576,7.11075390625,14.889C8.14220390625,15.9206,9.54114390625,16.5,10.99983390625,16.5C12.45853390625,16.5,13.85750390625,15.9206,14.88890390625,14.889C15.92040390625,13.8576,16.49980390625,12.4587,16.49980390625,11C16.49980390625,11,16.49980390625,9.16667,16.49980390625,9.16667C16.49980390625,8.6604,16.91020390625,8.25,17.41650390625,8.25C17.92280390625,8.25,18.33320390625,8.6604,18.33320390625,9.16667C18.33320390625,9.16667,18.33320390625,11,18.33320390625,11C18.33320390625,12.9449,17.56050390625,14.8102,16.18530390625,16.1855C15.02790390625,17.3429,13.52342390625,18.0735,11.91650390625,18.2759C11.91650390625,18.2759,11.91650390625,20.1667,11.91650390625,20.1667C11.91650390625,20.1667,14.66650390625,20.1667,14.66650390625,20.1667C15.17280390625,20.1667,15.58320390625,20.5771,15.58320390625,21.0833C15.58320390625,21.5896,15.17280390625,22,14.66650390625,22C14.66650390625,22,7.33317390625,22,7.33317390625,22C6.826913906250001,22,6.41650390625,21.5896,6.41650390625,21.0833C6.41650390625,20.5771,6.826913906250001,20.1667,7.33317390625,20.1667C7.33317390625,20.1667,10.08317390625,20.1667,10.08317390625,20.1667C10.08317390625,20.1667,10.08317390625,18.2759,10.08317390625,18.2759C8.476253906250001,18.0735,6.971793906249999,17.3429,5.81439390625,16.1855C4.43912090625,14.8102,3.6665039608875,12.9449,3.66650390625,11C3.66650390625,11,3.66650390625,9.16667,3.66650390625,9.16667C3.66650390625,8.6604,4.07690890625,8.25,4.58317090625,8.25C4.58317090625,8.25,4.58317090625,8.25,4.58317090625,8.25Z" fill-rule="evenodd" fill="#FFFFFF" fill-opacity="1"/></g></g></svg>