<svg xmlns="http://www.w3.org/2000/svg" xmlns:xlink="http://www.w3.org/1999/xlink" fill="none" version="1.1" width="24" height="24" viewBox="0 0 24 24"><defs><clipPath id="master_svg0_135_5676/135_5198"><rect x="0" y="0" width="24" height="24" rx="0"/></clipPath></defs><g style="mix-blend-mode:passthrough" clip-path="url(#master_svg0_135_5676/135_5198)"><g style="mix-blend-mode:passthrough"><path d="M12.775240830230713,2.7507108206939694C13.906940830230713,1.6577638206939698,15.422540830230712,1.0529971206939697,16.995740830230712,1.0666676356939697C18.568840830230712,1.0803381206939697,20.07374083023071,1.7113518206939697,21.186240830230712,2.82380082069397C22.298640830230713,3.93625082069397,22.929640830230714,5.441120820693969,22.943340830230714,7.01430082069397C22.957040830230714,8.587480820693969,22.352240830230713,10.10310082069397,21.259240830230713,11.23474082069397C21.259240830230713,11.23474082069397,21.247140830230713,11.24714082069397,21.247140830230713,11.24714082069397C21.247140830230713,11.24714082069397,18.247240830230712,14.24694082069397,18.247240830230712,14.24694082069397C18.247240830230712,14.24704082069397,18.247240830230712,14.24694082069397,18.247240830230712,14.24694082069397C17.639040830230712,14.85544082069397,16.906940830230713,15.32604082069397,16.100840830230712,15.62674082069397C15.294740830230714,15.92744082069397,14.433340830230712,16.05124082069397,13.575240830230713,15.989740820693969C12.717040830230713,15.92834082069397,11.882140830230712,15.68304082069397,11.127140830230713,15.27054082069397C10.372060830230712,14.85804082069397,9.714580830230712,14.28794082069397,9.199230830230713,13.59894082069397C8.868430830230713,13.156740820693969,8.958770830230712,12.53004082069397,9.401020830230713,12.19924082069397C9.843270830230713,11.86844082069397,10.469960830230713,11.95874082069397,10.800760830230713,12.40104082069397C11.144340830230712,12.86034082069397,11.582640830230712,13.24034082069397,12.086040830230713,13.51534082069397C12.589340830230713,13.79034082069397,13.145940830230712,13.953940820693969,13.718040830230713,13.99484082069397C14.290240830230713,14.03584082069397,14.864440830230713,13.95334082069397,15.401840830230713,13.75284082069397C15.939240830230712,13.55234082069397,16.427240830230712,13.23864082069397,16.832740830230712,12.83304082069397C16.832740830230712,12.83304082069397,19.826440830230712,9.83934082069397,19.826440830230712,9.83934082069397C20.551440830230714,9.08557082069397,20.952540830230713,8.077720820693969,20.943440830230713,7.031680820693969C20.934340830230713,5.98290082069397,20.513640830230713,4.979650820693969,19.77194083023071,4.23801082069397C19.030340830230713,3.49638082069397,18.027140830230714,3.0757008206939696,16.978340830230714,3.06659082069397C15.931840830230714,3.05750082069397,14.923540830230714,3.4589108206939696,14.169640830230714,4.184550820693969C14.169640830230714,4.184550820693969,12.455040830230713,5.88916082069397,12.455040830230713,5.88916082069397C12.063340830230713,6.27855082069397,11.430240830230712,6.27670082069397,11.040830830230712,5.88504082069397C10.651450830230713,5.49338082069397,10.653300830230712,4.86022082069397,11.044960830230712,4.470830820693969C11.044960830230712,4.470830820693969,12.764940830230714,2.76083082069397,12.764940830230714,2.76083082069397C12.764940830230714,2.76083082069397,12.775240830230713,2.7507108206939694,12.775240830230713,2.7507108206939694C12.775240830230713,2.7507108206939694,12.775240830230713,2.7507108206939694,12.775240830230713,2.7507108206939694ZM7.899150830230713,8.37328082069397C8.705260830230714,8.07258082069397,9.566610830230713,7.94876082069397,10.424780830230713,8.01022082069397C11.282940830230713,8.07168082069397,12.117840830230714,8.31698082069397,12.872940830230712,8.72949082069397C13.627940830230713,9.14200082069397,14.285440830230712,9.71207082069397,14.800740830230714,10.40102082069397C15.131540830230714,10.84327082069397,15.041240830230713,11.469940820693969,14.598940830230713,11.800740820693969C14.156740830230714,12.131540820693969,13.530040830230712,12.04124082069397,13.199240830230712,11.59894082069397C12.855640830230714,11.13964082069397,12.417340830230714,10.75963082069397,11.914040830230713,10.484630820693969C11.410640830230713,10.209620820693969,10.854030830230712,10.04608082069397,10.281910830230713,10.00511082069397C9.709800830230712,9.96414082069397,9.135560830230713,10.04668082069397,8.598160830230713,10.24715082069397C8.060750830230713,10.44762082069397,7.572740830230713,10.76132082069397,7.167230830230713,11.16694082069397C7.167230830230713,11.16694082069397,4.173590830230713,14.16064082069397,4.173590830230713,14.16064082069397C3.448550830230713,14.91444082069397,3.047500830230713,15.92224082069397,3.056590830230713,16.968340820693967C3.0657008302307127,18.01714082069397,3.486380830230713,19.02034082069397,4.228010830230713,19.76194082069397C4.969650830230712,20.50364082069397,5.972900830230713,20.92434082069397,7.0216808302307125,20.93344082069397C8.067740830230713,20.94254082069397,9.075620830230713,20.54144082069397,9.829390830230713,19.81644082069397C9.829390830230713,19.81644082069397,11.532940830230713,18.11294082069397,11.532940830230713,18.11294082069397C11.923440830230714,17.72234082069397,12.556540830230713,17.72234082069397,12.947140830230714,18.11294082069397C13.337640830230713,18.50344082069397,13.337640830230713,19.13654082069397,12.947140830230714,19.52714082069397C12.947140830230714,19.52714082069397,11.237140830230713,21.23714082069397,11.237140830230713,21.23714082069397C11.237140830230713,21.23714082069397,11.224740830230713,21.24924082069397,11.224740830230713,21.24924082069397C10.093100830230712,22.34224082069397,8.577480830230712,22.94704082069397,7.004300830230713,22.93334082069397C5.431120830230713,22.91964082069397,3.926250830230713,22.28864082069397,2.813800830230713,21.17624082069397C1.701351830230713,20.06374082069397,1.070338130230713,18.55884082069397,1.0566676452307129,16.98574082069397C1.0429971302307128,15.41254082069397,1.6477628302307128,13.89694082069397,2.7407108302307126,12.76524082069397C2.7407108302307126,12.76524082069397,2.752890830230713,12.75294082069397,2.752890830230713,12.75294082069397C2.752890830230713,12.75294082069397,5.752760830230713,9.753020820693969,5.752760830230713,9.753020820693969C5.752810830230713,9.75298082069397,5.752720830230713,9.75306082069397,5.752760830230713,9.753020820693969C6.361000830230713,9.14460082069397,7.093100830230713,8.67396082069397,7.899150830230713,8.37328082069397C7.899150830230713,8.37328082069397,7.899150830230713,8.37328082069397,7.899150830230713,8.37328082069397Z" fill-rule="evenodd" fill="#000000" fill-opacity="1"/></g></g></svg>