<svg xmlns="http://www.w3.org/2000/svg" xmlns:xlink="http://www.w3.org/1999/xlink" fill="none" version="1.1" width="24" height="24" viewBox="0 0 24 24"><defs><clipPath id="master_svg0_317_7290/214_7833/214_6957/214_6818"><rect x="0" y="0" width="24" height="24" rx="0"/></clipPath></defs><g style="mix-blend-mode:passthrough" clip-path="url(#master_svg0_317_7290/214_7833/214_6957/214_6818)"><g style="mix-blend-mode:passthrough"><path d="M12.9277,3.00464541125L14.1577,3.01975838125C14.7881,3.03001878125,15.4365,3.04452788125,16.0794,3.06415508125L16.8689,3.09131128125L17.5569,3.1206352812500002L18.1928,3.15383428125L19.0474,3.21180328125C19.1356,3.21883228125,19.2216,3.22606528125,19.3053,3.23351228125L19.7805,3.28082228125L20.2006,3.33366428125C20.4621,3.37082928125,20.6865,3.41195928125,20.8728,3.45760828125C21.5128,3.63867328125,22.0937,3.98544128125,22.5571,4.46302828125C23.0202,4.9404882812499995,23.3491,5.53172828125,23.5247,6.24234828125C23.8528,8.061738281250001,24.0121,9.90749828125,24.0006,11.74626828125C24.0071,13.56758828125,23.8478,15.38548828125,23.5106,17.24268828125C23.3491,17.88798828125,23.0202,18.47908828125,22.557,18.95678828125C22.0938,19.43428828125,21.5129,19.78098828125,20.8589,19.96588828125C20.6851,20.01238828125,20.4732,20.05478828125,20.2248,20.09348828125L19.8251,20.14878828125L19.3718,20.19888828125L18.866,20.24388828125L18.0118,20.30288828125L17.0462,20.35218828125L15.7367,20.40048828125C15.3319,20.41278828125,14.9266,20.42288828125,14.5267,20.43118828125L13.3495,20.45028828125L12.2416,20.45918828125L10.6511,20.45028828125L9.47434,20.43118828125C8.87463,20.41878828125,8.2625,20.40218828125,7.65856,20.38028828125L6.95495,20.35218828125L6.299,20.32028828125L5.69185,20.28428828125C5.59478,20.27788828125,5.4998,20.27138828125,5.40692,20.26458828125L4.87506,20.22178828125L4.39481,20.17408828125L3.9673,20.12128828125L3.59365,20.06288828125C3.42048,20.03228828125,3.26793,19.99948828125,3.13664,19.96438828125C2.5096,19.79278828125,1.9374,19.46238828125,1.47522,19.00508828125C1.01318,18.54768828125,0.676892,17.97898828125,0.476461,17.25738828125C0.148287,15.43808828125,-0.0110128,13.59218828125,0.000590969,11.75478828125C-0.00847837,9.919938281250001,0.150809,8.08811828125,0.490505,6.21703828125C0.652027,5.5717282812499995,0.980975,4.98046828125,1.44412,4.5030082812500005C1.90729,4.02550828125,2.48826,3.67870128125,3.14222,3.49380028125C3.40295,3.42407028125,3.74932,3.36353828125,4.17605,3.31090128125L4.62937,3.2608472812500002L5.1351,3.21576628125L5.98937,3.1568352812500002L6.95496,3.10746328125L8.26447,3.05923738125C8.66921,3.04691668125,9.07453,3.03676668125,9.47434,3.02854768125L10.6511,3.00944412125L11.7582,3.00048828125L12.9277,3.00464541125ZM12.3383,5.000848281250001L11.7664,5.00046828125C11.5925,5.00118828125,11.4142,5.0022582812500005,11.2323,5.00371828125L10.1029,5.01735828125L8.92333,5.04168828125C8.5259,5.05172828125,8.12631,5.06377828125,7.73079,5.07806828125L7.1142,5.10258828125L5.99655,5.16072828125L5.27042,5.21178828125L4.65087,5.26874828125L4.30171,5.30977828125C4.24797,5.31680828125,4.1965,5.323938281249999,4.14735,5.33115828125L3.88079,5.37557828125C3.80154,5.39073828125,3.73206,5.40624828125,3.6728,5.42208828125C3.37139,5.50735828125,3.09782,5.670658281250001,2.87971,5.89551828125C2.66161,6.120358281250001,2.50672,6.398778281249999,2.4447,6.637328281249999C2.14077,8.322688281249999,1.9921,10.03237828125,2.00056,11.75612828125C1.98972,13.48158828125,2.1384,15.20428828125,2.42233,16.80588828125C2.50619,17.100388281249998,2.66458,17.36818828125,2.88211,17.58358828125C3.09973,17.79888828125,3.36922,17.95448828125,3.65894,18.03378828125C3.6893,18.04188828125,3.72218,18.049988281250002,3.75752,18.05788828125L3.99865,18.10428828125L4.29617,18.14838828125L4.64738,18.189988281250002L5.04957,18.22898828125L5.50005,18.26528828125L5.99611,18.29888828125L7.11419,18.35708828125L8.32634,18.40138828125C8.72437,18.41348828125,9.12333,18.423488281250002,9.51698,18.43158828125L10.6757,18.45038828125L11.765,18.45918828125L12.7689,18.45598828125L13.8982,18.44228828125L15.0778,18.41798828125C15.4752,18.40798828125,15.8748,18.395888281250002,16.2703,18.38158828125L16.8869,18.35708828125L18.0046,18.29898828125L18.7307,18.24788828125L19.3503,18.19098828125L19.6994,18.14988828125C19.7532,18.142888281250002,19.8046,18.13578828125,19.8538,18.12858828125L20.1203,18.08408828125C20.1996,18.06898828125,20.2691,18.05348828125,20.3283,18.037588281250002C20.6298,17.95228828125,20.9033,17.789088281250002,21.1214,17.56428828125C21.3395,17.339388281250002,21.4944,17.06088828125,21.5564,16.82238828125C21.858,15.14998828125,22.0067,13.45328828125,22.0006,11.74357828125C22.0114,10.018198281250001,21.8627,8.29545828125,21.5705,6.66267828125C21.4944,6.35875828125,21.3395,6.08032828125,21.1215,5.85558828125C20.9033,5.63063828125,20.6298,5.4673482812500005,20.3634,5.39130828125C20.3012,5.376128281250001,20.2285,5.361288281249999,20.1459,5.34679828125L19.8682,5.30442828125C19.8171,5.29755828125,19.7636,5.290778281250001,19.7078,5.28408828125L19.3453,5.24517828125L18.9299,5.20871828125L18.4645,5.17484828125L17.9517,5.143678281250001L17.1003,5.10228828125L16.0145,5.063098281249999C15.8041,5.05667828125,15.593,5.05080828125,15.3819,5.04546828125L14.1241,5.01946828125C13.9171,5.016098281250001,13.712,5.01319828125,13.5098,5.01072828125L12.3383,5.000848281250001ZM8.75058,15.01988828125L8.75058,8.47984828125C8.75058,7.71293828125,9.57828,7.23146828125,10.2449,7.61058828125L12.5381,8.914748281249999L15.9949,10.880588281249999C16.6691,11.26399828125,16.6691,12.23569828125,15.9949,12.61911828125L10.2449,15.88908828125C9.57828,16.268188281249998,8.75058,15.78678828125,8.75058,15.01988828125ZM13.477,11.74984828125L10.75,10.198848281250001L10.75,13.29988828125L13.477,11.74984828125Z" fill-rule="evenodd" fill="#FFFFFF" fill-opacity="1"/></g></g></svg>