<svg xmlns="http://www.w3.org/2000/svg" xmlns:xlink="http://www.w3.org/1999/xlink" fill="none" version="1.1" width="113" height="49" viewBox="0 0 113 49"><defs><clipPath id="master_svg0_737_01324"><rect x="0" y="0" width="113" height="49" rx="0"/></clipPath></defs><g clip-path="url(#master_svg0_737_01324)"><g><path d="M17.355745312499998,18.1375234375C16.573545312500002,17.6984234375,15.7617453125,17.3137234375,14.9262153125,16.9856234375C17.479445312499998,11.9873234375,19.4245453125,6.7044834375,20.7207453125,1.2490234375L23.3317453125,1.8319224374999998C22.7313453125,3.9134834375,22.0611453125,5.9950534375,21.3070453125,8.1736734375L36.498445312499996,8.1736734375L36.498445312499996,10.6855134375L28.6934453125,10.6855134375Q28.6934453125,17.9154234375,28.3583453125,22.9111234375L38.8582453125,22.9111234375L38.8582453125,25.4783234375L28.1628453125,25.4783234375C28.0856453125,27.8723234375,27.8241453125,30.2569234375,27.3809453125,32.6112234375L28.6934453125,30.6684234375C32.0444453125,34.3180234375,38.6068453125,40.4934234375,41.3436453125,43.7129234375L39.9474453125,46.4883234375C36.6800453125,42.3251234375,29.8801453125,35.3866234375,27.3809453125,32.6112234375C25.0491453125,38.2454234375,22.4241453125,43.4771234375,14.0465553125,46.2525234375Q7.0652153124999995,46.4883234375,5.6689453125,46.4883234375C11.2540153125,45.1006234375,25.9847453125,39.5497234375,25.4819453125,25.4783234375L15.0797853125,25.4783234375L15.0797853125,22.9111234375L25.6634453125,22.9111234375C25.8309453125,19.7471234375,25.9567453125,15.6673234375,25.9987453125,10.6855134375L20.4136453125,10.6855134375Q19.003345312500002,14.4878234375,17.355745312499998,18.1375234375ZM41.8880453125,47.4459234375L39.2352453125,47.4459234375L39.2352453125,20.4826234375C39.2352453125,15.0566234375,38.5511453125,6.4946034375,50.5031453125,6.4946034375C62.2877453125,6.4946034375,61.7848453125,15.0566234375,61.7848453125,20.4826234375L61.7848453125,47.4042234375L58.9923453125,47.4042234375L58.9923453125,46.7520234375L41.8880453125,46.7520234375M41.8880453125,20.3856234375L41.8880453125,44.1985234375L59.0622453125,44.1985234375L59.0622453125,20.3161234375C59.0622453125,16.3889234375,59.4951453125,9.020163437499999,50.4891453125,9.034053437499999C41.4832453125,9.047943437499999,41.8880453125,16.3889234375,41.8880453125,20.3161234375L41.8880453125,20.3856234375Z" fill="#65DECF" fill-opacity="1"/></g><g><path d="M27.601894677734375,33.882331640625Q26.786694677734374,35.778531640625,26.109094677734376,37.053331640625Q24.921694677734376,39.287031640625,23.515394677734374,40.950131640625Q20.112694677734375,44.974031640625,14.267304677734375,46.910531640625C14.203664677734375,46.931631640625,14.137304677734376,46.943531640625,14.070264677734375,46.945731640625Q7.077284677734375,47.182031640625,5.668928677734375,47.182131640625C5.283359677734375,47.182131640625,4.970794677734375,46.871431640625,4.970794677734375,46.488231640625C4.970794677734375,46.169831640625,5.188819677734375,45.892331640625,5.499606677734375,45.815131640625Q8.168164677734374,45.152031640625,10.912574677734375,43.962731640625Q14.608714677734374,42.361031640625,17.431194677734375,40.190831640625Q24.804694677734375,34.521331640625,24.796594677734376,26.172231640625L15.079794677734375,26.172231640625C14.694204677734374,26.172231640625,14.381644677734375,25.861531640625,14.381644677734375,25.478331640625L14.381644677734375,22.911031640625C14.381644677734375,22.527831640625,14.694204677734374,22.217231640625,15.079794677734375,22.217231640625L24.999894677734375,22.217231640625Q25.232194677734373,17.505031640625,25.293994677734375,11.379231640625L20.899194677734375,11.379231640625Q19.551594677734375,14.968131640625,17.992694677734377,18.421331640625C17.916894677734376,18.589231640625,17.777094677734375,18.720331640625,17.603994677734377,18.785831640625C17.430994677734375,18.851231640625,17.238794677734376,18.845731640625,17.069894677734375,18.770431640625C17.050294677734374,18.761631640625,17.031194677734376,18.752031640625,17.012494677734374,18.741531640625Q15.879694677734374,18.105831640625,14.669714677734374,17.630931640625C14.497504677734375,17.563231640625,14.359364677734375,17.430431640625,14.285694677734375,17.261631640625C14.212024677734375,17.092831640625,14.208854677734376,16.901831640625,14.276874677734375,16.730631640625C14.284874677734376,16.710531640625,14.293824677734374,16.690731640625,14.303684677734376,16.671431640625Q18.109294677734376,9.221211640625,20.041294677734374,1.089479640625C20.129194677734375,0.719412640625,20.500394677734377,0.488615240625,20.873694677734377,0.571941740625L23.484694677734375,1.1547796406250002C23.665394677734376,1.195105640625,23.822494677734376,1.305106640625,23.921594677734376,1.460581640625C24.020594677734376,1.616061640625,24.053494677734374,1.804271640625,24.012894677734376,1.983821640625C24.012894677734376,1.983821640625,24.002794677734375,2.0229716406250002,24.002794677734375,2.0229716406250002Q23.262994677734376,4.588041640625,22.282394677734374,7.479741640625L36.49849467773437,7.479741640625C36.884094677734375,7.479741640625,37.19669467773438,7.790391640625,37.19669467773438,8.173601640625L37.19669467773438,10.685331640625C37.19669467773438,11.068531640625,36.884094677734375,11.379231640625,36.49849467773437,11.379231640625L29.390794677734377,11.379231640625Q29.376494677734375,17.661731640625,29.101994677734375,22.217231640625L38.53709467773437,22.217231640625L38.53709467773437,20.482531640625Q38.53709467773437,20.212431640625,38.53359467773438,19.647631640625Q38.51579467773438,16.750531640625,38.68859467773437,15.222831640625Q38.990894677734374,12.550931640625,39.98209467773437,10.707631640625Q42.62069467773438,5.800611640625,50.503094677734374,5.800621640625Q58.36779467773437,5.800621640625,61.018494677734374,10.807731640625Q62.00979467773438,12.680231640625,62.318394677734375,15.386031640625Q62.494794677734376,16.931931640625,62.48459467773438,19.843831640625Q62.48309467773438,20.273931640625,62.48309467773438,20.482531640625L62.48309467773438,47.404131640625C62.48309467773438,47.787331640625,62.170494677734375,48.097931640625,61.784994677734375,48.097931640625L58.992394677734374,48.097931640625C58.62309467773437,48.097931640625,58.31769467773437,47.812131640625,58.295494677734375,47.445731640625L41.88809467773437,47.445731640625L41.88809467773437,48.139631640625L39.23519467773438,48.139631640625C38.84969467773438,48.139631640625,38.53709467773437,47.828931640625,38.53709467773437,47.445731640625L38.53709467773437,45.858331640625Q35.96469467773437,42.783731640625,29.987394677734375,36.431831640625Q28.455294677734376,34.803731640625,27.601894677734375,33.882331640625ZM40.595194677734376,46.751931640625L41.88809467773437,46.751931640625L41.88809467773437,46.058031640625L58.992394677734374,46.058031640625C59.36169467773438,46.058031640625,59.667094677734376,46.343931640625,59.689294677734374,46.710231640625L61.086794677734375,46.710231640625L61.086794677734375,20.482531640625Q61.086794677734375,20.272131640625,61.088294677734375,19.839031640625Q61.09819467773438,17.008031640625,60.930994677734375,15.542331640625Q60.65199467773437,13.095631640625,59.78279467773437,11.453831640625Q57.524694677734374,7.188331640625,50.503094677734374,7.188331640625Q43.457694677734374,7.188331640625,41.213494677734374,11.361731640625Q40.348594677734376,12.970431640625,40.07619467773438,15.377931640625Q39.91249467773437,16.824131640625,39.929894677734374,19.639231640625Q39.93339467773438,20.208331640625,39.93339467773438,20.482531640625L39.93339467773438,41.143131640625Q40.66669467773438,41.913231640625,41.189994677734376,42.488431640625L41.189994677734376,20.316031640625Q41.189994677734376,20.159931640625,41.188694677734375,19.831331640625Q41.17979467773438,17.612831640625,41.314294677734374,16.375131640625Q41.552594677734376,14.182231640625,42.31189467773437,12.627331640625Q44.400994677734374,8.349501640625,50.488094677734374,8.340121640625Q56.56309467773438,8.330761640625,58.64529467773438,12.600131640625Q59.40199467773437,14.151731640625,59.63849467773438,16.343431640625Q59.77199467773438,17.580531640625,59.761894677734375,19.800831640625Q59.760394677734375,20.151331640625,59.760394677734375,20.316031640625L59.760394677734375,44.198531640625C59.760394677734375,44.581731640625,59.44779467773437,44.892331640625,59.062194677734375,44.892331640625L41.88809467773437,44.892331640625C41.77719467773437,44.892331640625,41.667894677734374,44.866131640625,41.569294677734376,44.815731640625L40.595194677734376,46.751931640625ZM40.51109467773438,43.816131640625Q40.25819467773437,43.530231640625,39.93339467773438,43.177331640625L39.93339467773438,44.964431640625L40.51109467773438,43.816131640625ZM38.53709467773437,41.696731640625L38.53709467773437,43.715331640625Q35.90049467773437,40.683931640625,31.007194677734375,35.483931640625Q29.112394677734375,33.470531640625,28.264794677734375,32.547531640624996L28.781794677734375,31.782331640625Q30.405194677734375,33.495531640625,33.89849467773438,36.986131640625Q36.76589467773438,39.851331640625,38.53709467773437,41.696731640625ZM38.53709467773437,39.695031640625Q37.00819467773437,38.125631640625,34.88849467773437,36.007531640625Q30.676094677734376,31.798431640625,29.209094677734374,30.200631640625C29.030094677734375,30.005731640625,28.755394677734376,29.928531640625,28.500194677734374,30.001631640625Q28.744894677734376,28.095331640625,28.834194677734374,26.172231640625L38.53709467773437,26.172231640625L38.53709467773437,39.695031640625ZM38.16009467773438,23.604931640625L28.358294677734374,23.604931640625C28.342794677734375,23.604931640625,28.327294677734375,23.604431640625,28.311894677734376,23.603431640625C28.127094677734377,23.591131640625,27.954794677734377,23.506431640625,27.832894677734377,23.367931640625C27.710994677734377,23.229531640625,27.649394677734374,23.048531640625,27.661694677734374,22.864931640625Q27.995294677734375,17.892231640625,27.995294677734375,10.685331640625C27.995294677734375,10.302141640625,28.307794677734375,9.991491640625,28.693394677734375,9.991491640625L35.800394677734374,9.991491640625L35.800394677734374,8.867451640625L21.307094677734376,8.867451640625C21.229894677734375,8.867451640625,21.153094677734376,8.854701640625,21.080094677734376,8.829731640625C20.715494677734377,8.705091640625,20.521594677734377,8.310291640625,20.646994677734376,7.947921640625Q21.674994677734375,4.977461640625,22.454094677734375,2.347001640625L21.238294677734373,2.075601640625Q19.363294677734373,9.644991640625,15.885694677734374,16.631431640625Q16.463294677734375,16.883531640625,17.024094677734375,17.171031640625Q18.488094677734374,13.870631640625,19.758494677734376,10.445371640625C19.859594677734375,10.172651640625,20.121094677734376,9.991491640625,20.413494677734377,9.991491640625L25.998594677734374,9.991491640625L26.004394677734375,9.991521640625C26.389994677734375,9.994721640625,26.699894677734374,10.307961640625,26.696694677734374,10.691131640625Q26.637594677734374,17.717431640625,26.360694677734376,22.947531640625C26.341194677734375,23.316031640625,26.034794677734375,23.604931640625,25.663494677734374,23.604931640625L15.777894677734375,23.604931640625L15.777894677734375,24.784431640625L25.481994677734374,24.784431640625C25.857894677734375,24.784431640625,26.166294677734374,25.080331640625,26.179694677734375,25.453731640625Q26.519194677734376,34.957631640625,18.285494677734377,41.288431640625Q15.325794677734375,43.564131640625,11.470634677734374,45.234831640625Q10.938674677734376,45.465331640625,10.409064677734374,45.676931640625Q11.936144677734376,45.629231640625,13.921044677734375,45.562331640625Q19.324794677734374,43.748931640625,22.446494677734375,40.057331640625Q24.582794677734373,37.530931640625,26.707794677734373,32.413331640625Q27.351894677734375,28.963531640625,27.464994677734374,25.456131640625C27.477094677734375,25.081731640625,27.785994677734376,24.784431640625,28.162794677734375,24.784431640625L38.16009467773438,24.784431640625L38.16009467773438,23.604931640625ZM42.58629467773437,43.504631640625L58.36409467773438,43.504631640625L58.36409467773438,20.316031640625Q58.36409467773438,20.147431640625,58.365694677734375,19.794631640625Q58.37539467773438,17.651531640625,58.25019467773438,16.491331640625Q58.03959467773438,14.539831640625,57.388794677734374,13.205431640625Q55.688894677734375,9.719821640625,50.49019467773437,9.727831640625Q45.275994677734374,9.735871640625,43.567994677734376,13.233331640625Q42.914694677734374,14.571131640625,42.70249467773437,16.524131640625Q42.57639467773438,17.684731640625,42.584894677734376,19.825831640625Q42.58629467773437,20.157031640625,42.58629467773437,20.316031640625L42.58629467773437,43.504631640625Z" fill-rule="evenodd" fill="#65DECF" fill-opacity="1"/></g><g><path d="M77.03222846679688,12.08684765625L79.18252846679687,10.69914765625C80.57872846679687,12.25344765625,81.97502846679687,13.96044765625,83.37132846679688,15.84764765625L81.30482846679688,17.23534765625L93.96892846679688,17.23534765625Q96.48232846679687,13.87704765625,98.57672846679688,10.58821765625L101.06192846679687,11.97594765625C100.11252846679687,13.26654765625,98.75822846679688,14.97344765625,97.02662846679688,17.12424765625L112.30192846679688,17.12424765625L112.30192846679688,19.56664765625L65.34542846679688,19.56664765625L65.34542846679688,17.17984765625L80.98352846679687,17.17984765625C79.58732846679688,15.26474765625,78.31682846679688,13.62724765625,77.03222846679688,12.08684765625ZM83.85992846679687,0.69384765625L87.42052846679687,0.69384765625C88.48152846679687,2.41459765625,90.71572846679688,4.32963765625,91.60932846679688,5.93942765625L89.50092846679688,6.93853765625L109.94212846679687,6.93853765625L109.94212846679687,9.32535765625L67.87275846679688,9.32535765625L67.87275846679688,6.93853765625L88.98432846679688,6.93853765625C88.35592846679688,5.68956765625,85.25622846679687,3.23329765625,83.85992846679687,0.69384765625ZM75.71972846679688,24.97874765625L101.73222846679687,24.97874765625C104.04552846679687,24.97874765625,105.92102846679688,26.84264765625,105.92102846679688,29.14184765625L105.92102846679688,48.20894765625L103.32382846679687,48.20894765625L103.32382846679687,45.25314765625L74.19771846679687,45.25314765625L74.19771846679687,48.30624765625L71.53096846679688,48.30624765625L71.53096846679688,29.14184765625C71.53096846679688,26.84264765625,73.40635846679687,24.97874765625,75.71972846679688,24.97874765625ZM74.19771846679687,29.29454765625L74.19771846679687,32.597247656250005C76.87862846679687,35.12294765625,82.81272846679687,36.62164765625,89.44502846679687,36.51064765625C95.36522846679688,36.41344765625,100.61522846679688,35.12294765625,103.26812846679687,32.597247656250005L103.26812846679687,29.32224765625C103.26812846679687,28.24934765625,102.39292846679687,27.37944765625,101.31332846679688,27.37944765625L76.18052846679687,27.37944765625C75.09015846679688,27.36384765625,74.19771846679687,28.23834765625,74.19771846679687,29.32224765625L74.19771846679687,29.29454765625ZM74.19771846679687,36.23304765625L74.19771846679687,42.85244765625L103.32382846679687,42.85244765625L103.32382846679687,36.30254765625C98.95672846679687,38.18904765625,94.26162846679688,39.21194765625,89.50092846679688,39.31374765625C84.24142846679688,39.41484765625,79.02172846679687,38.38764765625,74.19771846679687,36.30254765625L74.19771846679687,36.23304765625Z" fill="#65DECF" fill-opacity="1"/></g><g><path d="M89.24257783203126,7.58315C89.16037783203126,7.61569,89.07267783203125,7.6324,88.98427783203125,7.6324L68.57079783203125,7.6324L68.57079783203125,8.63155L109.24407783203125,8.63155L109.24407783203125,7.6324L89.50087783203125,7.6324C89.41237783203125,7.6324,89.32477783203124,7.61569,89.24257783203126,7.58315ZM92.23617783203125,6.24469L109.94217783203125,6.24469C110.32777783203124,6.24469,110.64037783203125,6.55534,110.64037783203125,6.93854L110.64037783203125,9.3254C110.64037783203125,9.70861,110.32777783203124,10.0193,109.94217783203125,10.0193L98.98297783203125,10.0193L101.40387783203124,11.371C101.56527783203126,11.4611,101.68407783203125,11.6113,101.73417783203125,11.7885C101.78417783203125,11.9657,101.76127783203125,12.1553,101.67057783203126,12.3158C101.65697783203126,12.3399,101.64187783203124,12.3631,101.62547783203125,12.3855Q100.65147783203125,13.7094,98.47627783203126,16.4305L112.30187783203125,16.4305C112.68747783203125,16.4305,113.00007783203125,16.7411,113.00007783203125,17.1243L113.00007783203125,19.5667C113.00007783203125,19.9499,112.68747783203125,20.2605,112.30187783203125,20.2605L65.34541183203125,20.2605C64.95984283203126,20.2605,64.64727783203125,19.9499,64.64727783203125,19.5667L64.64727783203125,17.1798C64.64727783203125,16.7966,64.95984283203126,16.486,65.34541183203125,16.486L79.60607783203125,16.486Q77.99817783203125,14.3326,76.49467783203124,12.5297C76.37647783203126,12.388,76.31977783203125,12.2055,76.33707783203126,12.0223C76.35437783203125,11.8391,76.44407783203125,11.6702,76.58667783203126,11.5527C76.60747783203125,11.5356,76.62927783203125,11.5196,76.65197783203125,11.505L78.80217783203125,10.1173C78.87577783203125,10.0699,78.95757783203125,10.0366,79.04347783203124,10.0193L67.87265783203125,10.0193C67.48708783203125,10.0193,67.17452783203125,9.70861,67.17452783203125,9.3254L67.17452783203125,6.93854C67.17452783203125,6.55534,67.48708783203125,6.24469,67.87265783203125,6.24469L87.57387783203126,6.24469Q87.19917783203125,5.82363,86.65427783203126,5.25195Q84.09287783203125,2.56443,83.24727783203124,1.02657C83.06237783203125,0.6903,83.18677783203125,0.268733,83.52517783203125,0.0849772C83.62777783203126,0.0292206,83.74297783203124,0,83.85997783203125,0L87.42037783203125,0C87.66327783203124,4.13569e-8,87.88867783203125,0.12546,88.01567783203126,0.331273Q88.49617783203125,1.11043,90.01937783203125,2.80806Q91.72107783203126,4.7045,92.22047783203125,5.60421C92.30997783203125,5.76533,92.33127783203125,5.95517,92.27987783203125,6.13197C92.26867783203124,6.17073,92.25397783203125,6.20845,92.23617783203125,6.24469ZM79.32137783203125,10.0193C79.46897783203124,10.049,79.60287783203125,10.1255,79.70317783203124,10.2371Q81.87787783203125,12.6578,83.93367783203125,15.4366C84.16207783203126,15.7453,84.09547783203125,16.1796,83.78477783203125,16.4066C83.78477783203125,16.4066,83.76207783203125,16.4226,83.76207783203125,16.4226L83.58497783203126,16.5415L93.61747783203126,16.5415Q95.99357783203125,13.3469,97.98667783203125,10.2171C98.03627783203126,10.1393,98.10097783203125,10.072,98.17697783203124,10.0193L79.32137783203125,10.0193ZM81.28457783203125,16.4115L82.37557783203125,15.6789Q80.75317783203124,13.5296,79.05807783203124,11.6068L78.06697783203126,12.2464Q79.62337783203125,14.1501,81.28457783203125,16.4115ZM81.02787783203125,17.8723C81.11527783203125,17.9098,81.20947783203125,17.9292,81.30477783203125,17.9292L93.96887783203125,17.9292C94.18967783203125,17.9292,94.39737783203125,17.8255,94.52907783203125,17.6494Q96.84617783203126,14.5533,98.81027783203125,11.5145L100.02817783203125,12.1946Q98.83277783203124,13.7699,96.48157783203125,16.6909C96.36587783203125,16.8346,96.31237783203125,17.0181,96.33287783203124,17.201C96.35327783203125,17.3838,96.44607783203125,17.5512,96.59057783203124,17.6661C96.71437783203126,17.7646,96.86817783203125,17.8182,97.02677783203126,17.8182L111.60377783203126,17.8182L111.60377783203126,18.8728L66.04354783203125,18.8728L66.04354783203125,17.8737L80.98357783203124,17.8737C80.99837783203125,17.8737,81.01317783203125,17.8732,81.02787783203125,17.8723ZM90.58687783203125,5.65519L89.36077783203125,6.23625Q88.87687783203125,5.56603,87.66797783203126,4.29762Q86.02687783203125,2.57576,85.14697783203125,1.38771L87.04437783203124,1.38771Q87.64727783203125,2.24939,88.97727783203125,3.73168Q90.04367783203125,4.92011,90.58687783203125,5.65519ZM72.26409783203125,25.7075Q70.83274783203125,27.1301,70.83274783203125,29.1419L70.83274783203125,48.3061C70.83274783203125,48.6894,71.14530783203125,49,71.53087783203125,49L74.19775783203124,49C74.58331783203126,49,74.89587783203125,48.6894,74.89587783203125,48.3061L74.89587783203125,45.947L102.62577783203125,45.947L102.62577783203125,48.209C102.62577783203125,48.5922,102.93837783203125,48.9029,103.32387783203126,48.9029L105.92097783203124,48.9029C106.30657783203125,48.9029,106.61907783203125,48.5922,106.61907783203125,48.209L106.61907783203125,29.1419Q106.61907783203125,27.1301,105.18777783203126,25.7075Q103.75637783203125,24.2849,101.73217783203125,24.2849L75.71967783203125,24.2849Q73.69544783203125,24.2849,72.26409783203125,25.7075ZM72.22901783203125,47.6123L72.22901783203125,29.1419Q72.22901783203125,27.7049,73.25140783203125,26.6887Q74.27380783203125,25.6726,75.71967783203125,25.6726L101.73217783203125,25.6726Q103.17807783203125,25.6726,104.20047783203125,26.6887Q105.22287783203126,27.7049,105.22287783203126,29.1419L105.22287783203126,47.5152L104.02207783203124,47.5152L104.02207783203124,45.2532C104.02207783203124,44.87,103.70947783203124,44.5593,103.32387783203126,44.5593L74.19775783203124,44.5593C73.81218783203126,44.5593,73.49961783203125,44.87,73.49961783203125,45.2532L73.49961783203125,47.6123L72.22901783203125,47.6123ZM73.49961783203125,29.3223L73.49961783203125,32.5973C73.49961783203125,32.7877,73.57838783203125,32.9698,73.71746783203125,33.1008Q75.85297783203126,35.1127,80.16577783203125,36.2147Q84.37217783203126,37.2895,89.45677783203125,37.2044Q94.12307783203124,37.1278,97.76657783203126,36.1337Q101.68587783203125,35.0644,103.75097783203125,33.0983C103.88847783203124,32.9675,103.96617783203125,32.7865,103.96617783203125,32.5973L103.96617783203125,29.3223Q103.96617783203125,28.2301,103.18917783203125,27.4579Q102.41217783203125,26.6856,101.31327783203125,26.6856L76.18047783203124,26.6856Q75.08057783203125,26.6698,74.29007783203124,27.4444Q73.51862783203126,28.2004,73.50007783203125,29.2694C73.50007783203125,29.2694,73.49961783203125,29.2945,73.49961783203125,29.2945L73.49961783203125,29.3223ZM74.89587783203125,29.3223Q74.89587783203125,28.7996,75.27037783203124,28.4326Q75.64477783203125,28.0658,76.18047783203124,28.0733L101.31327783203125,28.0733Q101.83377783203125,28.0733,102.20187783203124,28.4392Q102.56987783203125,28.805,102.56987783203125,29.3223L102.56987783203125,32.293Q100.76837783203125,33.8757,97.39697783203124,34.7955Q93.92367783203125,35.7432,89.43327783203125,35.8169Q84.53717783203125,35.8988,80.51337783203125,34.8707Q76.77447783203125,33.9153,74.89587783203125,32.2903L74.89587783203125,29.3223ZM73.49961783203125,36.3025L73.49961783203125,36.2331C73.49961783203125,35.8499,73.81218783203126,35.5392,74.19775783203124,35.5392C74.39583783203125,35.5392,74.58460783203125,35.6229,74.71697783203125,35.7693Q81.78867783203125,38.7679,89.48587783203125,38.6201Q96.55817783203125,38.4689,103.04557783203126,35.6661C103.13337783203124,35.6282,103.22817783203125,35.6086,103.32387783203126,35.6086C103.70947783203124,35.6086,104.02207783203124,35.9193,104.02207783203124,36.3025L104.02207783203124,42.8524C104.02207783203124,43.2357,103.70947783203124,43.5463,103.32387783203126,43.5463L74.19775783203124,43.5463C73.81218783203126,43.5463,73.49961783203125,43.2357,73.49961783203125,42.8524L73.49961783203125,36.3025ZM74.89587783203125,37.3452Q81.91097783203125,40.1536,89.51587783203125,40.0075Q96.33237783203126,39.8617,102.62577783203125,37.3449L102.62577783203125,42.1586L74.89587783203125,42.1586L74.89587783203125,37.3452Z" fill-rule="evenodd" fill="#65DECF" fill-opacity="1"/></g><g><path d="M38.397552490234375,27.102006171875L38.397552490234375,47.626226171875004L42.58636249023438,47.626226171875004L42.58636249023438,27.102006171875Q42.58636249023438,26.852476171875,42.86296249023437,26.518956171875Q43.31689249023437,25.971626171875002,44.261492490234374,25.489966171875Q46.62470249023438,24.284956171875,50.09825249023437,24.284956171875L50.44735249023437,24.284956171875Q53.911052490234376,24.284956171875,56.27115249023437,25.489586171875Q57.214952490234374,25.971296171875,57.66865249023438,26.518606171875Q57.94535249023437,26.852356171875,57.94535249023437,27.102006171875L57.94535249023437,47.917626171875L62.13415249023437,47.917626171875L62.13415249023437,27.102006171875Q62.13415249023437,25.358256171875,60.90155249023438,23.871366171875Q59.89785249023437,22.660676171875,58.184752490234374,21.786286171875Q54.923852490234374,20.121826337303,50.44735249023437,20.121826171875L50.09825249023437,20.121826171875Q45.61286249023438,20.121826337303,42.349382490234376,21.785896171875Q40.63494249023437,22.660106171875,39.630672490234375,23.871016171875Q38.397552490234375,25.357846171875,38.397552490234375,27.102006171875Z" fill-rule="evenodd" fill="#65DECF" fill-opacity="1"/></g></g></svg>