<svg xmlns="http://www.w3.org/2000/svg" xmlns:xlink="http://www.w3.org/1999/xlink" fill="none" version="1.1" width="22" height="22" viewBox="0 0 22 22"><defs><clipPath id="master_svg0_807_02020/347_00552"><rect x="0" y="0" width="22" height="22" rx="0"/></clipPath></defs><g style="mix-blend-mode:passthrough" clip-path="url(#master_svg0_807_02020/347_00552)"><g style="mix-blend-mode:passthrough"><path d="M19.842451953125,2.05073509375C20.048051953125,2.22490409375,20.166551953125,2.48071309375,20.166551953125,2.75017209375C20.166551953125,2.75017209375,20.166551953125,14.66679609375,20.166551953125,14.66679609375C20.166551953125,16.69179609375,18.524951953125,18.33349609375,16.499951953125,18.33349609375C14.474951953125,18.33349609375,12.833251953125,16.69179609375,12.833251953125,14.66679609375C12.833251953125,12.64179609375,14.474951953125,11.00016609375,16.499951953125,11.00016609375C17.167751953125,11.00016609375,17.793951953125,11.17872609375,18.333251953125,11.49067609375C18.333251953125,11.49067609375,18.333251953125,3.83225609375,18.333251953125,3.83225609375C18.333251953125,3.83225609375,9.166581953125,5.36003609375,9.166581953125,5.36003609375C9.166581953125,5.36003609375,9.166581953125,16.50019609375,9.166581953125,16.50019609375C9.166581953125,18.52519609375,7.524961953125,20.16679609375,5.499921953125,20.16679609375C3.474871953125,20.16679609375,1.833251953125,18.52519609375,1.833251953125,16.50019609375C1.833251953125,14.47519609375,3.474871953125,12.83349609375,5.499921953125,12.83349609375C6.167771953125,12.83349609375,6.793931953125,13.01209609375,7.333251953125,13.32399609375C7.333251953125,13.32399609375,7.333251953125,4.58350609375,7.333251953125,4.58350609375C7.333251953125,4.1354060937499995,7.657211953125,3.75297609375,8.099221953125,3.67930609375C8.099221953125,3.67930609375,19.099251953125,1.84597519375,19.099251953125,1.84597519375C19.365051953125,1.80167689375,19.636851953125,1.87656489375,19.842451953125,2.05073509375C19.842451953125,2.05073509375,19.842451953125,2.05073509375,19.842451953125,2.05073509375ZM7.333251953125,16.50019609375C7.333251953125,15.48759609375,6.512441953125,14.66679609375,5.499921953125,14.66679609375C4.487391953125,14.66679609375,3.666581953125,15.48759609375,3.666581953125,16.50019609375C3.666581953125,17.51269609375,4.487391953125,18.33349609375,5.499921953125,18.33349609375C6.512441953125,18.33349609375,7.333251953125,17.51269609375,7.333251953125,16.50019609375C7.333251953125,16.50019609375,7.333251953125,16.50019609375,7.333251953125,16.50019609375ZM18.333251953125,14.66679609375C18.333251953125,13.65429609375,17.512451953125,12.83349609375,16.499951953125,12.83349609375C15.487351953125,12.83349609375,14.666551953125,13.65429609375,14.666551953125,14.66679609375C14.666551953125,15.67939609375,15.487351953125,16.50019609375,16.499951953125,16.50019609375C17.512451953125,16.50019609375,18.333251953125,15.67939609375,18.333251953125,14.66679609375C18.333251953125,14.66679609375,18.333251953125,14.66679609375,18.333251953125,14.66679609375Z" fill-rule="evenodd" fill="#000000" fill-opacity="1"/></g></g></svg>