<svg xmlns="http://www.w3.org/2000/svg" xmlns:xlink="http://www.w3.org/1999/xlink" fill="none" version="1.1" width="13" height="14" viewBox="0 0 13 14"><defs><clipPath id="master_svg0_813_03255"><rect x="0" y="1" width="13" height="13" rx="0"/></clipPath></defs><g style="mix-blend-mode:passthrough"><g style="mix-blend-mode:passthrough"><ellipse cx="6.5" cy="6.5" rx="6.5" ry="6.5" fill="#65DECF" fill-opacity="1"/><ellipse cx="6.5" cy="6.5" rx="6" ry="6" fill-opacity="0" stroke-opacity="1" stroke="#65DECF" fill="none" stroke-width="1"/></g><g style="mix-blend-mode:passthrough" clip-path="url(#master_svg0_813_03255)"><g style="mix-blend-mode:passthrough"><path d="M11.21635,3.8670240234375C11.42787,4.0785580234375,11.42787,4.4215210234375,11.21635,4.6330590234375C11.21635,4.6330590234375,5.25802,10.591384023437499,5.25802,10.591384023437499C5.04648,10.802904023437499,4.70352,10.802904023437499,4.49198,10.591384023437499C4.49198,10.591384023437499,1.78365,7.8830540234375,1.78365,7.8830540234375C1.5721165,7.671524023437501,1.5721165,7.3285640234375,1.78365,7.1170240234375C1.995184,6.9054940234375,2.338148,6.9054940234375,2.549685,7.1170240234375C2.549685,7.1170240234375,4.875,9.4423440234375,4.875,9.4423440234375C4.875,9.4423440234375,10.45032,3.8670240234375,10.45032,3.8670240234375C10.66184,3.6554905234375,11.00483,3.6554905234375,11.21635,3.8670240234375C11.21635,3.8670240234375,11.21635,3.8670240234375,11.21635,3.8670240234375Z" fill-rule="evenodd" fill="#FFFFFF" fill-opacity="1"/></g></g></g></svg>