<svg xmlns="http://www.w3.org/2000/svg" xmlns:xlink="http://www.w3.org/1999/xlink" fill="none" version="1.1" width="30" height="30" viewBox="0 0 30 30"><defs><clipPath id="master_svg0_129_5442/120_05713"><rect x="0" y="0" width="30" height="30" rx="0"/></clipPath></defs><g style="mix-blend-mode:passthrough" clip-path="url(#master_svg0_129_5442/120_05713)"><g style="mix-blend-mode:passthrough"><path d="M15,1.25C15.4757,1.25,15.9104,1.52009,16.1209,1.94672C16.1209,1.94672,19.6929,9.18309,19.6929,9.18309C19.6929,9.18309,27.6809,10.35064,27.6809,10.35064C28.1515,10.41944,28.5424,10.74945,28.6891,11.20196C28.8359,11.6545,28.713,12.151,28.3722,12.4829C28.3722,12.4829,22.5933,18.1117,22.5933,18.1117C22.5933,18.1117,23.957,26.0637,23.957,26.0637C24.0375,26.5326,23.8446,27.0066,23.4597,27.2864C23.0748,27.566,22.5644,27.6029,22.1432,27.3814C22.1432,27.3814,15,23.6247,15,23.6247C15,23.6247,7.85685,27.3814,7.85685,27.3814C7.4357,27.6029,6.92534,27.566,6.54037,27.2864C6.1554,27.0066,5.96259,26.5326,6.04303,26.0637C6.04303,26.0637,7.40689,18.1117,7.40689,18.1117C7.40689,18.1117,1.62787,12.4829,1.62787,12.4829C1.2870977,12.151,1.1642568,11.6545,1.3109789,11.20196C1.457701,10.74945,1.848551,10.41944,2.3192500000000003,10.35064C2.3192500000000003,10.35064,10.30721,9.18309,10.30721,9.18309C10.30721,9.18309,13.8791,1.94672,13.8791,1.94672C14.0898,1.52009,14.5243,1.25,15,1.25C15,1.25,15,1.25,15,1.25ZM15,5.32406C15,5.32406,12.2584,10.87827,12.2584,10.87827C12.0765,11.24684,11.725,11.5024,11.3183,11.5619C11.3183,11.5619,5.18555,12.4583,5.18555,12.4583C5.18555,12.4583,9.6222,16.7795,9.6222,16.7795C9.91705,17.0668,10.05162,17.4806,9.98205,17.8862C9.98205,17.8862,8.93526,23.9896,8.93526,23.9896C8.93526,23.9896,14.4183,21.1061,14.4183,21.1061C14.7825,20.9146,15.2176,20.9146,15.5819,21.1061C15.5819,21.1061,21.0648,23.9896,21.0648,23.9896C21.0648,23.9896,20.018,17.8862,20.018,17.8862C19.9485,17.4806,20.083,17.0668,20.3779,16.7795C20.3779,16.7795,24.8145,12.4583,24.8145,12.4583C24.8145,12.4583,18.6818,11.5619,18.6818,11.5619C18.275,11.5024,17.9236,11.24684,17.7416,10.87827C17.7416,10.87827,15,5.32406,15,5.32406C15,5.32406,15,5.32406,15,5.32406Z" fill-rule="evenodd" fill="#000000" fill-opacity="1"/></g></g></svg>