<svg xmlns="http://www.w3.org/2000/svg" xmlns:xlink="http://www.w3.org/1999/xlink" fill="none" version="1.1" width="20" height="20" viewBox="0 0 20 20"><defs><clipPath id="master_svg0_160_8765/37_8763/37_8329"><rect x="0" y="0" width="20" height="20" rx="0"/></clipPath></defs><g style="mix-blend-mode:passthrough" clip-path="url(#master_svg0_160_8765/37_8763/37_8329)"><g style="mix-blend-mode:passthrough"><path d="M9.41075701171875,1.9105809062499999C9.73620701171875,1.58514470625,10.26385701171875,1.58514470625,10.58926701171875,1.9105809062499999C10.58926701171875,1.9105809062499999,14.75588701171875,6.07724390625,14.75588701171875,6.07724390625C15.08138701171875,6.40268390625,15.08138701171875,6.93032390625,14.75588701171875,7.25576390625C14.43048701171875,7.58119390625,13.90288701171875,7.58119390625,13.57738701171875,7.25576390625C13.57738701171875,7.25576390625,10.83335701171875,4.51168390625,10.83335701171875,4.51168390625C10.83335701171875,4.51168390625,10.83335701171875,12.49980390625,10.83335701171875,12.49980390625C10.83335701171875,12.96010390625,10.46026701171875,13.33320390625,10.00001701171875,13.33320390625C9.539777011718751,13.33320390625,9.16668701171875,12.96010390625,9.16668701171875,12.49980390625C9.16668701171875,12.49980390625,9.16668701171875,4.51168390625,9.16668701171875,4.51168390625C9.16668701171875,4.51168390625,6.42260701171875,7.25576390625,6.42260701171875,7.25576390625C6.09716701171875,7.58119390625,5.56953701171875,7.58119390625,5.24409701171875,7.25576390625C4.91865701171875,6.93032390625,4.91865701171875,6.40268390625,5.24409701171875,6.07724390625C5.24409701171875,6.07724390625,9.41075701171875,1.9105809062499999,9.41075701171875,1.9105809062499999C9.41075701171875,1.9105809062499999,9.41075701171875,1.9105809062499999,9.41075701171875,1.9105809062499999ZM2.50002001171875,11.66650390625C2.96025701171875,11.66650390625,3.33335701171875,12.03960390625,3.33335701171875,12.49980390625C3.33335701171875,12.49980390625,3.33335701171875,15.83320390625,3.33335701171875,15.83320390625C3.33335701171875,16.054203906250002,3.42115701171875,16.26620390625,3.57742701171875,16.42240390625C3.73370701171875,16.57870390625,3.94566701171875,16.66650390625,4.16668701171875,16.66650390625C4.16668701171875,16.66650390625,15.83338701171875,16.66650390625,15.83338701171875,16.66650390625C16.054387011718752,16.66650390625,16.26638701171875,16.57870390625,16.42258701171875,16.42240390625C16.57888701171875,16.26620390625,16.66668701171875,16.054203906250002,16.66668701171875,15.83320390625C16.66668701171875,15.83320390625,16.66668701171875,12.49980390625,16.66668701171875,12.49980390625C16.66668701171875,12.03960390625,17.03978701171875,11.66650390625,17.49998701171875,11.66650390625C17.96028701171875,11.66650390625,18.33338701171875,12.03960390625,18.33338701171875,12.49980390625C18.33338701171875,12.49980390625,18.33338701171875,15.83320390625,18.33338701171875,15.83320390625C18.33338701171875,16.49630390625,18.06988701171875,17.132103906250002,17.60108701171875,17.60090390625C17.132287011718752,18.06970390625,16.49648701171875,18.33320390625,15.83338701171875,18.33320390625C15.83338701171875,18.33320390625,4.16668701171875,18.33320390625,4.16668701171875,18.33320390625C3.50364701171875,18.33320390625,2.86775701171875,18.06970390625,2.39892001171875,17.60090390625C1.93007901171875,17.132103906250002,1.66668701171875,16.49630390625,1.66668701171875,15.83320390625C1.66668701171875,15.83320390625,1.66668701171875,12.49980390625,1.66668701171875,12.49980390625C1.66668701171875,12.03960390625,2.03978301171875,11.66650390625,2.50002001171875,11.66650390625C2.50002001171875,11.66650390625,2.50002001171875,11.66650390625,2.50002001171875,11.66650390625Z" fill-rule="evenodd" fill="#000000" fill-opacity="1"/></g></g></svg>