<svg xmlns="http://www.w3.org/2000/svg" xmlns:xlink="http://www.w3.org/1999/xlink" fill="none" version="1.1" width="24" height="24" viewBox="0 0 24 24"><defs><clipPath id="master_svg0_321_00181/214_7812/214_6929/214_6818"><rect x="0" y="0" width="24" height="24" rx="0"/></clipPath></defs><g style="mix-blend-mode:passthrough" clip-path="url(#master_svg0_321_00181/214_7812/214_6929/214_6818)"><g style="mix-blend-mode:passthrough"><path d="M15,4C14.4477,4,14,3.55228,14,3C14,2.447715,14.4477,2,15,2C15,2,21,2,21,2C21.5523,2,22,2.447715,22,3C22,3,22,9,22,9C22,9.55228,21.5523,10,21,10C20.4477,10,20,9.55228,20,9C20,9,20,5.414210000000001,20,5.414210000000001C20,5.414210000000001,10.70711,14.7071,10.70711,14.7071C10.31658,15.0976,9.68342,15.0976,9.29289,14.7071C8.902370000000001,14.3166,8.902370000000001,13.6834,9.29289,13.2929C9.29289,13.2929,18.5858,4,18.5858,4C18.5858,4,15,4,15,4C15,4,15,4,15,4ZM5,7C4.734780000000001,7,4.48043,7.10536,4.29289,7.29289C4.10536,7.48043,4,7.73478,4,8C4,8,4,19,4,19C4,19.2652,4.10536,19.5196,4.29289,19.7071C4.48043,19.8946,4.734780000000001,20,5,20C5,20,16,20,16,20C16.2652,20,16.5196,19.8946,16.7071,19.7071C16.8946,19.5196,17,19.2652,17,19C17,19,17,13,17,13C17,12.4477,17.447699999999998,12,18,12C18.5523,12,19,12.4477,19,13C19,13,19,19,19,19C19,19.7957,18.6839,20.5587,18.1213,21.1213C17.5587,21.6839,16.7957,22,16,22C16,22,5,22,5,22C4.20435,22,3.44129,21.6839,2.87868,21.1213C2.31607,20.5587,2,19.7957,2,19C2,19,2,8,2,8C2,7.20435,2.31607,6.44129,2.87868,5.87868C3.44129,5.31607,4.20435,5,5,5C5,5,11,5,11,5C11.55229,5,12,5.44772,12,6C12,6.55228,11.55229,7,11,7C11,7,5,7,5,7C5,7,5,7,5,7Z" fill-rule="evenodd" fill="#FFFFFF" fill-opacity="1"/></g></g></svg>