<svg xmlns="http://www.w3.org/2000/svg" xmlns:xlink="http://www.w3.org/1999/xlink" fill="none" version="1.1" width="24" height="24" viewBox="0 0 24 24"><defs><clipPath id="master_svg0_503_01152"><rect x="0" y="0" width="24" height="24" rx="0"/></clipPath></defs><g style="mix-blend-mode:passthrough" clip-path="url(#master_svg0_503_01152)"><g style="mix-blend-mode:passthrough"><path d="M3,5C3,3.895431,3.895431,3,5,3L19,3C20.1046,3,21,3.895431,21,5L21,19C21,20.1046,20.1046,21,19,21L5,21C3.895431,21,3,20.1046,3,19L3,5Z" fill="#65DECF" fill-opacity="1"/></g><g style="mix-blend-mode:passthrough"><path d="M2.87868,2.87868Q2,3.7573600000000003,2,5L2,19Q2,20.2426,2.87868,21.1213Q3.7573600000000003,22,5,22L19,22Q20.2426,22,21.1213,21.1213Q22,20.2426,22,19L22,5Q22,3.7573600000000003,21.1213,2.87868Q20.2426,2,19,2L5,2Q3.7573600000000003,2.0000000596046,2.87868,2.87868ZM4,19L4,5Q4,4.585789999999999,4.29289,4.29289Q4.585789999999999,4,5,4L19,4Q19.4142,4,19.7071,4.29289Q20,4.585789999999999,20,5L20,19Q20,19.4142,19.7071,19.7071Q19.4142,20,19,20L5,20Q4.585789999999999,20,4.29289,19.7071Q4,19.4142,4,19Z" fill-rule="evenodd" fill="#65DECF" fill-opacity="1"/></g><g style="mix-blend-mode:passthrough"><path d="M16.000078046875,8.18046L16.000078046875,14.94444C16.000078046875,15.49673,16.447798046875,15.94444,17.000078046875,15.94444C17.552368046875,15.94444,18.000078046875,15.49673,18.000078046875,14.94444L18.000078046875,7C18.000078046875,6.447715,17.552368046875,6,17.000078046875,6C16.944998046875,6.0000000596046,16.890008046875,6.00455087,16.835678046875,6.0136061L9.502349046875,7.23583C9.020161046875,7.31619,8.666748046875,7.73338,8.666748046875,8.22222L8.666748046875,16.1667C8.666748046875,16.719,9.114463046875,17.1667,9.666748046875,17.1667C10.219028046875,17.1667,10.666748046875,16.719,10.666748046875,16.1667L10.666748046875,9.06935L16.000078046875,8.18046Z" fill-rule="evenodd" fill="#FFFFFF" fill-opacity="1"/></g><g style="mix-blend-mode:passthrough"><path d="M9.8368,18.170051953125Q10.66667,17.340191953125,10.66667,16.166581953125Q10.66667,14.992981953125,9.8368,14.163115953125Q9.00694,13.333251953125,7.83333,13.333251953125Q6.65973,13.333251953125,5.829864,14.163115953125Q5,14.992981953125,5,16.166581953125Q5,17.340191953125,5.829864,18.170051953125Q6.65973,18.999921953125,7.83333,18.999921953125Q9.00694,18.999921953125,9.8368,18.170051953125ZM8.42259,15.577331953125Q8.66667,15.821411953125,8.66667,16.166581953125Q8.66667,16.511761953125,8.42259,16.755841953125Q8.17851,16.999921953125,7.83333,16.999921953125Q7.488160000000001,16.999921953125,7.24408,16.755841953125Q7,16.511761953125,7,16.166581953125Q7,15.821411953125,7.24408,15.577331953125Q7.488160000000001,15.333251953125,7.83333,15.333251953125Q8.17851,15.333251953125,8.42259,15.577331953125Z" fill-rule="evenodd" fill="#FFFFFF" fill-opacity="1"/></g><g style="mix-blend-mode:passthrough"><path d="M17.170051953125,16.947883984375Q17.999921953125,16.118023984375,17.999921953125,14.944413984375Q17.999921953125,13.770813984375,17.170051953125,12.940947984375Q16.340191953125,12.111083984375,15.166581953125,12.111083984375Q13.992981953125,12.111083984375,13.163115953125,12.940947984375Q12.333251953125,13.770813984375,12.333251953125,14.944413984375Q12.333251953125,16.118023984375,13.163115953125,16.947883984375Q13.992981953125,17.777753984375,15.166581953125,17.777753984375Q16.340191953125,17.777753984375,17.170051953125,16.947883984375ZM15.755841953125,14.355163984375Q15.999921953125,14.599243984375,15.999921953125,14.944413984375Q15.999921953125,15.289593984375,15.755841953125,15.533673984375Q15.511761953125,15.777753984375,15.166581953125,15.777753984375Q14.821411953125,15.777753984375,14.577331953125,15.533673984375Q14.333251953125,15.289593984375,14.333251953125,14.944413984375Q14.333251953125,14.599243984375,14.577331953125,14.355163984375Q14.821411953125,14.111083984375,15.166581953125,14.111083984375Q15.511761953125,14.111083984375,15.755841953125,14.355163984375Z" fill-rule="evenodd" fill="#FFFFFF" fill-opacity="1"/></g></g></svg>