<svg xmlns="http://www.w3.org/2000/svg" xmlns:xlink="http://www.w3.org/1999/xlink" fill="none" version="1.1" width="24" height="24" viewBox="0 0 24 24"><defs><clipPath id="master_svg0_798_02038"><rect x="0" y="0" width="24" height="24" rx="0"/></clipPath></defs><g style="mix-blend-mode:passthrough" clip-path="url(#master_svg0_798_02038)"><g style="mix-blend-mode:passthrough"><path d="M2.87868,2.87868Q2,3.7573600000000003,2,5L2,19Q2,20.2426,2.87868,21.1213Q3.7573600000000003,22,5,22L19,22Q20.2426,22,21.1213,21.1213Q22,20.2426,22,19L22,5Q22,3.7573600000000003,21.1213,2.87868Q20.2426,2,19,2L5,2Q3.7573600000000003,2.0000000596046,2.87868,2.87868ZM4,19L4,5Q4,4.585789999999999,4.29289,4.29289Q4.585789999999999,4,5,4L19,4Q19.4142,4,19.7071,4.29289Q20,4.585789999999999,20,5L20,19Q20,19.4142,19.7071,19.7071Q19.4142,20,19,20L5,20Q4.585789999999999,20,4.29289,19.7071Q4,19.4142,4,19Z" fill-rule="evenodd" fill="#65DECF" fill-opacity="1"/></g><g style="mix-blend-mode:passthrough"><path d="M5,3C3.895431,3,3,3.895431,3,5L3,19C3,20.1046,3.895431,21,5,21L19,21C20.1046,21,21,20.1046,21,19L21,5C21,3.895431,20.1046,3,19,3L5,3ZM16.0001,8.18042L16,12.22824Q15.6075,12.11108,15.1666,12.11108Q13.993,12.11108,13.1631,12.94092Q12.33325,13.7708,12.33325,14.9443Q12.33325,16.1179,13.1631,16.948Q13.993,17.7778,15.1666,17.7778Q16.3402,17.7778,17.17,16.948Q17.9999,16.1179,17.9999,14.9443L18.0001,7C18.0001,6.44775,17.5524,6,17.0001,6C16.945,6,16.89,6.00464,16.8357,6.013669999999999L9.502320000000001,7.23584C9.02014,7.31616,8.66675,7.7334,8.66675,8.22217L8.66671,13.4504Q8.274280000000001,13.3333,7.83331,13.3333Q6.65973,13.3333,5.829829999999999,14.1631Q5,14.9929,5,16.1665Q5,17.3401,5.829829999999999,18.1702Q6.65973,19,7.83331,19Q9.00696,19,9.83679,18.1702Q10.66669,17.3401,10.66669,16.1665L10.66675,9.06934L16.0001,8.18042ZM15.7559,14.3552Q15.9999,14.5991,15.9999,14.9443Q15.9999,15.2896,15.7559,15.5337Q15.5118,15.7778,15.1666,15.7778Q14.8214,15.7778,14.5773,15.5337Q14.3333,15.2896,14.3333,14.9443Q14.3333,14.5991,14.5773,14.3552Q14.8214,14.1111,15.1666,14.1111Q15.5118,14.1111,15.7559,14.3552ZM8.422609999999999,15.5774Q8.66669,15.8213,8.66669,16.1665Q8.66669,16.511699999999998,8.422609999999999,16.7559Q8.17853,17,7.83331,17Q7.48816,17,7.24408,16.7559Q7,16.511699999999998,7,16.1665Q7,15.8213,7.24408,15.5774Q7.48816,15.3333,7.83331,15.3333Q8.17853,15.3333,8.422609999999999,15.5774Z" fill-rule="evenodd" fill="#65DECF" fill-opacity="1"/></g></g></svg>