<svg xmlns="http://www.w3.org/2000/svg" xmlns:xlink="http://www.w3.org/1999/xlink" fill="none" version="1.1" width="20" height="20" viewBox="0 0 20 20"><defs><clipPath id="master_svg0_357_01788/325_9945"><rect x="0" y="0" width="20" height="20" rx="0"/></clipPath></defs><g style="mix-blend-mode:passthrough" clip-path="url(#master_svg0_357_01788/325_9945)"><g style="mix-blend-mode:passthrough"><path d="M8.333418046875,2.4996778125C8.112398046875,2.4996778125,7.900438046875,2.5874778125,7.744158046875,2.7437478125C7.587878046875,2.9000278125,7.500078046875,3.1119878125,7.500078046875,3.3330078125C7.500078046875,3.3330078125,7.500078046875,4.1663378125,7.500078046875,4.1663378125C7.500078046875,4.1663378125,12.500048046875,4.1663378125,12.500048046875,4.1663378125C12.500048046875,4.1663378125,12.500048046875,3.3330078125,12.500048046875,3.3330078125C12.500048046875,3.1119878125,12.412248046875,2.9000278125,12.255948046875,2.7437478125C12.099748046875,2.5874778125,11.887748046875,2.4996778125,11.666748046875,2.4996778125C11.666748046875,2.4996778125,8.333418046875,2.4996778125,8.333418046875,2.4996778125C8.333418046875,2.4996778125,8.333418046875,2.4996778125,8.333418046875,2.4996778125ZM14.166748046875,4.1663378125C14.166748046875,4.1663378125,14.166748046875,3.3330078125,14.166748046875,3.3330078125C14.166748046875,2.6699678125,13.903348046875,2.0340778125,13.434448046875,1.5652408125C12.965648046875,1.0963998125,12.329748046875,0.8330078125,11.666748046875,0.8330078125C11.666748046875,0.8330078125,8.333418046875,0.8330078125,8.333418046875,0.8330078125C7.670368046875,0.8330078125,7.034488046875,1.0963998125,6.565648046875,1.5652408125C6.096808046875,2.0340778125,5.833418046875,2.6699678125,5.833418046875,3.3330078125C5.833418046875,3.3330078125,5.833418046875,4.1663378125,5.833418046875,4.1663378125C5.833418046875,4.1663378125,2.500081046875,4.1663378125,2.500081046875,4.1663378125C2.039844046875,4.1663378125,1.666748046875,4.5394378125,1.666748046875,4.9996778125C1.666748046875,5.4599078125,2.039844046875,5.8330078125,2.500081046875,5.8330078125C2.500081046875,5.8330078125,3.333418046875,5.8330078125,3.333418046875,5.8330078125C3.333418046875,5.8330078125,3.333418046875,16.6663078125,3.333418046875,16.6663078125C3.333418046875,17.3294078125,3.596808046875,17.9652078125,4.065648046874999,18.4341078125C4.5344880468749995,18.9029078125,5.170368046875,19.1663078125,5.833418046875,19.1663078125C5.833418046875,19.1663078125,14.166748046875,19.1663078125,14.166748046875,19.1663078125C14.829848046875,19.1663078125,15.465648046875,18.9029078125,15.934448046875,18.4341078125C16.403348046875,17.9652078125,16.666748046875,17.3294078125,16.666748046875,16.6663078125C16.666748046875,16.6663078125,16.666748046875,5.8330078125,16.666748046875,5.8330078125C16.666748046875,5.8330078125,17.500048046875,5.8330078125,17.500048046875,5.8330078125C17.960348046875,5.8330078125,18.333448046875,5.4599078125,18.333448046875,4.9996778125C18.333448046875,4.5394378125,17.960348046875,4.1663378125,17.500048046875,4.1663378125C17.500048046875,4.1663378125,14.166748046875,4.1663378125,14.166748046875,4.1663378125C14.166748046875,4.1663378125,14.166748046875,4.1663378125,14.166748046875,4.1663378125ZM5.000078046875,5.8330078125C5.000078046875,5.8330078125,5.000078046875,16.6663078125,5.000078046875,16.6663078125C5.000078046875,16.8873078125,5.087878046875,17.0993078125,5.244158046875,17.2556078125C5.400438046875,17.4118078125,5.6123980468750005,17.4997078125,5.833418046875,17.4997078125C5.833418046875,17.4997078125,14.166748046875,17.4997078125,14.166748046875,17.4997078125C14.387748046875,17.4997078125,14.599748046875,17.4118078125,14.755948046875,17.2556078125C14.912248046875,17.0993078125,15.000048046875,16.8873078125,15.000048046875,16.6663078125C15.000048046875,16.6663078125,15.000048046875,5.8330078125,15.000048046875,5.8330078125C15.000048046875,5.8330078125,5.000078046875,5.8330078125,5.000078046875,5.8330078125C5.000078046875,5.8330078125,5.000078046875,5.8330078125,5.000078046875,5.8330078125Z" fill-rule="evenodd" fill="#FFFFFF" fill-opacity="1"/></g></g></svg>