<svg xmlns="http://www.w3.org/2000/svg" xmlns:xlink="http://www.w3.org/1999/xlink" fill="none" version="1.1" width="24" height="24" viewBox="0 0 24 24"><defs><clipPath id="master_svg0_1_00832/505_00891"><rect x="0" y="0" width="24" height="24" rx="0"/></clipPath></defs><g style="mix-blend-mode:passthrough" clip-path="url(#master_svg0_1_00832/505_00891)"><g style="mix-blend-mode:passthrough"><path d="M5,4C4.734780000000001,4,4.48043,4.10536,4.29289,4.29289C4.10536,4.48043,4,4.734780000000001,4,5C4,5,4,18.5858,4,18.5858C4,18.5858,6.29289,16.2929,6.29289,16.2929C6.48043,16.1054,6.73478,16,7,16C7,16,19,16,19,16C19.2652,16,19.5196,15.8946,19.7071,15.7071C19.8946,15.5196,20,15.2652,20,15C20,15,20,5,20,5C20,4.734780000000001,19.8946,4.48043,19.7071,4.29289C19.5196,4.10536,19.2652,4,19,4C19,4,5,4,5,4C5,4,5,4,5,4ZM2.87868,2.87868C3.44129,2.31607,4.20435,2,5,2C5,2,19,2,19,2C19.7957,2,20.5587,2.31607,21.1213,2.87868C21.6839,3.44129,22,4.20435,22,5C22,5,22,15,22,15C22,15.7957,21.6839,16.5587,21.1213,17.121299999999998C20.5587,17.6839,19.7957,18,19,18C19,18,7.41421,18,7.41421,18C7.41421,18,3.70711,21.7071,3.70711,21.7071C3.42111,21.9931,2.990991,22.0787,2.617317,21.9239C2.243642,21.7691,2,21.4045,2,21C2,21,2,5,2,5C2,4.20435,2.31607,3.44129,2.87868,2.87868C2.87868,2.87868,2.87868,2.87868,2.87868,2.87868Z" fill-rule="evenodd" fill="#6F7977" fill-opacity="1"/></g></g></svg>