<svg xmlns="http://www.w3.org/2000/svg" xmlns:xlink="http://www.w3.org/1999/xlink" fill="none" version="1.1" width="24" height="24" viewBox="0 0 24 24"><defs><clipPath id="master_svg0_321_00181/214_7833/214_6948/214_6818"><rect x="0" y="0" width="24" height="24" rx="0"/></clipPath></defs><g style="mix-blend-mode:passthrough" clip-path="url(#master_svg0_321_00181/214_7833/214_6948/214_6818)"><g style="mix-blend-mode:passthrough"><path d="M22.2277,16.049Q23,14.0982,23,12Q23,9.90181,22.2277,7.95096Q21.3891,5.83273,19.7782,4.221830000000001Q18.1673,2.61091,16.049,1.772329Q14.0982,1,12,1Q9.90182,1,7.95096,1.772329Q5.83274,2.61091,4.221830000000001,4.221830000000001Q2.61091,5.83274,1.772329,7.95096Q1,9.90182,1,12Q1,14.0982,1.772329,16.049Q2.61091,18.1673,4.221830000000001,19.7782Q5.83273,21.3891,7.95096,22.2277Q9.90181,23,12,23Q14.0982,23,16.049,22.2277Q18.1673,21.3891,19.7782,19.7782Q21.3891,18.1673,22.2277,16.049ZM20.3681,8.687149999999999Q21,10.2833,21,12Q21,13.7167,20.3681,15.3129Q19.682,17.0459,18.364,18.364Q17.0459,19.682,15.3129,20.3681Q13.7167,21,12,21Q10.2833,21,8.687149999999999,20.3681Q6.95406,19.682,5.63604,18.364Q4.318020000000001,17.0459,3.63191,15.3129Q3,13.7167,3,12Q3,10.28331,3.63191,8.687149999999999Q4.318020000000001,6.95406,5.63604,5.63604Q6.95406,4.318020000000001,8.687149999999999,3.63191Q10.28331,3,12,3Q13.7167,3,15.3129,3.63191Q17.0459,4.318020000000001,18.364,5.63604Q19.682,6.95406,20.3681,8.687149999999999Z" fill-rule="evenodd" fill="#FFFFFF" fill-opacity="1"/></g><g style="mix-blend-mode:passthrough"><path d="M15.114159375,4.6288001874999996Q16.549999375,5.2361086875,17.656749375,6.3428546875Q18.763499375000002,7.4496046875,19.370799375,8.8854446875C19.422939375,9.0086946875,19.449799374999998,9.1411646875,19.449799374999998,9.2749946875C19.449799374999998,9.827274687500001,19.002079375,10.2749946875,18.449799374999998,10.2749946875C18.048049374999998,10.2749946875,17.685299375,10.0345646875,17.528789375,9.664544687500001L17.528239375,9.6632446875Q17.072939375,8.5874746875,16.242529375,7.7570646875Q15.411619375,6.9261546875,14.335057375,6.4708046875C13.965040375,6.3143046875,13.724609375,5.9515546875,13.724609375,5.5498046875C13.724609375,4.9975196875,14.172324375,4.5498046875,14.724609375,4.5498046875C14.858439375,4.5498046875,14.990909375,4.5766670875,15.114159375,4.6288001874999996Z" fill-rule="evenodd" fill="#FFFFFF" fill-opacity="1"/></g><g style="mix-blend-mode:passthrough"><path d="M14.12132,14.12132Q15,13.24264,15,12Q15,10.75736,14.12132,9.87868Q13.24264,9,12,9Q10.75736,9,9.87868,9.87868Q9,10.75736,9,12Q9,13.24264,9.87868,14.12132Q10.75736,15,12,15Q13.24264,15,14.12132,14.12132ZM12.70711,11.29289Q13,11.58579,13,12Q13,12.41421,12.70711,12.70711Q12.41421,13,12,13Q11.58579,13,11.29289,12.70711Q11,12.41421,11,12Q11,11.58579,11.29289,11.29289Q11.58579,11,12,11Q12.41421,11,12.70711,11.29289Z" fill-rule="evenodd" fill="#FFFFFF" fill-opacity="1"/></g></g></svg>