<svg xmlns="http://www.w3.org/2000/svg" xmlns:xlink="http://www.w3.org/1999/xlink" fill="none" version="1.1" width="24" height="24" viewBox="0 0 24 24"><defs><clipPath id="master_svg0_101_4413/37_00913"><rect x="0" y="0" width="24" height="24" rx="0"/></clipPath></defs><g style="mix-blend-mode:passthrough" clip-path="url(#master_svg0_101_4413/37_00913)"><g style="mix-blend-mode:passthrough"><path d="M4.5668109999999995,3.098696801675415C4.913277,2.932176901675415,5.32453,2.978995301675415,5.6247,3.219131701675415C5.6247,3.219131701675415,15.6247,11.219130701675414,15.6247,11.219130701675414C15.8619,11.408900701675416,16,11.696220701675415,16,12.000000701675415C16,12.303780701675414,15.8619,12.591100701675416,15.6247,12.780870701675415C15.6247,12.780870701675415,5.6247,20.780890701675414,5.6247,20.780890701675414C5.32453,21.020990701675416,4.913277,21.067790701675413,4.5668109999999995,20.901290701675414C4.220346,20.734790701675415,4,20.384390701675414,4,19.999990701675415C4,19.999990701675415,4,4.000000701675415,4,4.000000701675415C4,3.6155947016754153,4.220346,3.2652167016754152,4.5668109999999995,3.098696801675415C4.5668109999999995,3.098696801675415,4.5668109999999995,3.098696801675415,4.5668109999999995,3.098696801675415ZM6,6.080620701675415C6,6.080620701675415,6,17.919390701675415,6,17.919390701675415C6,17.919390701675415,13.39922,12.000000701675415,13.39922,12.000000701675415C13.39922,12.000000701675415,6,6.080620701675415,6,6.080620701675415C6,6.080620701675415,6,6.080620701675415,6,6.080620701675415ZM19,4.000000701675415C19.552300000000002,4.000000701675415,20,4.447710701675415,20,5.000000701675415C20,5.000000701675415,20,18.999990701675415,20,18.999990701675415C20,19.552290701675414,19.552300000000002,19.999990701675415,19,19.999990701675415C18.447699999999998,19.999990701675415,18,19.552290701675414,18,18.999990701675415C18,18.999990701675415,18,5.000000701675415,18,5.000000701675415C18,4.447710701675415,18.447699999999998,4.000000701675415,19,4.000000701675415C19,4.000000701675415,19,4.000000701675415,19,4.000000701675415Z" fill-rule="evenodd" fill="#1A1C1C" fill-opacity="1"/></g></g></svg>