<svg xmlns="http://www.w3.org/2000/svg" xmlns:xlink="http://www.w3.org/1999/xlink" fill="none" version="1.1" width="20" height="20" viewBox="0 0 20 20"><defs><clipPath id="master_svg0_27_781/147_6421/1_06347"><rect x="0" y="0" width="20" height="20" rx="0"/></clipPath></defs><g style="mix-blend-mode:passthrough" clip-path="url(#master_svg0_27_781/147_6421/1_06347)"><g style="mix-blend-mode:passthrough"><path d="M10.3983818359375,1.66650390625C10.3983818359375,1.66650390625,10.8792118359375,1.66650390625,10.8792118359375,1.66650390625C12.8214818359375,1.77334290625,14.6559818359375,2.59298690625,16.031381835937502,3.96843390625C17.4068818359375,5.34387390625,18.2265818359375,7.17842390625,18.3333818359375,9.120673906250001C18.3333818359375,9.13567390625,18.3333818359375,9.15094390625,18.3333818359375,9.16650390625C18.3333818359375,9.16650390625,18.3333818359375,9.58317390625,18.3333818359375,9.58317390625C18.3333818359375,11.68280390625,17.499281835937502,13.69640390625,16.014681835937502,15.18110390625C14.5299818359375,16.665703906250002,12.5162818359375,17.49980390625,10.4167118359375,17.49980390625C10.4167118359375,17.49980390625,10.3975518359375,17.49980390625,10.3975518359375,17.49980390625C9.2933618359375,17.49850390625,8.2018618359375,17.264603906250002,7.1941818359375,16.81320390625C7.1941818359375,16.81320390625,2.7633518359375,18.29070390625,2.7633518359375,18.29070390625C2.6165238359375,18.33970390625,2.4589538359375,18.34670390625,2.3083118359375,18.31120390625C2.1576698359375,18.27570390625,2.0199048359375,18.19880390625,1.9104598359375,18.08940390625C1.8010138359375,17.97990390625,1.7242115359375,17.84220390625,1.6886609359375,17.69150390625C1.6531104359375,17.54090390625,1.6602165559375,17.38330390625,1.7091829359375,17.23650390625C1.7091829359375,17.23650390625,3.1866818359374998,12.80480390625,3.1866818359374998,12.80480390625C2.6503568359375,11.60100390625,2.4230558359375,10.28225390625,2.5254068359375,8.968333906249999C2.6277568359375,7.65439390625,3.0565118359375,6.38679390625,3.7727918359375,5.28051390625C4.4890718359375,4.17422390625,5.4702118359375,3.2642739062499997,6.6272018359375,2.63317090625C7.7841918359375,2.00207090625,9.0804318359375,1.66980245625,10.3983818359375,1.66650390625C10.3983818359375,1.66650390625,10.3983818359375,1.66650390625,10.3983818359375,1.66650390625ZM10.8100518359375,3.33317390625C10.8100518359375,3.33317390625,10.3983818359375,3.33317390625,10.3983818359375,3.33317390625C9.435311835937501,3.33442390625,8.4859118359375,3.56071390625,7.6258518359375,3.99400390625C6.5870518359375,4.51242390625,5.7131718359375,5.30992390625,5.1021918359375,6.29712390625C4.4912118359375,7.28432390625,4.1672618359375,8.422193906250001,4.1666818359375,9.58317390625C4.1651018359375005,10.55242390625,4.3914618359375,11.50842390625,4.8275118359375,12.37400390625C4.877091835937501,12.47220390625,4.9067418359375,12.57920390625,4.9147518359374995,12.68890390625C4.9227618359375,12.79860390625,4.9089718359375,12.90880390625,4.874181835937501,13.01320390625C4.874181835937501,13.01320390625,3.8175118359375,16.17980390625,3.8175118359375,16.17980390625C3.8175118359375,16.17980390625,6.9841818359375,15.12320390625,6.9841818359375,15.12320390625C7.0885318359375,15.08840390625,7.1987318359375,15.07460390625,7.3084318359375,15.08260390625C7.4181318359375,15.09060390625,7.5251618359375,15.12020390625,7.6233518359375,15.16980390625C8.4839418359375,15.60440390625,9.4342618359375,15.83160390625,10.3983818359375,15.83320390625C10.3983818359375,15.83320390625,10.4150518359375,15.83320390625,10.4150518359375,15.83320390625C11.5758018359375,15.83310390625,12.7135818359375,15.50970390625,13.7008818359375,14.89930390625C14.6881818359375,14.28890390625,15.4860818359375,13.41570390625,16.0050818359375,12.37730390625C16.441781835937498,11.51075390625,16.6684818359375,10.55358390625,16.6666818359375,9.58317390625C16.6666818359375,9.58317390625,16.6666818359375,9.18983390625,16.6666818359375,9.18983390625C16.5770818359375,7.66579390625,15.9311818359375,6.22764390625,14.8516818359375,5.1481239062499995C13.7721818359375,4.06860390625,12.3340818359375,3.4227839062500003,10.8100518359375,3.33317390625C10.8100518359375,3.33317390625,10.8100518359375,3.33317390625,10.8100518359375,3.33317390625Z" fill="#FFFFFF" fill-opacity="1"/></g></g></svg>