<svg xmlns="http://www.w3.org/2000/svg" xmlns:xlink="http://www.w3.org/1999/xlink" fill="none" version="1.1" width="48" height="48" viewBox="0 0 48 48"><defs><clipPath id="master_svg0_135_09299/135_09268"><rect x="12" y="12" width="24" height="24" rx="0"/></clipPath></defs><g style="mix-blend-mode:passthrough"><g style="mix-blend-mode:passthrough" clip-path="url(#master_svg0_135_09299/135_09268)"><g style="mix-blend-mode:passthrough"><path d="M16,14C16.55228,14,17,14.447715,17,15C17,15,17,22,17,22C17,22.55228,16.55228,23,16,23C15.44772,23,15,22.55228,15,22C15,22,15,15,15,15C15,14.447715,15.44772,14,16,14C16,14,16,14,16,14ZM24,14C24.552300000000002,14,25,14.447715,25,15C25,15,25,19,25,19C25,19,27,19,27,19C27.552300000000002,19,28,19.44772,28,20C28,20.55228,27.552300000000002,21,27,21C27,21,21,21,21,21C20.44772,21,20,20.55228,20,20C20,19.44772,20.44772,19,21,19C21,19,23,19,23,19C23,19,23,15,23,15C23,14.447715,23.447699999999998,14,24,14C24,14,24,14,24,14ZM32,14C32.5523,14,33,14.447715,33,15C33,15,33,24,33,24C33,24.552300000000002,32.5523,25,32,25C31.4477,25,31,24.552300000000002,31,24C31,24,31,15,31,15C31,14.447715,31.4477,14,32,14C32,14,32,14,32,14ZM24,23C24.552300000000002,23,25,23.44771,25,24C25,24,25,33,25,33C25,33.5523,24.552300000000002,34,24,34C23.447699999999998,34,23,33.5523,23,33C23,33,23,24,23,24C23,23.44771,23.447699999999998,23,24,23C24,23,24,23,24,23ZM12,26C12,25.447699999999998,12.447715,25,13,25C13,25,19,25,19,25C19.55228,25,20,25.447699999999998,20,26C20,26.552300000000002,19.55228,27,19,27C19,27,17,27,17,27C17,27,17,33,17,33C17,33.5523,16.55228,34,16,34C15.44772,34,15,33.5523,15,33C15,33,15,27,15,27C15,27,13,27,13,27C12.447715,27,12,26.552300000000002,12,26C12,26,12,26,12,26ZM28,28C28,27.447699999999998,28.4477,27,29,27C29,27,35,27,35,27C35.5523,27,36,27.447699999999998,36,28C36,28.552300000000002,35.5523,29,35,29C35,29,33,29,33,29C33,29,33,33,33,33C33,33.5523,32.5523,34,32,34C31.4477,34,31,33.5523,31,33C31,33,31,29,31,29C31,29,29,29,29,29C28.4477,29,28,28.552300000000002,28,28C28,28,28,28,28,28Z" fill-rule="evenodd" fill="#000000" fill-opacity="1"/></g></g></g></svg>