<svg xmlns="http://www.w3.org/2000/svg" xmlns:xlink="http://www.w3.org/1999/xlink" fill="none" version="1.1" width="24" height="24" viewBox="0 0 24 24"><defs><clipPath id="master_svg0_441_00166/1_00659"><rect x="0" y="0" width="24" height="24" rx="0"/></clipPath></defs><g style="mix-blend-mode:passthrough" clip-path="url(#master_svg0_441_00166/1_00659)"><g style="mix-blend-mode:passthrough"><path d="M10,13L10,19C10,19.5523,10.4477,20,11,20C11.5523,20,12,19.5523,12,19L12,4C12,3.447715,11.5523,3,11,3C10.6552,3,10.3347,3.17762,10.152,3.470001L5.16835,11.44385L0.18667,18.4182L0.186267,18.418799999999997C0.0651231,18.5884,0,18.791600000000003,0,19C0,19.5523,0.447715,20,1,20C1.32295,20,1.62602,19.844,1.81373,19.5812L1.81414,19.5807L6.51462,13L10,13ZM10,11L10,7.4868L7.80425,11L10,11Z" fill-rule="evenodd" fill="#FFFFFF" fill-opacity="1"/></g><g style="mix-blend-mode:passthrough"><path d="M13.267211,12.68045L19.76721,19.6805C19.95642,19.8842,20.22194,20,20.5,20C21.05229,20,21.5,19.5523,21.5,19C21.5,18.7476,21.40455,18.5045,21.232799999999997,18.319499999999998L16.293219999999998,13L16.5,13Q18.57107,13,20.03554,11.53553Q21.5,10.071069999999999,21.5,8Q21.5,5.928929999999999,20.03554,4.46447Q18.57107,3.000000476837,16.5,3L14,3.000000476837C13.44772,3.000000476837,13.00000429153,3.447716,13.00000429153,4C13.00000429153,4.55229,13.44772,5,14,5L16.5,5Q17.74265,5,18.62133,5.87868Q19.5,6.75736,19.5,8Q19.5,9.24264,18.62133,10.12132Q17.74265,11,16.5,11L14,11C13.747593,11,13.504519,11.09545,13.319552999999999,11.26721C12.9148425,11.64301,12.891408,12.27574,13.267211,12.68045Z" fill-rule="evenodd" fill="#FFFFFF" fill-opacity="1"/></g></g></svg>