<svg xmlns="http://www.w3.org/2000/svg" xmlns:xlink="http://www.w3.org/1999/xlink" fill="none" version="1.1" width="30" height="30" viewBox="0 0 30 30"><defs><clipPath id="master_svg0_597_60897/120_05713"><rect x="0" y="0" width="30" height="30" rx="0"/></clipPath></defs><g style="mix-blend-mode:passthrough" clip-path="url(#master_svg0_597_60897/120_05713)"><g style="mix-blend-mode:passthrough"><path d="M15,2.5C15.6904,2.5,16.25,3.059644,16.25,3.75C16.25,3.75,16.25,15.7323,16.25,15.7323C16.25,15.7323,20.3661,11.61611,20.3661,11.61611C20.8542,11.12796,21.6458,11.12796,22.1339,11.61611C22.622,12.10427,22.622,12.8957,22.1339,13.3839C22.1339,13.3839,15.8839,19.6339,15.8839,19.6339C15.3958,20.122,14.6043,20.122,14.1161,19.6339C14.1161,19.6339,7.86611,13.3839,7.86611,13.3839C7.37796,12.8957,7.37796,12.10427,7.86611,11.61611C8.35428,11.12796,9.14572,11.12796,9.633890000000001,11.61611C9.633890000000001,11.61611,13.75,15.7323,13.75,15.7323C13.75,15.7323,13.75,3.75,13.75,3.75C13.75,3.059644,14.3096,2.5,15,2.5C15,2.5,15,2.5,15,2.5ZM3.75,17.5C4.4403500000000005,17.5,5,18.0596,5,18.75C5,18.75,5,23.75,5,23.75C5,24.0815,5.1317,24.3995,5.36611,24.6339C5.6005400000000005,24.8682,5.918480000000001,25,6.25,25C6.25,25,23.75,25,23.75,25C24.0815,25,24.3995,24.8682,24.6339,24.6339C24.8682,24.3995,25,24.0815,25,23.75C25,23.75,25,18.75,25,18.75C25,18.0596,25.5596,17.5,26.25,17.5C26.9404,17.5,27.5,18.0596,27.5,18.75C27.5,18.75,27.5,23.75,27.5,23.75C27.5,24.7446,27.1049,25.6984,26.4016,26.4016C25.6984,27.1049,24.7446,27.5,23.75,27.5C23.75,27.5,6.25,27.5,6.25,27.5C5.25544,27.5,4.30161,27.1049,3.59835,26.4016C2.895087,25.6984,2.5,24.7446,2.5,23.75C2.5,23.75,2.5,18.75,2.5,18.75C2.5,18.0596,3.059644,17.5,3.75,17.5C3.75,17.5,3.75,17.5,3.75,17.5Z" fill-rule="evenodd" fill="#FFFFFF" fill-opacity="1"/></g></g></svg>