<svg xmlns="http://www.w3.org/2000/svg" xmlns:xlink="http://www.w3.org/1999/xlink" fill="none" version="1.1" width="20" height="20" viewBox="0 0 20 20"><defs><clipPath id="master_svg0_793_02308"><rect x="0" y="0" width="20" height="20" rx="0"/></clipPath></defs><g style="mix-blend-mode:passthrough" clip-path="url(#master_svg0_793_02308)"><g style="mix-blend-mode:passthrough"><path d="M14.99998701171875,2.50016609375C14.07948701171875,2.50016609375,13.33338701171875,3.24635609375,13.33338701171875,4.16682609375C13.33338701171875,4.45624609375,13.40708701171875,4.72843609375,13.53688701171875,4.96561609375C13.54538701171875,4.97848609375,13.55348701171875,4.99166609375,13.56138701171875,5.00513609375C13.56928701171875,5.01851609375,13.57658701171875,5.03201609375,13.58358701171875,5.04563609375C13.87768701171875,5.51861609375,14.40208701171875,5.83349609375,14.99998701171875,5.83349609375C15.92048701171875,5.83349609375,16.66668701171875,5.08730609375,16.66668701171875,4.16682609375C16.66668701171875,3.24635609375,15.92048701171875,2.50016609375,14.99998701171875,2.50016609375C14.99998701171875,2.50016609375,14.99998701171875,2.50016609375,14.99998701171875,2.50016609375ZM12.63178701171875,6.51253609375C13.23588701171875,7.12239609375,14.07378701171875,7.50016609375,14.99998701171875,7.50016609375C16.840987011718752,7.50016609375,18.33338701171875,6.00777609375,18.33338701171875,4.16682609375C18.33338701171875,2.32587609375,16.840987011718752,0.83349609375,14.99998701171875,0.83349609375C13.15908701171875,0.83349609375,11.66668701171875,2.32587609375,11.66668701171875,4.16682609375C11.66668701171875,4.48101609375,11.71018701171875,4.78503609375,11.79148701171875,5.07322609375C11.79148701171875,5.07322609375,7.36830701171875,7.65445609375,7.36830701171875,7.65445609375C6.76421701171875,7.04459609375,5.92623701171875,6.66682609375,5.00001701171875,6.66682609375C3.15906701171875,6.66682609375,1.66668701171875,8.15921609375,1.66668701171875,10.00016609375C1.66668701171875,11.84109609375,3.15906701171875,13.33349609375,5.00001701171875,13.33349609375C5.92641701171875,13.33349609375,6.76452701171875,12.95559609375,7.36863701171875,12.34549609375C7.36863701171875,12.34549609375,11.79238701171875,14.92339609375,11.79238701171875,14.92339609375C11.71048701171875,15.21269609375,11.66668701171875,15.51799609375,11.66668701171875,15.83349609375C11.66668701171875,17.67439609375,13.15908701171875,19.16679609375,14.99998701171875,19.16679609375C16.840987011718752,19.16679609375,18.33338701171875,17.67439609375,18.33338701171875,15.83349609375C18.33338701171875,13.99259609375,16.840987011718752,12.50019609375,14.99998701171875,12.50019609375C14.07518701171875,12.50019609375,13.23838701171875,12.87679609375,12.63438701171875,13.48509609375C12.63438701171875,13.48509609375,8.20876701171875,10.90609609375,8.20876701171875,10.90609609375C8.289937011718749,10.61807609375,8.33335701171875,10.31416609375,8.33335701171875,10.00016609375C8.33335701171875,9.68599609375,8.28988701171875,9.38191609375,8.20863701171875,9.09376609375C8.20863701171875,9.09376609375,12.63178701171875,6.51253609375,12.63178701171875,6.51253609375C12.63178701171875,6.51253609375,12.63178701171875,6.51253609375,12.63178701171875,6.51253609375ZM6.41643701171875,9.12135609375C6.42341701171875,9.13496609375,6.43080701171875,9.14847609375,6.43860701171875,9.16185609375C6.44647701171875,9.17532609375,6.45465701171875,9.18849609375,6.46315701171875,9.20132609375C6.59290701171875,9.43857609375,6.66668701171875,9.71074609375,6.66668701171875,10.00016609375C6.66668701171875,10.28957609375,6.59291701171875,10.56174609375,6.46315701171875,10.79891609375C6.45456701171875,10.81199609375,6.44629701171875,10.82532609375,6.43834701171875,10.83889609375C6.43063701171875,10.85219609375,6.42333701171875,10.86549609375,6.41643701171875,10.87899609375C6.12235701171875,11.35189609375,5.59795701171875,11.66679609375,5.00001701171875,11.66679609375C4.07954701171875,11.66679609375,3.33335701171875,10.92069609375,3.33335701171875,10.00016609375C3.33335701171875,9.07968609375,4.07954701171875,8.33349609375,5.00001701171875,8.33349609375C5.59795701171875,8.33349609375,6.12235701171875,8.648366093749999,6.41643701171875,9.12135609375C6.41643701171875,9.12135609375,6.41643701171875,9.12135609375,6.41643701171875,9.12135609375ZM13.51278701171875,15.08049609375C13.53338701171875,15.05349609375,13.55238701171875,15.02479609375,13.56998701171875,14.99469609375C13.58688701171875,14.96579609375,13.60178701171875,14.93639609375,13.61478701171875,14.90639609375C13.91388701171875,14.46039609375,14.42268701171875,14.16679609375,14.99998701171875,14.16679609375C15.92048701171875,14.16679609375,16.66668701171875,14.91299609375,16.66668701171875,15.83349609375C16.66668701171875,16.75399609375,15.92048701171875,17.50019609375,14.99998701171875,17.50019609375C14.07948701171875,17.50019609375,13.33338701171875,16.75399609375,13.33338701171875,15.83349609375C13.33338701171875,15.56259609375,13.39798701171875,15.30669609375,13.51278701171875,15.08049609375C13.51278701171875,15.08049609375,13.51278701171875,15.08049609375,13.51278701171875,15.08049609375Z" fill-rule="evenodd" fill="#FFFFFF" fill-opacity="1"/></g></g></svg>