<svg xmlns="http://www.w3.org/2000/svg" xmlns:xlink="http://www.w3.org/1999/xlink" fill="none" version="1.1" width="20" height="20" viewBox="0 0 20 20"><defs><clipPath id="master_svg0_27_629/1_8908"><rect x="0" y="0" width="20" height="20" rx="0"/></clipPath></defs><g style="mix-blend-mode:passthrough" clip-path="url(#master_svg0_27_629/1_8908)"><g style="mix-blend-mode:passthrough"><path d="M9.99998298828125,3.33331298828125C10.46021298828125,3.33331298828125,10.83331298828125,3.70640898828125,10.83331298828125,4.16664598828125C10.83331298828125,4.16664598828125,10.83331298828125,9.16664298828125,10.83331298828125,9.16664298828125C10.83331298828125,9.16664298828125,15.83331298828125,9.16664298828125,15.83331298828125,9.16664298828125C16.29351298828125,9.16664298828125,16.66661298828125,9.539742988281251,16.66661298828125,9.99998298828125C16.66661298828125,10.46021298828125,16.29351298828125,10.83331298828125,15.83331298828125,10.83331298828125C15.83331298828125,10.83331298828125,10.83331298828125,10.83331298828125,10.83331298828125,10.83331298828125C10.83331298828125,10.83331298828125,10.83331298828125,15.83331298828125,10.83331298828125,15.83331298828125C10.83331298828125,16.29351298828125,10.46021298828125,16.66661298828125,9.99998298828125,16.66661298828125C9.539742988281251,16.66661298828125,9.16664298828125,16.29351298828125,9.16664298828125,15.83331298828125C9.16664298828125,15.83331298828125,9.16664298828125,10.83331298828125,9.16664298828125,10.83331298828125C9.16664298828125,10.83331298828125,4.16664598828125,10.83331298828125,4.16664598828125,10.83331298828125C3.70640898828125,10.83331298828125,3.33331298828125,10.46021298828125,3.33331298828125,9.99998298828125C3.33331298828125,9.539742988281251,3.70640898828125,9.16664298828125,4.16664598828125,9.16664298828125C4.16664598828125,9.16664298828125,9.16664298828125,9.16664298828125,9.16664298828125,9.16664298828125C9.16664298828125,9.16664298828125,9.16664298828125,4.16664598828125,9.16664298828125,4.16664598828125C9.16664298828125,3.70640898828125,9.539742988281251,3.33331298828125,9.99998298828125,3.33331298828125C9.99998298828125,3.33331298828125,9.99998298828125,3.33331298828125,9.99998298828125,3.33331298828125Z" fill-rule="evenodd" fill="#FFFFFF" fill-opacity="1"/></g></g></svg>