<svg xmlns="http://www.w3.org/2000/svg" xmlns:xlink="http://www.w3.org/1999/xlink" fill="none" version="1.1" width="30" height="30" viewBox="0 0 30 30"><defs><clipPath id="master_svg0_120_05248/120_05713"><rect x="0" y="0" width="30" height="30" rx="0"/></clipPath></defs><g style="mix-blend-mode:passthrough" clip-path="url(#master_svg0_120_05248/120_05713)"><g style="mix-blend-mode:passthrough"><path d="M9.12511,2.569002421875C11.9309,1.243061441875,15.1027,0.9052624218750001,18.1249,1.610538421875C21.147,2.315812421875,23.8418,4.022682421875,25.7708,6.453612421875C27.6999,8.884532421875,28.7499,11.896532421875,28.75,14.999832421875C28.75,14.999832421875,28.75,16.250032421874998,28.75,16.250032421874998C28.75,17.575932421875,28.2232,18.847832421875,27.2855,19.785432421875C26.3479,20.723232421875,25.0761,21.250032421875,23.75,21.250032421875C22.4239,21.250032421875,21.1521,20.723232421875,20.2145,19.785432421875C20.016,19.587032421875,19.8359,19.373632421875,19.6754,19.147732421875C18.5305,20.437332421875,16.8601,21.250032421875,15,21.250032421875C11.5482,21.250032421875,8.75001,18.451732421875,8.75001,15.000032421875C8.75001,11.548232421875,11.5482,8.749962421875,15,8.749962421875C16.407,8.749962421875,17.7055,9.214892421875,18.75,9.999492421875C18.7502,9.309362421875,19.3097,8.749962421875,20,8.749962421875C20.6904,8.749962421875,21.25,9.309612421875,21.25,9.999962421875C21.25,9.999962421875,21.25,16.250032421874998,21.25,16.250032421874998C21.25,16.913032421875002,21.5134,17.548832421875,21.9823,18.017732421875C22.4511,18.486632421875,23.087,18.750032421875,23.75,18.750032421875C24.413,18.750032421875,25.049,18.486632421875,25.5177,18.017732421875C25.9866,17.548832421875,26.25,16.913032421875002,26.25,16.250032421874998C26.25,16.250032421874998,26.25,15.000032421875,26.25,15.000032421875C26.25,15.000032421875,26.25,15.000032421875,26.25,15.000032421875C26.2499,12.460932421875,25.3907,9.996552421875,23.8125,8.007632421875C22.2341,6.018692421875,20.0294,4.622172421875,17.5567,4.045122421875C15.0841,3.468082421875,12.4889,3.744462421875,10.19328,4.829322421875C7.89762,5.914192421875,6.03646,7.743732421875,4.9124300000000005,10.020472421875C3.7884,12.297232421875,3.4676,14.887232421875,4.0022,17.369332421875C4.5367999999999995,19.851632421875,5.89536,22.080032421875,7.85698,23.692132421875C9.81859,25.304232421875,12.2679,26.205532421875,14.8066,26.249132421875C17.3452,26.292732421875,19.8241,25.476332421875,21.84,23.932432421875C22.3881,23.512832421875,23.1728,23.616832421875,23.5925,24.164932421875C24.0121,24.713132421875,23.9081,25.497632421875,23.36,25.917332421875C20.8961,27.804232421875,17.8665,28.802132421875,14.7636,28.748732421875C11.6607,28.695332421875,8.66715,27.593832421875,6.26962,25.623432421875C3.8721,23.653132421875,2.211646,20.929632421875,1.558244,17.895732421875C0.904841,14.861932421875,1.296925,11.696432421875,2.67074,8.913742421875C4.044560000000001,6.131072421875,6.31931,3.894962421875,9.12511,2.569002421875C9.12511,2.569002421875,9.12511,2.569002421875,9.12511,2.569002421875ZM18.75,15.000032421875C18.75,12.928932421875,17.0711,11.249962421875,15,11.249962421875C12.9289,11.249962421875,11.25,12.928932421875,11.25,15.000032421875C11.25,17.071032421875,12.9289,18.750032421875,15,18.750032421875C17.0711,18.750032421875,18.75,17.071032421875,18.75,15.000032421875C18.75,15.000032421875,18.75,15.000032421875,18.75,15.000032421875Z" fill-rule="evenodd" fill="#000000" fill-opacity="1"/></g></g></svg>