<svg xmlns="http://www.w3.org/2000/svg" xmlns:xlink="http://www.w3.org/1999/xlink" fill="none" version="1.1" width="24" height="24" viewBox="0 0 24 24"><defs><clipPath id="master_svg0_317_7290/214_7833/214_6934/214_6818"><rect x="0" y="0" width="24" height="24" rx="0"/></clipPath></defs><g style="mix-blend-mode:passthrough" clip-path="url(#master_svg0_317_7290/214_7833/214_6934/214_6818)"><g style="mix-blend-mode:passthrough"><path d="M9.41176,16.857099046325686Q10.25767,16.857099046325686,11.0802,16.71119904632568L10.73074,14.741899046325683Q10.08157,14.857099046325684,9.41176,14.857099046325684Q8.5766,14.857099046325684,7.77725,14.678799046325684C7.55771,14.629799046325683,7.32807,14.656199046325684,7.12543,14.753899046325683L5.95381,15.318299046325684L6.0596,14.892099046325683C6.16394,14.471699046325684,5.9858,14.031899046325684,5.6183,13.802699046325683Q4.391109999999999,13.037199046325684,3.69882,11.891749046325684Q3,10.735449046325684,3,9.428569046325684Q3,7.222169046325684,4.82608,5.638319046325684Q6.71497,3.9999990463256836,9.41176,3.9999990463256836Q12.1086,3.9999990463256836,13.9974,5.638319046325684Q15.8235,7.222159046325683,15.8235,9.428569046325684L17.8235,9.428569046325684Q17.8235,7.889849046325684,17.1399,6.487969046325683Q16.4879,5.150899046325684,15.3079,4.127449046325683Q12.8551,1.9999999999996836,9.41176,1.9999990463256836Q5.96846,1.9999991655346836,3.51563,4.127449046325683Q2.33566,5.150899046325684,1.683631,6.487969046325683Q1,7.889849046325684,1,9.428569046325684Q0.999999880791,11.292869046325684,1.987141,12.926199046325683Q2.74423,14.178899046325684,3.95138,15.083599046325684L3.50004,16.901999046325685C3.44389,17.128199046325683,3.46852,17.366899046325685,3.56969,17.576899046325686C3.6848,17.815799046325683,3.89011,17.999199046325685,4.1404499999999995,18.086799046325684C4.3908000000000005,18.174299046325682,4.66568,18.158899046325683,4.90461,18.043799046325685L7.6904,16.701699046325686Q8.53697,16.857099046325686,9.41176,16.857099046325686Z" fill-rule="evenodd" fill="#FFFFFF" fill-opacity="1"/></g><g style="mix-blend-mode:passthrough"><path d="M8.1766446875,8.143131875C8.1766446875,8.853211875,7.6235846875,9.428851875,6.9413446875,9.428851875C6.2591146875,9.428851875,5.7060546875,8.853211875,5.7060546875,8.143131875C5.7060546875,7.433055875,6.2591146875,6.857421875,6.9413446875,6.857421875C7.6235846875,6.857421875,8.1766446875,7.433055875,8.1766446875,8.143131875Z" fill="#FFFFFF" fill-opacity="1"/></g><g style="mix-blend-mode:passthrough"><path d="M13.11756265625,8.143131875C13.11756265625,8.853211875,12.56450265625,9.428851875,11.882262656249999,9.428851875C11.20003265625,9.428851875,10.64697265625,8.853211875,10.64697265625,8.143131875C10.64697265625,7.433055875,11.20003265625,6.857421875,11.882262656249999,6.857421875C12.56450265625,6.857421875,13.11756265625,7.433055875,13.11756265625,8.143131875Z" fill="#FFFFFF" fill-opacity="1"/></g><g style="mix-blend-mode:passthrough" transform="matrix(-1,0,0,1,48,0)"><path d="M26.434,19.391610937499998Q25.46873,18.6549109375,24.850892,17.651170937499998Q24,16.2688609375,24,14.6884509375Q24.000000238419,12.0479109375,26.1607,10.2079109375Q28.25,8.428710460663,31.176470000000002,8.4287109375Q34.1029,8.4287109971046,36.1922,10.2079109375Q38.3529,12.0479109375,38.3529,14.6884509375Q38.3529,17.328990937500002,36.1922,19.169010937499998Q34.1029,20.9482109375,31.176470000000002,20.9482109375Q30.45882,20.9482109375,29.76333,20.827110937500002L27.48641,21.9041109375C27.27658,22.0034109375,27.03876,22.0265109375,26.81373,21.9696109375C26.5566,21.9046109375,26.33583,21.7401109375,26.19998,21.5124109375C26.06412,21.2846109375,26.02432,21.0122109375,26.08932,20.7550109375L26.434,19.391610937499998ZM28.54784,19.1896109375L29.205289999999998,18.8786109375C29.40522,18.7840109375,29.63086,18.758410937500003,29.846899999999998,18.8058109375Q30.49692,18.9482109375,31.176470000000002,18.9482109375Q33.366749999999996,18.9482109375,34.8955,17.6463009375Q36.3529,16.4052209375,36.3529,14.6884509375Q36.3529,12.9716809375,34.8955,11.7306009375Q33.366749999999996,10.4287109375,31.176470000000002,10.4287109375Q28.98619,10.4287109375,27.45739,11.7306009375Q26,12.9716809375,26,14.6884509375Q26,15.7026409375,26.55408,16.6027709375Q27.10869,17.503760937499997,28.09648,18.1087009375C28.46429,18.333960937500002,28.64623,18.7697109375,28.54784,19.1896109375Z" fill-rule="evenodd" fill="#FFFFFF" fill-opacity="1"/></g><g style="mix-blend-mode:passthrough" transform="matrix(-1,0,0,1,39.8232421875,0)"><path d="M21.97044109375,13.63642265625C21.97044109375,14.21739265625,21.50956109375,14.68837265625,20.94103109375,14.68837265625C20.37250409375,14.68837265625,19.91162109375,14.21739265625,19.91162109375,13.63642265625C19.91162109375,13.05544565625,20.37250409375,12.58447265625,20.94103109375,12.58447265625C21.50956109375,12.58447265625,21.97044109375,13.05544565625,21.97044109375,13.63642265625Z" fill="#FFFFFF" fill-opacity="1"/></g><g style="mix-blend-mode:passthrough" transform="matrix(-1,0,0,1,31.587890625,0)"><path d="M17.8527653125,13.63642265625C17.8527653125,14.21739265625,17.3918853125,14.68837265625,16.8233553125,14.68837265625C16.2548283125,14.68837265625,15.7939453125,14.21739265625,15.7939453125,13.63642265625C15.7939453125,13.05544565625,16.2548283125,12.58447265625,16.8233553125,12.58447265625C17.3918853125,12.58447265625,17.8527653125,13.05544565625,17.8527653125,13.63642265625Z" fill="#FFFFFF" fill-opacity="1"/></g></g></svg>