<svg xmlns="http://www.w3.org/2000/svg" xmlns:xlink="http://www.w3.org/1999/xlink" fill="none" version="1.1" width="24" height="24" viewBox="0 0 24 24"><defs><clipPath id="master_svg0_317_7290/214_7833/214_6966/214_6818"><rect x="0" y="0" width="24" height="24" rx="0"/></clipPath></defs><g style="mix-blend-mode:passthrough" clip-path="url(#master_svg0_317_7290/214_7833/214_6966/214_6818)"><g style="mix-blend-mode:passthrough"><path d="M14.52548583984375,2.36025C13.47668583984375,2.76058,12.57598583984375,3.47337,11.94558583984375,4.40215C11.94558583984375,4.40215,11.79428583984375,4.63782,11.79428583984375,4.63782C11.31078583984375,5.43468,11.03858583984375,6.34191,11.00348583984375,7.27338C11.00348583984375,7.27338,10.99998583984375,7.515,10.99998583984375,7.515C10.99998583984375,7.515,10.87558583984375,7.50634,10.87558583984375,7.50634C9.66148583984375,7.39934,8.47517583984375,7.06321,7.38059583984375,6.51227C5.95764583984375,5.79605,4.73389583984375,4.73903,3.81834583984375,3.4353499999999997C3.37165583984375,2.79928,2.40185583984375,2.893661,2.08618583984375,3.60392C2.05361583984375,3.6772,2.01772583984375,3.7633900000000002,1.97939583984375,3.86182C1.97939583984375,3.86182,1.85796583984375,4.19317,1.85796583984375,4.19317C1.77328583984375,4.43765,1.68234583984375,4.728400000000001,1.59214583984375,5.06002C0.99575383984375,7.25262,0.89140983984375,9.56132,1.60629583984375,11.75825C1.60629583984375,11.75825,1.70204583984375,12.0377,1.70204583984375,12.0377C2.40171583984375,13.9801,3.72017583984375,15.6364,5.71594583984375,16.9185C5.71594583984375,16.9185,5.91299583984375,17.042,5.91299583984375,17.042C5.91299583984375,17.042,5.79326583984375,17.098,5.79326583984375,17.098C4.30752583984375,17.7601,2.68168583984375,18.0762,1.03976583984375,18.0108C-0.01263866015625,17.968899999999998,-0.40634516015625,19.3727,0.51434983984375,19.8842C10.55388583984375,25.4617,21.99998583984375,19.3695,21.99998583984375,7.51006C21.99998583984375,7.51006,21.99328583984375,7.25309,21.99328583984375,7.25309C21.99328583984375,7.25309,21.97598583984375,7.019,21.97598583984375,7.019C21.97598583984375,7.019,22.09518583984375,6.88703,22.09518583984375,6.88703C22.99858583984375,5.842280000000001,23.64318583984375,4.59509,23.97158583984375,3.2466999999999997C24.19028583984375,2.34895,23.17858583984375,1.6603029999999999,22.42358583984375,2.192897C22.42358583984375,2.192897,22.09308583984375,2.41616,22.09308583984375,2.41616C21.53528583984375,2.776879,20.94288583984375,3.0803700000000003,20.32488583984375,3.3222C20.32488583984375,3.3222,20.12798583984375,3.394,20.12798583984375,3.394C20.12798583984375,3.394,20.01858583984375,3.29603,20.01858583984375,3.29603C19.38138583984375,2.757051,18.62648583984375,2.368254,17.80968583984375,2.163886C16.72068583984375,1.891399,15.57428583984375,1.9599411,14.52548583984375,2.36025C14.52548583984375,2.36025,14.52548583984375,2.36025,14.52548583984375,2.36025ZM17.32428583984375,4.10407C18.01578583984375,4.27712,18.63758583984375,4.65838,19.10548583984375,5.19632C19.36358583984375,5.4931,19.77168583984375,5.611000000000001,20.14828583984375,5.497590000000001C20.14828583984375,5.497590000000001,20.55408583984375,5.367430000000001,20.55408583984375,5.367430000000001C20.55408583984375,5.367430000000001,20.83598583984375,5.265000000000001,20.83598583984375,5.265000000000001C20.64568583984375,5.51562,20.43988583984375,5.749029999999999,20.21778583984375,5.96805C19.98018583984375,6.20244,19.87508583984375,6.53996,19.93778583984375,6.86782C19.97848583984375,7.08067,19.99928583984375,7.29676,19.99998583984375,7.51329C19.99998583984375,7.51329,19.99708583984375,7.82023,19.99708583984375,7.82023C19.83188583984375,16.4735,12.68728583984375,21.4181,5.18953583984375,19.5989C5.18953583984375,19.5989,4.92899583984375,19.532,4.92899583984375,19.532C4.92899583984375,19.532,5.11797583984375,19.4792,5.11797583984375,19.4792C6.33469583984375,19.1116,7.49665583984375,18.5603,8.56163583984375,17.837400000000002C9.21059583984375,17.396900000000002,9.12288583984375,16.4148,8.40612583984375,16.0962C5.73500583984375,14.909,4.18516583984375,13.22,3.50813583984375,11.13939C3.50813583984375,11.13939,3.40776583984375,10.80536,3.40776583984375,10.80536C3.00599583984375,9.35023,3.03224583984375,7.79842,3.35336583984375,6.2819C3.35336583984375,6.2819,3.40587583984375,6.05492,3.40587583984375,6.05492C4.29819583984375,6.96324,5.33637583984375,7.7224,6.48141583984375,8.298729999999999C8.19896583984375,9.16324,10.10368583984375,9.589559999999999,12.02588583984375,9.539719999999999C12.56788583984375,9.52567,12.99998583984375,9.08225,12.99998583984375,8.54006C12.99998583984375,8.54006,12.99998583984375,7.54006,12.99998583984375,7.54006C12.99038583984375,6.81379,13.19998583984375,6.11524,13.60038583984375,5.52545C14.00068583984375,4.935639999999999,14.57258583984375,4.4830000000000005,15.23868583984375,4.22877C15.90468583984375,3.9745600000000003,16.63268583984375,3.9310400000000003,17.32428583984375,4.10407C17.32428583984375,4.10407,17.32428583984375,4.10407,17.32428583984375,4.10407Z" fill="#FFFFFF" fill-opacity="1"/></g></g></svg>