<svg xmlns="http://www.w3.org/2000/svg" xmlns:xlink="http://www.w3.org/1999/xlink" fill="none" version="1.1" width="25" height="25" viewBox="0 0 25 25"><defs><clipPath id="master_svg0_135_03528/135_01462"><rect x="0" y="0" width="25" height="25" rx="0"/></clipPath></defs><g style="mix-blend-mode:passthrough" clip-path="url(#master_svg0_135_03528/135_01462)"><g style="mix-blend-mode:passthrough"><path d="M19.12818701171875,4.3987359999999995C19.53498701171875,3.992001,20.19448701171875,3.992101,20.60128701171875,4.398958C22.74938701171875,6.54771,23.95618701171875,9.46166,23.95618701171875,12.5C23.95618701171875,15.53835,22.74938701171875,18.45225,20.60128701171875,20.60105C20.19448701171875,21.00795,19.53498701171875,21.00805,19.12818701171875,20.60125C18.72128701171875,20.19445,18.72118701171875,19.534950000000002,19.12798701171875,19.128149999999998C20.88538701171875,17.36995,21.87278701171875,14.98595,21.87278701171875,12.5C21.87278701171875,10.01408,20.88538701171875,7.62995,19.12798701171875,5.8718699999999995C18.72118701171875,5.46502,18.72128701171875,4.805471,19.12818701171875,4.3987359999999995C19.12818701171875,4.3987359999999995,19.12818701171875,4.3987359999999995,19.12818701171875,4.3987359999999995ZM11.90958701171875,4.269476C12.27058701171875,4.442934,12.49998701171875,4.807911,12.49998701171875,5.20833C12.49998701171875,5.20833,12.49998701171875,19.79165,12.49998701171875,19.79165C12.49998701171875,20.19205,12.27058701171875,20.55705,11.90958701171875,20.73055C11.54868701171875,20.90395,11.12028701171875,20.85525,10.80763701171875,20.60515C10.80763701171875,20.60515,5.88462701171875,16.66665,5.88462701171875,16.66665C5.88462701171875,16.66665,2.08335701171875,16.66665,2.08335701171875,16.66665C1.50805701171875,16.66665,1.04168701171875,16.20035,1.04168701171875,15.62495C1.04168701171875,15.62495,1.04168701171875,9.375,1.04168701171875,9.375C1.04168701171875,8.799710000000001,1.50805701171875,8.33333,2.08335701171875,8.33333C2.08335701171875,8.33333,5.88462701171875,8.33333,5.88462701171875,8.33333C5.88462701171875,8.33333,10.80763701171875,4.394928,10.80763701171875,4.394928C11.12028701171875,4.1447869,11.54868701171875,4.09601768,11.90958701171875,4.269476C11.90958701171875,4.269476,11.90958701171875,4.269476,11.90958701171875,4.269476ZM10.41668701171875,7.37565C10.41668701171875,7.37565,6.90073701171875,10.188410000000001,6.90073701171875,10.188410000000001C6.71603701171875,10.33617,6.48654701171875,10.41667,6.25001701171875,10.41667C6.25001701171875,10.41667,3.12501701171875,10.41667,3.12501701171875,10.41667C3.12501701171875,10.41667,3.12501701171875,14.58335,3.12501701171875,14.58335C3.12501701171875,14.58335,6.25001701171875,14.58335,6.25001701171875,14.58335C6.48654701171875,14.58335,6.71603701171875,14.66385,6.90073701171875,14.81155C6.90073701171875,14.81155,10.41668701171875,17.62435,10.41668701171875,17.62435C10.41668701171875,17.62435,10.41668701171875,7.37565,10.41668701171875,7.37565C10.41668701171875,7.37565,10.41668701171875,7.37565,10.41668701171875,7.37565ZM15.45108701171875,8.07582C15.85788701171875,7.66908,16.51738701171875,7.66919,16.92418701171875,8.076039999999999C18.09588701171875,9.248090000000001,18.75408701171875,10.83752,18.75408701171875,12.49479C18.75408701171875,14.15205,18.09588701171875,15.74145,16.92418701171875,16.91355C16.51738701171875,17.32045,15.85788701171875,17.32055,15.45108701171875,16.91375C15.04418701171875,16.50695,15.04408701171875,15.84745,15.45088701171875,15.44065C16.23198701171875,14.65925,16.67078701171875,13.59965,16.67078701171875,12.49479C16.67078701171875,11.38994,16.23198701171875,10.33032,15.45088701171875,9.548960000000001C15.04408701171875,9.1421,15.04418701171875,8.48255,15.45108701171875,8.07582C15.45108701171875,8.07582,15.45108701171875,8.07582,15.45108701171875,8.07582Z" fill-rule="evenodd" fill="#FFFFFF" fill-opacity="1"/></g></g></svg>