<svg xmlns="http://www.w3.org/2000/svg" xmlns:xlink="http://www.w3.org/1999/xlink" fill="none" version="1.1" width="22" height="22" viewBox="0 0 22 22"><defs><clipPath id="master_svg0_807_02049/347_00552"><rect x="0" y="0" width="22" height="22" rx="0"/></clipPath></defs><g style="mix-blend-mode:passthrough" clip-path="url(#master_svg0_807_02049/347_00552)"><g style="mix-blend-mode:passthrough"><path d="M7.48729,2.24168809375C7.6573,1.98667209375,7.94351,1.83349609375,8.25,1.83349609375C8.25,1.83349609375,13.75,1.83349609375,13.75,1.83349609375C14.0565,1.83349609375,14.3427,1.98667209375,14.5128,2.24168809375C14.5128,2.24168809375,16.0739,4.58349609375,16.0739,4.58349609375C16.0739,4.58349609375,19.25,4.58349609375,19.25,4.58349609375C19.9794,4.58349609375,20.6788,4.8732260937500005,21.1945,5.38895609375C21.7102,5.90467609375,22,6.60414609375,22,7.33349609375C22,7.33349609375,22,17.41679609375,22,17.41679609375C22,18.14619609375,21.7102,18.84559609375,21.1945,19.36139609375C20.6788,19.87709609375,19.9794,20.16679609375,19.25,20.16679609375C19.25,20.16679609375,2.75,20.16679609375,2.75,20.16679609375C2.02065,20.16679609375,1.32118,19.87709609375,0.805457,19.36139609375C0.289732,18.84559609375,0,18.14619609375,0,17.41679609375C0,17.41679609375,0,7.33349609375,0,7.33349609375C0,6.60414609375,0.289732,5.90467609375,0.805457,5.38895609375C1.32118,4.8732260937500005,2.02065,4.58349609375,2.75,4.58349609375C2.75,4.58349609375,5.92608,4.58349609375,5.92608,4.58349609375C5.92608,4.58349609375,7.48729,2.24168809375,7.48729,2.24168809375C7.48729,2.24168809375,7.48729,2.24168809375,7.48729,2.24168809375ZM8.74058,3.66682609375C8.74058,3.66682609375,7.17938,6.00863609375,7.17938,6.00863609375C7.00937,6.26365609375,6.72315,6.41682609375,6.41667,6.41682609375C6.41667,6.41682609375,2.75,6.41682609375,2.75,6.41682609375C2.50688,6.41682609375,2.27373,6.51340609375,2.10182,6.68531609375C1.92991,6.85722609375,1.83333,7.09037609375,1.83333,7.33349609375C1.83333,7.33349609375,1.83333,17.41679609375,1.83333,17.41679609375C1.83333,17.65989609375,1.92991,17.89309609375,2.10182,18.06499609375C2.27373,18.23689609375,2.50688,18.33349609375,2.75,18.33349609375C2.75,18.33349609375,19.25,18.33349609375,19.25,18.33349609375C19.4931,18.33349609375,19.7263,18.23689609375,19.8982,18.06499609375C20.0701,17.89309609375,20.1667,17.65989609375,20.1667,17.41679609375C20.1667,17.41679609375,20.1667,7.33349609375,20.1667,7.33349609375C20.1667,7.09037609375,20.0701,6.85722609375,19.8982,6.68531609375C19.7263,6.51340609375,19.4931,6.41682609375,19.25,6.41682609375C19.25,6.41682609375,15.5833,6.41682609375,15.5833,6.41682609375C15.2768,6.41682609375,14.9906,6.26365609375,14.8206,6.00863609375C14.8206,6.00863609375,13.2594,3.66682609375,13.2594,3.66682609375C13.2594,3.66682609375,8.74058,3.66682609375,8.74058,3.66682609375C8.74058,3.66682609375,8.74058,3.66682609375,8.74058,3.66682609375ZM11,9.16682609375C9.48117,9.16682609375,8.25,10.39804609375,8.25,11.91679609375C8.25,13.43569609375,9.48117,14.66679609375,11,14.66679609375C12.5188,14.66679609375,13.75,13.43569609375,13.75,11.91679609375C13.75,10.39804609375,12.5188,9.16682609375,11,9.16682609375C11,9.16682609375,11,9.16682609375,11,9.16682609375ZM6.41667,11.91679609375C6.41667,9.38552609375,8.4687,7.33349609375,11,7.33349609375C13.5313,7.33349609375,15.5833,9.38552609375,15.5833,11.91679609375C15.5833,14.44809609375,13.5313,16.50019609375,11,16.50019609375C8.4687,16.50019609375,6.41667,14.44809609375,6.41667,11.91679609375C6.41667,11.91679609375,6.41667,11.91679609375,6.41667,11.91679609375Z" fill-rule="evenodd" fill="#000000" fill-opacity="1"/></g></g></svg>