<svg xmlns="http://www.w3.org/2000/svg" xmlns:xlink="http://www.w3.org/1999/xlink" fill="none" version="1.1" width="24" height="24" viewBox="0 0 24 24"><defs><clipPath id="master_svg0_503_01272"><rect x="0" y="0" width="24" height="24" rx="0"/></clipPath></defs><g style="mix-blend-mode:passthrough" clip-path="url(#master_svg0_503_01272)"><g style="mix-blend-mode:passthrough"><path d="M17,8C17,10.761420000000001,14.761420000000001,13,12,13C9.238579999999999,13,7,10.761420000000001,7,8C7,5.23858,9.238579999999999,3,12,3C14.761420000000001,3,17,5.23858,17,8Z" fill="#65DECF" fill-opacity="1"/></g><g style="mix-blend-mode:passthrough"><path d="M16.2426,12.2426Q18,10.48528,18,8Q18,5.5147200000000005,16.2426,3.7573600000000003Q14.48528,2,12,2Q9.51472,2,7.75736,3.7573600000000003Q6,5.5147200000000005,6,8Q6,10.48528,7.75736,12.2426Q9.51472,14,12,14Q14.48528,14,16.2426,12.2426ZM14.82843,5.17157Q16,6.34315,16,8Q16,9.65686,14.82843,10.82843Q13.65685,12,12,12Q10.34315,12,9.17157,10.82843Q8,9.65686,8,8Q8,6.34315,9.17157,5.17157Q10.34315,4,12,4Q13.65686,4,14.82843,5.17157Z" fill-rule="evenodd" fill="#65DECF" fill-opacity="1"/></g><g style="mix-blend-mode:passthrough"><path d="M4,21L20,21C20,18.79086,18.2091,17,16,17L8,17C5.79086,17,4,18.79086,4,21Z" fill="#65DECF" fill-opacity="1"/></g><g style="mix-blend-mode:passthrough"><path d="M4,22L20,22C20.5523,22,21,21.55229,21,21Q21,18.92893,19.5355,17.46447Q18.0711,16.000000476837,16,16.000000476837L8,16Q5.928929999999999,16.000000476837,4.46447,17.46447Q3,18.92893,3,21C3,21.55229,3.447715,22,4,22ZM18.838,20Q18.622700000000002,19.38008,18.121299999999998,18.87868Q17.2426,18,16,18L8,18Q6.75736,18,5.87868,18.87868Q5.37728,19.38008,5.161989999999999,20L18.838,20Z" fill-rule="evenodd" fill="#65DECF" fill-opacity="1"/></g><g style="mix-blend-mode:passthrough"><path d="M9.5,8L9.5,6L10.5,6L10.5,8L9.5,8ZM10.5,8Q10.5,8.04925,10.490393,8.09754Q10.480785000000001,8.14584,10.46194,8.19134Q10.443094,8.23684,10.415735,8.27778Q10.388375,8.31873,10.353553,8.35355Q10.318731,8.38838,10.277785,8.41573Q10.236839,8.44309,10.191342,8.46194Q10.145845,8.48078,10.0975451,8.49039Q10.0492457,8.5,10,8.5Q9.9507543,8.5,9.9024549,8.49039Q9.854155,8.48078,9.808658,8.46194Q9.763161,8.44309,9.722215,8.41573Q9.681269,8.38838,9.646447,8.35355Q9.611625,8.31873,9.584265,8.27779Q9.556906,8.23684,9.53806,8.19134Q9.519214999999999,8.14584,9.509607,8.09754Q9.5,8.04925,9.5,8Q9.5,7.95075,9.509607,7.90245Q9.519214999999999,7.85416,9.53806,7.80866Q9.556906,7.76316,9.584265,7.7222100000000005Q9.611625,7.68127,9.646447,7.64645Q9.681269,7.61162,9.722215,7.5842600000000004Q9.763161,7.55691,9.808658,7.53806Q9.854155,7.51921,9.9024549,7.50961Q9.9507543,7.5,10,7.5Q10.0492457,7.5,10.0975451,7.50961Q10.145845,7.51921,10.191342,7.53806Q10.236839,7.55691,10.277785,7.5842600000000004Q10.318731,7.61162,10.353553,7.64645Q10.388375,7.68127,10.415735,7.7222100000000005Q10.443094,7.76316,10.46194,7.80866Q10.480785000000001,7.85416,10.490393,7.90245Q10.5,7.95075,10.5,8ZM10.5,6Q10.5,6.0492457,10.490393,6.0975451Q10.480785000000001,6.145845,10.46194,6.191342Q10.443094,6.236839,10.415735,6.277785Q10.388375,6.318731,10.353553,6.353553Q10.318731,6.388375,10.277785,6.415735Q10.236839,6.443094,10.191342,6.46194Q10.145845,6.480785,10.0975451,6.490393Q10.0492457,6.5,10,6.5Q9.9507543,6.5,9.9024549,6.490393Q9.854155,6.480785,9.808658,6.46194Q9.763161,6.443094,9.722215,6.415735Q9.681269,6.388375,9.646447,6.353553Q9.611625,6.318731,9.584265,6.277785Q9.556906,6.236839,9.53806,6.191342Q9.519214999999999,6.145845,9.509607,6.0975451Q9.5,6.0492457,9.5,6Q9.5,5.9507543,9.509607,5.9024549Q9.519214999999999,5.854155,9.53806,5.808658Q9.556906,5.763161,9.584265,5.722215Q9.611625,5.681269,9.646447,5.646447Q9.681269,5.611625,9.722215,5.584265Q9.763161,5.556906,9.808658,5.53806Q9.854155,5.519215,9.9024549,5.509607Q9.9507543,5.5,10,5.5Q10.0492457,5.5,10.0975451,5.509607Q10.145845,5.519215,10.191342,5.53806Q10.236839,5.556906,10.277785,5.584265Q10.318731,5.611625,10.353553,5.646447Q10.388375,5.681269,10.415735,5.722215Q10.443094,5.763161,10.46194,5.808658Q10.480785000000001,5.854155,10.490393,5.9024549Q10.5,5.9507543,10.5,6Z" fill="#FFFFFF" fill-opacity="1"/></g><g style="mix-blend-mode:passthrough" transform="matrix(0.9999884963035583,0,0,0.9999884963035583,0.00016105175018310547,0.00006902217864990234)"><path d="M13.5,8L13.5,6L14.5,6L14.5,8L13.5,8ZM14.5,8Q14.5,8.04925,14.490393,8.09754Q14.480785000000001,8.14584,14.46194,8.19134Q14.443094,8.23684,14.415735,8.27778Q14.388375,8.31873,14.353553,8.35355Q14.318731,8.38838,14.277785,8.41573Q14.236839,8.44309,14.191342,8.46194Q14.145845,8.48078,14.0975451,8.49039Q14.0492457,8.5,14,8.5Q13.9507543,8.5,13.9024549,8.49039Q13.854155,8.48078,13.808658,8.46194Q13.763161,8.44309,13.722215,8.41573Q13.681269,8.38838,13.646447,8.35355Q13.611625,8.31873,13.584265,8.27779Q13.556906,8.23684,13.53806,8.19134Q13.519214999999999,8.14584,13.509607,8.09754Q13.5,8.04925,13.5,8Q13.5,7.95075,13.509607,7.90245Q13.519214999999999,7.85416,13.53806,7.80866Q13.556906,7.76316,13.584265,7.7222100000000005Q13.611625,7.68127,13.646447,7.64645Q13.681269,7.61162,13.722215,7.5842600000000004Q13.763161,7.55691,13.808658,7.53806Q13.854155,7.51921,13.9024549,7.50961Q13.9507543,7.5,14,7.5Q14.0492457,7.5,14.0975451,7.50961Q14.145845,7.51921,14.191342,7.53806Q14.236839,7.55691,14.277785,7.5842600000000004Q14.318731,7.61162,14.353553,7.64645Q14.388375,7.68127,14.415735,7.7222100000000005Q14.443094,7.76316,14.46194,7.80866Q14.480785000000001,7.85416,14.490393,7.90245Q14.5,7.95075,14.5,8ZM14.5,6Q14.5,6.0492457,14.490393,6.0975451Q14.480785000000001,6.145845,14.46194,6.191342Q14.443094,6.236839,14.415735,6.277785Q14.388375,6.318731,14.353553,6.353553Q14.318731,6.388375,14.277785,6.415735Q14.236839,6.443094,14.191342,6.46194Q14.145845,6.480785,14.0975451,6.490393Q14.0492457,6.5,14,6.5Q13.9507543,6.5,13.9024549,6.490393Q13.854155,6.480785,13.808658,6.46194Q13.763161,6.443094,13.722215,6.415735Q13.681269,6.388375,13.646447,6.353553Q13.611625,6.318731,13.584265,6.277785Q13.556906,6.236839,13.53806,6.191342Q13.519214999999999,6.145845,13.509607,6.0975451Q13.5,6.0492457,13.5,6Q13.5,5.9507543,13.509607,5.9024549Q13.519214999999999,5.854155,13.53806,5.808658Q13.556906,5.763161,13.584265,5.722215Q13.611625,5.681269,13.646447,5.646447Q13.681269,5.611625,13.722215,5.584265Q13.763161,5.556906,13.808658,5.53806Q13.854155,5.519215,13.9024549,5.509607Q13.9507543,5.5,14,5.5Q14.0492457,5.5,14.0975451,5.509607Q14.145845,5.519215,14.191342,5.53806Q14.236839,5.556906,14.277785,5.584265Q14.318731,5.611625,14.353553,5.646447Q14.388375,5.681269,14.415735,5.722215Q14.443094,5.763161,14.46194,5.808658Q14.480785000000001,5.854155,14.490393,5.9024549Q14.5,5.9507543,14.5,6Z" fill="#FFFFFF" fill-opacity="1"/></g></g></svg>