<svg xmlns="http://www.w3.org/2000/svg" xmlns:xlink="http://www.w3.org/1999/xlink" fill="none" version="1.1" width="24" height="24" viewBox="0 0 24 24"><defs><clipPath id="master_svg0_798_02050"><rect x="0" y="0" width="24" height="24" rx="0"/></clipPath></defs><g style="mix-blend-mode:passthrough" clip-path="url(#master_svg0_798_02050)"><g style="mix-blend-mode:passthrough"><path d="M16.2426,12.2426Q18,10.48528,18,8Q18,5.5147200000000005,16.2426,3.7573600000000003Q14.48528,2,12,2Q9.51472,2,7.75736,3.7573600000000003Q6,5.5147200000000005,6,8Q6,10.48528,7.75736,12.2426Q9.51472,14,12,14Q14.48528,14,16.2426,12.2426ZM14.82843,5.17157Q16,6.34315,16,8Q16,9.65686,14.82843,10.82843Q13.65685,12,12,12Q10.34315,12,9.17157,10.82843Q8,9.65686,8,8Q8,6.34315,9.17157,5.17157Q10.34315,4,12,4Q13.65686,4,14.82843,5.17157Z" fill-rule="evenodd" fill="#65DECF" fill-opacity="1"/></g><g style="mix-blend-mode:passthrough"><path d="M4,21L20,21C20,18.79086,18.2091,17,16,17L8,17C5.79086,17,4,18.79086,4,21Z" fill="#65DECF" fill-opacity="1"/></g><g style="mix-blend-mode:passthrough"><path d="M4,22L20,22C20.5523,22,21,21.55229,21,21Q21,18.92893,19.5355,17.46447Q18.0711,16.000000476837,16,16.000000476837L8,16Q5.928929999999999,16.000000476837,4.46447,17.46447Q3,18.92893,3,21C3,21.55229,3.447715,22,4,22ZM18.838,20Q18.622700000000002,19.38008,18.121299999999998,18.87868Q17.2426,18,16,18L8,18Q6.75736,18,5.87868,18.87868Q5.37728,19.38008,5.161989999999999,20L18.838,20Z" fill-rule="evenodd" fill="#65DECF" fill-opacity="1"/></g><g style="mix-blend-mode:passthrough"><path d="M17,8C17,10.761420000000001,14.761420000000001,13,12,13C9.238579999999999,13,7,10.761420000000001,7,8C7,5.23858,9.238579999999999,3,12,3C14.761420000000001,3,17,5.23858,17,8ZM10,5.5Q10.04925,5.5,10.09754,5.50961Q10.14584,5.51921,10.19134,5.53806Q10.23684,5.55691,10.27778,5.5842600000000004Q10.31873,5.61162,10.35355,5.64645Q10.38837,5.68127,10.41573,5.7222100000000005Q10.44309,5.76316,10.46194,5.80866Q10.48078,5.854150000000001,10.49039,5.90245Q10.5,5.95075,10.5,6L10.5,8Q10.5,8.04925,10.49039,8.09755Q10.48078,8.14584,10.46194,8.19134Q10.44309,8.23684,10.41573,8.27778Q10.38837,8.31873,10.35355,8.35355Q10.31873,8.38837,10.27778,8.41573Q10.23684,8.44309,10.19134,8.46194Q10.14584,8.48078,10.09754,8.49039Q10.04925,8.5,10,8.5Q9.95075,8.5,9.90245,8.49039Q9.85415,8.48078,9.80866,8.46194Q9.76316,8.44309,9.72221,8.41573Q9.68127,8.38837,9.64645,8.35355Q9.61162,8.31873,9.58426,8.27778Q9.55691,8.23684,9.53806,8.19134Q9.519210000000001,8.14584,9.50961,8.09755Q9.5,8.04925,9.5,8L9.5,6Q9.5,5.95075,9.50961,5.90245Q9.519210000000001,5.854150000000001,9.53806,5.80866Q9.55691,5.76316,9.58426,5.7222100000000005Q9.61162,5.68127,9.64645,5.64645Q9.68127,5.61162,9.72221,5.5842600000000004Q9.76316,5.55691,9.80866,5.53806Q9.85415,5.51921,9.90245,5.50961Q9.95075,5.5,10,5.5ZM14.49999,6Q14.49999,5.95075,14.49039,5.90246Q14.48078,5.85416,14.461929999999999,5.80866Q14.44309,5.76316,14.41573,5.72222Q14.38837,5.68127,14.35355,5.64645Q14.31873,5.61163,14.27778,5.58427Q14.23684,5.55691,14.19134,5.538069999999999Q14.14584,5.51922,14.09754,5.50961Q14.04925,5.50001,14,5.50001Q13.95075,5.50001,13.90246,5.50961Q13.85416,5.51922,13.80866,5.538069999999999Q13.76316,5.55691,13.72222,5.58427Q13.68127,5.61163,13.64645,5.64645Q13.61163,5.68127,13.58427,5.72222Q13.55691,5.76316,13.53806,5.80866Q13.51922,5.85416,13.50961,5.90246Q13.50001,5.95075,13.50001,6L13.50001,7.99998Q13.50001,8.04922,13.50961,8.09752Q13.51922,8.14582,13.53806,8.191320000000001Q13.55691,8.23681,13.58427,8.27776Q13.61163,8.3187,13.64645,8.35353Q13.68127,8.388349999999999,13.72222,8.41571Q13.76316,8.443069999999999,13.80866,8.46191Q13.85416,8.48076,13.90246,8.490359999999999Q13.95075,8.499970000000001,14,8.499970000000001Q14.04925,8.499970000000001,14.09754,8.490359999999999Q14.14584,8.48076,14.19134,8.46191Q14.23684,8.443069999999999,14.27778,8.41571Q14.31873,8.388349999999999,14.35355,8.35353Q14.38837,8.3187,14.41573,8.27776Q14.44309,8.23681,14.461929999999999,8.191320000000001Q14.48078,8.14582,14.49039,8.09752Q14.49999,8.04922,14.49999,7.99998L14.49999,6Z" fill-rule="evenodd" fill="#65DECF" fill-opacity="1"/></g></g></svg>