<svg xmlns="http://www.w3.org/2000/svg" xmlns:xlink="http://www.w3.org/1999/xlink" fill="none" version="1.1" width="16" height="16" viewBox="0 0 16 16"><defs><clipPath id="master_svg0_843_04855"><rect x="16" y="16" width="16" height="16" rx="0"/></clipPath></defs><g style="mix-blend-mode:passthrough" transform="matrix(0,-1,-1,0,32,32)" clip-path="url(#master_svg0_843_04855)"><g style="mix-blend-mode:passthrough"><path d="M23.528511953125,21.52857498828125C23.788861953125,21.26822558828125,24.210971953125,21.26822558828125,24.471321953125,21.52857498828125C24.471321953125,21.52857498828125,28.471321953125,25.52857298828125,28.471321953125,25.52857298828125C28.731651953125002,25.78892298828125,28.731651953125002,26.21103298828125,28.471321953125,26.47138298828125C28.210981953125,26.73173298828125,27.788851953125,26.73173298828125,27.528521953125,26.47138298828125C27.528521953125,26.47138298828125,23.999921953125,22.94278298828125,23.999921953125,22.94278298828125C23.999921953125,22.94278298828125,20.471321953125,26.47138298828125,20.471321953125,26.47138298828125C20.210971953125,26.73173298828125,19.788862953125,26.73173298828125,19.528513953125,26.47138298828125C19.268164553125,26.21103298828125,19.268164553125,25.78892298828125,19.528513953125,25.52857298828125C19.528513953125,25.52857298828125,23.528511953125,21.52857498828125,23.528511953125,21.52857498828125C23.528511953125,21.52857498828125,23.528511953125,21.52857498828125,23.528511953125,21.52857498828125Z" fill-rule="evenodd" fill="#9C9C9C" fill-opacity="1"/></g></g></svg>