<svg xmlns="http://www.w3.org/2000/svg" xmlns:xlink="http://www.w3.org/1999/xlink" fill="none" version="1.1" width="20" height="20" viewBox="0 0 20 20"><defs><clipPath id="master_svg0_160_8765/37_8768/37_8329"><rect x="0" y="0" width="20" height="20" rx="0"/></clipPath></defs><g style="mix-blend-mode:passthrough" clip-path="url(#master_svg0_160_8765/37_8768/37_8329)"><g style="mix-blend-mode:passthrough"><path d="M3.232233,1.56572909375C3.70107,1.09688809375,4.3369599999999995,0.83349609375,5,0.83349609375C5,0.83349609375,11.66667,0.83349609375,11.66667,0.83349609375C11.88767,0.83349609375,12.09967,0.92129359375,12.25592,1.0775730937499999C12.25592,1.0775730937499999,17.2559,6.07756609375,17.2559,6.07756609375C17.4122,6.23385609375,17.5,6.44581609375,17.5,6.66682609375C17.5,6.66682609375,17.5,16.66679609375,17.5,16.66679609375C17.5,17.32989609375,17.2366,17.96569609375,16.767699999999998,18.43459609375C16.2989,18.90339609375,15.6631,19.16679609375,15,19.16679609375C15,19.16679609375,5,19.16679609375,5,19.16679609375C4.3369599999999995,19.16679609375,3.70107,18.90339609375,3.232233,18.43459609375C2.763392,17.96569609375,2.5,17.32989609375,2.5,16.66679609375C2.5,16.66679609375,2.5,3.33349609375,2.5,3.33349609375C2.5,2.67045609375,2.763392,2.03456609375,3.232233,1.56572909375C3.232233,1.56572909375,3.232233,1.56572909375,3.232233,1.56572909375ZM5,2.50016609375C4.77898,2.50016609375,4.567019999999999,2.58796609375,4.4107400000000005,2.74423609375C4.2544699999999995,2.90051609375,4.16667,3.11247609375,4.16667,3.33349609375C4.16667,3.33349609375,4.16667,16.66679609375,4.16667,16.66679609375C4.16667,16.88779609375,4.2544699999999995,17.09979609375,4.4107400000000005,17.25609609375C4.567019999999999,17.41229609375,4.77898,17.50019609375,5,17.50019609375C5,17.50019609375,15,17.50019609375,15,17.50019609375C15.221,17.50019609375,15.433,17.41229609375,15.5892,17.25609609375C15.7455,17.09979609375,15.8333,16.88779609375,15.8333,16.66679609375C15.8333,16.66679609375,15.8333,7.50016609375,15.8333,7.50016609375C15.8333,7.50016609375,11.66667,7.50016609375,11.66667,7.50016609375C11.20642,7.50016609375,10.83333,7.12706609375,10.83333,6.66682609375C10.83333,6.66682609375,10.83333,2.50016609375,10.83333,2.50016609375C10.83333,2.50016609375,5,2.50016609375,5,2.50016609375C5,2.50016609375,5,2.50016609375,5,2.50016609375ZM12.5,3.67866609375C12.5,3.67866609375,14.6548,5.83349609375,14.6548,5.83349609375C14.6548,5.83349609375,12.5,5.83349609375,12.5,5.83349609375C12.5,5.83349609375,12.5,3.67866609375,12.5,3.67866609375C12.5,3.67866609375,12.5,3.67866609375,12.5,3.67866609375ZM5.83333,7.50016609375C5.83333,7.03992609375,6.20643,6.66682609375,6.66667,6.66682609375C6.66667,6.66682609375,8.33333,6.66682609375,8.33333,6.66682609375C8.793569999999999,6.66682609375,9.16667,7.03992609375,9.16667,7.50016609375C9.16667,7.96039609375,8.793569999999999,8.33349609375,8.33333,8.33349609375C8.33333,8.33349609375,6.66667,8.33349609375,6.66667,8.33349609375C6.20643,8.33349609375,5.83333,7.96039609375,5.83333,7.50016609375C5.83333,7.50016609375,5.83333,7.50016609375,5.83333,7.50016609375ZM5.83333,10.83349609375C5.83333,10.37324609375,6.20643,10.00016609375,6.66667,10.00016609375C6.66667,10.00016609375,13.3333,10.00016609375,13.3333,10.00016609375C13.7936,10.00016609375,14.1667,10.37324609375,14.1667,10.83349609375C14.1667,11.29369609375,13.7936,11.66679609375,13.3333,11.66679609375C13.3333,11.66679609375,6.66667,11.66679609375,6.66667,11.66679609375C6.20643,11.66679609375,5.83333,11.29369609375,5.83333,10.83349609375C5.83333,10.83349609375,5.83333,10.83349609375,5.83333,10.83349609375ZM5.83333,14.16679609375C5.83333,13.70659609375,6.20643,13.33349609375,6.66667,13.33349609375C6.66667,13.33349609375,13.3333,13.33349609375,13.3333,13.33349609375C13.7936,13.33349609375,14.1667,13.70659609375,14.1667,14.16679609375C14.1667,14.62709609375,13.7936,15.00019609375,13.3333,15.00019609375C13.3333,15.00019609375,6.66667,15.00019609375,6.66667,15.00019609375C6.20643,15.00019609375,5.83333,14.62709609375,5.83333,14.16679609375C5.83333,14.16679609375,5.83333,14.16679609375,5.83333,14.16679609375Z" fill-rule="evenodd" fill="#000000" fill-opacity="1"/></g></g></svg>