<svg xmlns="http://www.w3.org/2000/svg" xmlns:xlink="http://www.w3.org/1999/xlink" fill="none" version="1.1" width="22" height="22" viewBox="0 0 22 22"><defs><clipPath id="master_svg0_807_02039/347_00552"><rect x="0" y="0" width="22" height="22" rx="0"/></clipPath></defs><g style="mix-blend-mode:passthrough" clip-path="url(#master_svg0_807_02039/347_00552)"><g style="mix-blend-mode:passthrough"><path d="M4.58349609375,3.6663378125C4.07723609375,3.6663378125,3.66682609375,4.0767478125,3.66682609375,4.5830078125C3.66682609375,4.5830078125,3.66682609375,17.4163078125,3.66682609375,17.4163078125C3.66682609375,17.809407812499998,3.91423609375,18.1447078125,4.26182609375,18.2750078125C4.26182609375,18.2750078125,14.01869609375,8.5181578125,14.01869609375,8.5181578125C14.37659609375,8.160177812499999,14.95699609375,8.160177812499999,15.31499609375,8.5181578125C15.31499609375,8.5181578125,18.33349609375,11.5366578125,18.33349609375,11.5366578125C18.33349609375,11.5366578125,18.33349609375,4.5830078125,18.33349609375,4.5830078125C18.33349609375,4.076737812499999,17.92309609375,3.6663378125,17.41679609375,3.6663378125C17.41679609375,3.6663378125,4.58349609375,3.6663378125,4.58349609375,3.6663378125C4.58349609375,3.6663378125,4.58349609375,3.6663378125,4.58349609375,3.6663378125ZM20.16679609375,13.7487078125C20.16679609375,13.7487078125,20.16679609375,4.5830078125,20.16679609375,4.5830078125C20.16679609375,3.0642278125,18.93569609375,1.8330078125,17.41679609375,1.8330078125C17.41679609375,1.8330078125,4.58349609375,1.8330078125,4.58349609375,1.8330078125C3.06471609375,1.8330078125,1.83349609375,3.0642278125,1.83349609375,4.5830078125C1.83349609375,4.5830078125,1.83349609375,17.4163078125,1.83349609375,17.4163078125C1.83349609375,18.9352078125,3.06471609375,20.1663078125,4.58349609375,20.1663078125C4.58349609375,20.1663078125,17.41679609375,20.1663078125,17.41679609375,20.1663078125C18.93569609375,20.1663078125,20.16679609375,18.9352078125,20.16679609375,17.4163078125C20.16679609375,17.4163078125,20.16679609375,13.7506078125,20.16679609375,13.7506078125C20.16679609375,13.7499078125,20.16679609375,13.7494078125,20.16679609375,13.7487078125C20.16679609375,13.7487078125,20.16679609375,13.7487078125,20.16679609375,13.7487078125ZM18.33349609375,14.1293078125C18.33349609375,14.1293078125,14.66679609375,10.4626978125,14.66679609375,10.4626978125C14.66679609375,10.4626978125,6.79652609375,18.3330078125,6.79652609375,18.3330078125C6.79652609375,18.3330078125,17.41679609375,18.3330078125,17.41679609375,18.3330078125C17.92309609375,18.3330078125,18.33349609375,17.9226078125,18.33349609375,17.4163078125C18.33349609375,17.4163078125,18.33349609375,14.1293078125,18.33349609375,14.1293078125C18.33349609375,14.1293078125,18.33349609375,14.1293078125,18.33349609375,14.1293078125ZM7.79182609375,7.3330078125C7.53869609375,7.3330078125,7.33349609375,7.5382078125,7.33349609375,7.7913378125C7.33349609375,8.044467812499999,7.53869609375,8.2496778125,7.79182609375,8.2496778125C8.044956093749999,8.2496778125,8.25016609375,8.044467812499999,8.25016609375,7.7913378125C8.25016609375,7.5382078125,8.044956093749999,7.3330078125,7.79182609375,7.3330078125C7.79182609375,7.3330078125,7.79182609375,7.3330078125,7.79182609375,7.3330078125ZM5.50016609375,7.7913378125C5.50016609375,6.5256878125,6.52617609375,5.4996778125,7.79182609375,5.4996778125C9.057476093750001,5.4996778125,10.08349609375,6.5256878125,10.08349609375,7.7913378125C10.08349609375,9.056987812500001,9.057476093750001,10.0830078125,7.79182609375,10.0830078125C6.52617609375,10.0830078125,5.50016609375,9.056987812500001,5.50016609375,7.7913378125C5.50016609375,7.7913378125,5.50016609375,7.7913378125,5.50016609375,7.7913378125Z" fill-rule="evenodd" fill="#FFFFFF" fill-opacity="1"/></g></g></svg>