<svg xmlns="http://www.w3.org/2000/svg" xmlns:xlink="http://www.w3.org/1999/xlink" fill="none" version="1.1" width="24" height="24" viewBox="0 0 24 24"><defs><clipPath id="master_svg0_135_5414/135_5198"><rect x="0" y="0" width="24" height="24" rx="0"/></clipPath></defs><g style="mix-blend-mode:passthrough" clip-path="url(#master_svg0_135_5414/135_5198)"><g style="mix-blend-mode:passthrough"><path d="M12,1C5.92487,1,1,5.92487,1,12C1,18.0751,5.92487,23,12,23C18.0751,23,23,18.0751,23,12C23,5.92487,18.0751,1,12,1ZM3,12C3,7.02944,7.02944,3,12,3C16.970599999999997,3,21,7.02944,21,12C21,16.970599999999997,16.970599999999997,21,12,21C7.02944,21,3,16.970599999999997,3,12ZM12.2581,8.02432C11.7926,7.94447,11.3138,8.03195,10.90664,8.271270000000001C10.49944,8.510580000000001,10.19007,8.886289999999999,10.03333,9.33184C9.85006,9.85283,9.27915,10.12661,8.75816,9.94333C8.237169999999999,9.76006,7.96339,9.18915,8.14667,8.66816C8.460139999999999,7.77705,9.07887,7.02563,9.89327,6.547C10.70768,6.06837,11.6652,5.89341,12.5962,6.05311C13.5273,6.2128,14.3718,6.69686,14.9801,7.41953C15.5883,8.142050000000001,15.9213,9.05648,15.92,10.00091C15.9195,11.5313,14.7849,12.5419,13.9747,13.0821C13.5391,13.3725,13.1106,13.586,12.7949,13.7263C12.6356,13.7971,12.5015,13.8508,12.4049,13.8876C12.3565,13.9061,12.3173,13.9203,12.2887,13.9305L12.2362,13.9487C11.7123,14.1233,11.146,13.8402,10.97132,13.3162C10.79673,12.7925,11.0796,12.2263,11.6032,12.0515L11.6187,12.0461C11.6341,12.0406,11.6593,12.0314,11.6929,12.0186C11.7603,11.9929,11.8606,11.9529,11.9826,11.8987C12.2294,11.789,12.5509,11.6275,12.8653,11.4179C13.5549,10.95822,13.92,10.46913,13.92,10L13.92,9.99851C13.9207,9.52619,13.7542,9.06886,13.4501,8.70753C13.1459,8.34619,12.7236,8.10417,12.2581,8.02432ZM12,16C11.4477,16,11,16.447699999999998,11,17C11,17.5523,11.4477,18,12,18L12.01,18C12.5623,18,13.01,17.5523,13.01,17C13.01,16.447699999999998,12.5623,16,12.01,16L12,16Z" fill-rule="evenodd" fill="#000000" fill-opacity="1"/></g></g></svg>