<svg xmlns="http://www.w3.org/2000/svg" xmlns:xlink="http://www.w3.org/1999/xlink" fill="none" version="1.1" width="20" height="20" viewBox="0 0 20 20"><defs><clipPath id="master_svg0_849_05563"><rect x="0" y="0" width="20" height="20" rx="0"/></clipPath></defs><g style="mix-blend-mode:passthrough" clip-path="url(#master_svg0_849_05563)"><g style="mix-blend-mode:passthrough"><path d="M10.0000440234375,0.83349609375C10.3172040234375,0.83349609375,10.6069540234375,1.01355609375,10.7472940234375,1.29797609375C10.7472940234375,1.29797609375,13.1285740234375,6.12221609375,13.1285740234375,6.12221609375C13.1285740234375,6.12221609375,18.4539740234375,6.90058609375,18.4539740234375,6.90058609375C18.7676740234375,6.94645609375,19.0282740234375,7.16646609375,19.1260740234375,7.46813609375C19.2239740234375,7.76981609375,19.1420740234375,8.10085609375,18.9148740234375,8.32212609375C18.9148740234375,8.32212609375,15.0621740234375,12.07469609375,15.0621740234375,12.07469609375C15.0621740234375,12.07469609375,15.9713740234375,17.37599609375,15.9713740234375,17.37599609375C16.0250740234375,17.68859609375,15.8964740234375,18.00459609375,15.6398740234375,18.19109609375C15.3831740234375,18.37749609375,15.0429740234375,18.40209609375,14.7621740234375,18.25439609375C14.7621740234375,18.25439609375,10.0000440234375,15.74999609375,10.0000440234375,15.74999609375C10.0000440234375,15.74999609375,5.2379440234375,18.25439609375,5.2379440234375,18.25439609375C4.9571740234375,18.40209609375,4.6169340234375,18.37749609375,4.3602940234375005,18.19109609375C4.1036440234375,18.00459609375,3.9750940234375,17.68859609375,4.0287240234374995,17.37599609375C4.0287240234374995,17.37599609375,4.9379640234375,12.07469609375,4.9379640234375,12.07469609375C4.9379640234375,12.07469609375,1.0852870234375,8.32212609375,1.0852870234375,8.32212609375C0.8581058234375,8.10085609375,0.7762118234375,7.76981609375,0.8740266234375,7.46813609375C0.9718410234375,7.16646609375,1.2324080234374999,6.94645609375,1.5462080234375,6.90058609375C1.5462080234375,6.90058609375,6.8715140234375,6.12221609375,6.8715140234375,6.12221609375C6.8715140234375,6.12221609375,9.2527940234375,1.29797609375,9.2527940234375,1.29797609375C9.3932040234375,1.01355609375,9.6828740234375,0.83349609375,10.0000440234375,0.83349609375C10.0000440234375,0.83349609375,10.0000440234375,0.83349609375,10.0000440234375,0.83349609375Z" fill="#FFD60A" fill-opacity="1"/></g></g></svg>