<svg xmlns="http://www.w3.org/2000/svg" xmlns:xlink="http://www.w3.org/1999/xlink" fill="none" version="1.1" width="16" height="16" viewBox="0 0 16 16"><defs><clipPath id="master_svg0_27_3043/27_1637"><rect x="0" y="0" width="16" height="16" rx="0"/></clipPath></defs><g style="mix-blend-mode:passthrough" clip-path="url(#master_svg0_27_3043/27_1637)"><g style="mix-blend-mode:passthrough"><path d="M0.7285563765625,1.719333953125C0.8377949765625,1.483890953125,1.0737509765625,1.333251953125,1.3332989765624998,1.333251953125C1.3332989765624998,1.333251953125,14.6666259765625,1.333251953125,14.6666259765625,1.333251953125C14.9261259765625,1.333251953125,15.1621259765625,1.483890953125,15.2713259765625,1.719333953125C15.3806259765625,1.954776953125,15.3433259765625,2.232218953125,15.1757259765625,2.430401953125C15.1757259765625,2.430401953125,9.9999559765625,8.550651953125,9.9999559765625,8.550651953125C9.9999559765625,8.550651953125,9.9999559765625,13.999951953125,9.9999559765625,13.999951953125C9.9999559765625,14.230951953125,9.8803559765625,14.445551953125,9.6837559765625,14.567051953125C9.4872259765625,14.688551953125,9.2418259765625,14.699551953125,9.0351559765625,14.596151953125C9.0351559765625,14.596151953125,6.3684959765625,13.262851953125,6.3684959765625,13.262851953125C6.1426359765625,13.149951953125,5.9999659765625,12.919151953125,5.9999659765625,12.666551953125C5.9999659765625,12.666551953125,5.9999659765625,8.550651953125,5.9999659765625,8.550651953125C5.9999659765625,8.550651953125,0.8242549765625,2.430401953125,0.8242549765625,2.430401953125C0.6566565765625,2.232218953125,0.6193174765625,1.954776953125,0.7285563765625,1.719333953125C0.7285563765625,1.719333953125,0.7285563765625,1.719333953125,0.7285563765625,1.719333953125ZM2.7701759765625,2.666581953125C2.7701759765625,2.666581953125,7.1756759765625,7.876101953125,7.1756759765625,7.876101953125C7.2774559765625,7.996451953125,7.3332959765625,8.148981953125,7.3332959765625,8.306581953125C7.3332959765625,8.306581953125,7.3332959765625,12.254551953125,7.3332959765625,12.254551953125C7.3332959765625,12.254551953125,8.6666259765625,12.921251953125,8.6666259765625,12.921251953125C8.6666259765625,12.921251953125,8.6666259765625,8.306581953125,8.6666259765625,8.306581953125C8.6666259765625,8.148981953125,8.7224959765625,7.996451953125,8.8242259765625,7.876101953125C8.8242259765625,7.876101953125,13.2297259765625,2.666581953125,13.2297259765625,2.666581953125C13.2297259765625,2.666581953125,2.7701759765625,2.666581953125,2.7701759765625,2.666581953125C2.7701759765625,2.666581953125,2.7701759765625,2.666581953125,2.7701759765625,2.666581953125Z" fill-rule="evenodd" fill="#000000" fill-opacity="1"/></g></g></svg>