<svg xmlns="http://www.w3.org/2000/svg" xmlns:xlink="http://www.w3.org/1999/xlink" fill="none" version="1.1" width="48" height="48" viewBox="0 0 48 48"><defs><clipPath id="master_svg0_135_09299/135_09261"><rect x="12" y="12" width="24" height="24" rx="0"/></clipPath></defs><g style="mix-blend-mode:passthrough"><g style="mix-blend-mode:passthrough" clip-path="url(#master_svg0_135_09299/135_09261)"><g style="mix-blend-mode:passthrough"><path d="M14,18C14,17.447715,14.447715,17,15,17C15,17,15.01,17,15.01,17C15.56228,17,16.009999999999998,17.447715,16.009999999999998,18C16.009999999999998,18.55228,15.56228,19,15.01,19C15.01,19,15,19,15,19C14.447715,19,14,18.55228,14,18C14,18,14,18,14,18ZM19,18C19,17.447715,19.44772,17,20,17C20,17,33,17,33,17C33.5523,17,34,17.447715,34,18C34,18.55228,33.5523,19,33,19C33,19,20,19,20,19C19.44772,19,19,18.55228,19,18C19,18,19,18,19,18ZM14,24C14,23.44772,14.447715,23,15,23C15,23,15.01,23,15.01,23C15.56228,23,16.009999999999998,23.44772,16.009999999999998,24C16.009999999999998,24.55228,15.56228,25,15.01,25C15.01,25,15,25,15,25C14.447715,25,14,24.55228,14,24C14,24,14,24,14,24ZM19,24C19,23.44772,19.44772,23,20,23C20,23,33,23,33,23C33.5523,23,34,23.44772,34,24C34,24.55228,33.5523,25,33,25C33,25,20,25,20,25C19.44772,25,19,24.55228,19,24C19,24,19,24,19,24ZM14,30C14,29.447699999999998,14.447715,29,15,29C15,29,15.01,29,15.01,29C15.56228,29,16.009999999999998,29.447699999999998,16.009999999999998,30C16.009999999999998,30.552300000000002,15.56228,31,15.01,31C15.01,31,15,31,15,31C14.447715,31,14,30.552300000000002,14,30C14,30,14,30,14,30ZM19,30C19,29.447699999999998,19.44772,29,20,29C20,29,33,29,33,29C33.5523,29,34,29.447699999999998,34,30C34,30.552300000000002,33.5523,31,33,31C33,31,20,31,20,31C19.44772,31,19,30.552300000000002,19,30C19,30,19,30,19,30Z" fill-rule="evenodd" fill="#000000" fill-opacity="1"/></g></g></g></svg>