<svg xmlns="http://www.w3.org/2000/svg" xmlns:xlink="http://www.w3.org/1999/xlink" fill="none" version="1.1" width="24" height="24" viewBox="0 0 24 24"><defs><clipPath id="master_svg0_135_5779/135_5198"><rect x="0" y="0" width="24" height="24" rx="0"/></clipPath></defs><g style="mix-blend-mode:passthrough" clip-path="url(#master_svg0_135_5779/135_5198)"><g style="mix-blend-mode:passthrough"><path d="M7,3C7,1.89543,7.89543,1,9,1C9,1,15,1,15,1C16.104599999999998,1,17,1.89543,17,3C17,3,18,3,18,3C18.7956,3,19.5587,3.31607,20.1213,3.87868C20.6839,4.44129,21,5.20435,21,6C21,6,21,20,21,20C21,20.7957,20.6839,21.5587,20.1213,22.1213C19.5587,22.6839,18.7957,23,18,23C18,23,6,23,6,23C5.20435,23,4.44129,22.6839,3.87868,22.1213C3.31607,21.5587,3,20.7957,3,20C3,20,3,6,3,6C3,5.20435,3.31607,4.44129,3.87868,3.87868C4.44129,3.31607,5.20435,3,6,3C6,3,7,3,7,3C7,3,7,3,7,3ZM7,5C7,5,6,5,6,5C5.734780000000001,5,5.48043,5.10536,5.29289,5.29289C5.10536,5.48043,5,5.73478,5,6C5,6,5,20,5,20C5,20.2652,5.10536,20.5196,5.29289,20.7071C5.48043,20.8946,5.734780000000001,21,6,21C6,21,18,21,18,21C18.2652,21,18.5196,20.8946,18.7071,20.7071C18.8946,20.5196,19,20.2652,19,20C19,20,19,6,19,6C19,5.73478,18.8946,5.48043,18.7071,5.29289C18.5196,5.10536,18.2652,5,18,5C18,5,17,5,17,5C17,6.10457,16.104599999999998,7,15,7C15,7,9,7,9,7C7.89543,7,7,6.10457,7,5C7,5,7,5,7,5ZM15,5C15,5,9,5,9,5C9,5,9,3,9,3C9,3,15,3,15,3C15,3,15,5,15,5C15,5,15,5,15,5Z" fill-rule="evenodd" fill="#000000" fill-opacity="1"/></g></g></svg>