<svg xmlns="http://www.w3.org/2000/svg" xmlns:xlink="http://www.w3.org/1999/xlink" fill="none" version="1.1" width="48" height="48" viewBox="0 0 48 48"><defs><clipPath id="master_svg0_597_60890"><rect x="12" y="12" width="24" height="24" rx="0"/></clipPath></defs><g style="mix-blend-mode:passthrough"><g style="mix-blend-mode:passthrough" clip-path="url(#master_svg0_597_60890)"><g style="mix-blend-mode:passthrough"><path d="M21.95868,35.121300000000005C22.5213,35.6839,23.284399999999998,36,24.08,36L24.083,36C24.8786,36,25.6417,35.6839,26.2043,35.121300000000005C26.7669,34.5587,27.083,33.7956,27.083,33L27.083,32.83C27.0835,32.703199999999995,27.121000000000002,32.5793,27.191000000000003,32.473600000000005C27.2611,32.3679,27.3604,32.2849,27.477,32.235L27.487000000000002,32.235C27.6052,32.1828,27.7362,32.167100000000005,27.8634,32.1897C27.9905,32.2123,28.1081,32.2723,28.201,32.361999999999995L28.256,32.417C28.5347,32.6957,28.8655,32.916799999999995,29.2296,33.0677C29.5937,33.218599999999995,29.984,33.2963,30.3781,33.2963C30.7723,33.2964,31.1626,33.2188,31.5267,33.068C31.8909,32.9172,32.2218,32.696200000000005,32.5005,32.417500000000004C32.7792,32.1388,33.000299999999996,31.808,33.1512,31.4439C33.302099999999996,31.0798,33.3798,30.6895,33.3798,30.2954C33.3799,29.9012,33.3023,29.5109,33.1515,29.1468C33.000699999999995,28.7826,32.7797,28.4517,32.501000000000005,28.173L32.446,28.118C32.356300000000005,28.0251,32.2963,27.9075,32.273700000000005,27.7804C32.2511,27.6532,32.2668,27.522199999999998,32.319,27.404L32.319,27.394C32.368700000000004,27.278100000000002,32.451,27.1791,32.5559,27.109099999999998C32.6609,27.0392,32.7839,27.0013,32.91,27L33,27C33.7956,27,34.5587,26.6839,35.121300000000005,26.121299999999998C35.6839,25.5587,36,24.7956,36,24C36,23.2044,35.6839,22.4413,35.121300000000005,21.87868C34.5587,21.31607,33.7956,21,33,21L32.834,21C32.7282,20.99932,32.6242,20.97282,32.5309,20.922800000000002C32.4377,20.87278,32.3581,20.80077,32.299,20.713C32.2847,20.64427,32.2633,20.57724,32.235,20.512999999999998C32.1828,20.394840000000002,32.167100000000005,20.26381,32.1897,20.13664C32.2123,20.00947,32.2723,19.89192,32.361999999999995,19.799L32.417,19.744C32.6957,19.46533,32.916799999999995,19.1345,33.0677,18.77038C33.218599999999995,18.40626,33.2963,18.015990000000002,33.2963,17.621850000000002C33.2964,17.227719999999998,33.2188,16.83743,33.068,16.47327C32.9172,16.10912,32.696200000000005,15.77823,32.417500000000004,15.4995C32.1388,15.22077,31.808,14.99966,31.4439,14.84878C31.0798,14.69791,30.6895,14.62023,30.2954,14.620190000000001C29.9012,14.62014,29.5109,14.69772,29.1468,14.848510000000001C28.7826,14.9993,28.4517,15.22034,28.173,15.499L28.118,15.554C28.0251,15.64371,27.9075,15.703710000000001,27.7804,15.72633C27.6532,15.74895,27.522199999999998,15.73317,27.404,15.681000000000001L27.394,15.681000000000001C27.278100000000002,15.63133,27.1791,15.549009999999999,27.109099999999998,15.44408C27.0392,15.33914,27.0013,15.21611,27,15.09L27,15C27,14.20435,26.6839,13.44129,26.121299999999998,12.87868C25.5587,12.31607,24.7956,12,24,12C23.2044,12,22.4413,12.31607,21.87868,12.87868C21.31607,13.44129,21,14.20435,21,15L21,15.166C20.999650000000003,15.27153,20.97361,15.37539,20.924129999999998,15.4686C20.87464,15.56182,20.80321,15.64158,20.716,15.701C20.64727,15.71526,20.58024,15.73671,20.516,15.765C20.397840000000002,15.81717,20.26681,15.83295,20.13964,15.81033C20.01247,15.78771,19.89493,15.72772,19.802,15.638L19.747,15.583C19.18421,15.01981,18.420749999999998,14.70326,17.62456,14.70298C16.82838,14.7027,16.06469,15.01871,15.5015,15.5815C14.93831,16.144289999999998,14.62176,16.90775,14.62148,17.70394C14.6212,18.50012,14.93721,19.26381,15.5,19.826999999999998L15.559000000000001,19.881C15.64872,19.97393,15.70871,20.09147,15.73133,20.21864C15.75395,20.34581,15.73817,20.47684,15.686,20.595C15.67733,20.614330000000002,15.66933,20.634,15.661999999999999,20.654C15.61747,20.77496,15.537980000000001,20.87995,15.43364,20.95563C15.3293,21.0313,15.20481,21.07425,15.076,21.079L15,21.079C14.20435,21.079,13.44129,21.39507,12.87868,21.95768C12.31607,22.5203,12,23.2834,12,24.079C12,24.8747,12.31607,25.637700000000002,12.87868,26.2003C13.44129,26.762900000000002,14.20435,27.079,15,27.079L15.174,27.079C15.3008,27.0795,15.42468,27.117,15.53041,27.186999999999998C15.63613,27.2571,15.719059999999999,27.3564,15.769,27.473L15.769,27.483C15.82117,27.6012,15.83695,27.7322,15.81433,27.8594C15.79171,27.9865,15.73171,28.1041,15.642,28.197L15.587,28.252C15.02408,28.8148,14.70778,29.5781,14.70769,30.3741C14.70759,31.1701,15.02371,31.9336,15.586500000000001,32.4965C16.14929,33.0594,16.91265,33.375699999999995,17.70865,33.3758C18.504640000000002,33.3759,19.26808,33.059799999999996,19.831,32.497L19.886,32.442C19.97893,32.3523,20.09647,32.2923,20.22364,32.2697C20.35081,32.2471,20.48184,32.2628,20.6,32.315L20.655,32.338C20.775959999999998,32.3825,20.88095,32.462,20.95662,32.5664C21.0323,32.6707,21.07524,32.7952,21.08,32.924L21.08,33C21.08,33.7956,21.39607,34.5587,21.95868,35.121300000000005ZM22.5923,31.4213C22.2896,30.9914,21.86587,30.6613,21.375,30.473L21.374000000000002,30.473C20.89199,30.2672,20.359769999999997,30.2089,19.84464,30.3056C19.32951,30.4022,18.85462,30.6494,18.48,31.016L18.412,31.084C18.319020000000002,31.1769,18.208660000000002,31.2506,18.0872,31.3009C17.96575,31.3511,17.83559,31.377,17.70415,31.3769C17.57271,31.3769,17.44256,31.3509,17.32114,31.3006C17.19972,31.2502,17.08941,31.1765,16.9965,31.0835C16.90359,30.9905,16.829900000000002,30.8802,16.77964,30.7587C16.729390000000002,30.6373,16.70354,30.5071,16.70359,30.3756C16.70364,30.2442,16.72957,30.1141,16.77992,29.9926C16.83026,29.8712,16.90402,29.7609,16.997,29.668L17.065,29.6C17.43194,29.2262,17.68039,28.7523,17.77919,28.2379C17.87799,27.723399999999998,17.82275,27.1913,17.6204,26.7081C17.41805,26.224899999999998,17.07759,25.8122,16.64169,25.5217C16.20579,25.2312,15.69384,25.0758,15.17,25.075L15,25.075C14.73478,25.075,14.48043,24.9696,14.29289,24.7821C14.105360000000001,24.5946,14,24.3402,14,24.075C14,23.8098,14.105360000000001,23.5554,14.29289,23.3679C14.48043,23.1804,14.73478,23.075,15,23.075L15.114,23.075C15.63963,23.0631,16.14982,22.8951,16.57969,22.5923C17.00955,22.2896,17.33965,21.86587,17.528,21.375C17.73382,20.892989999999998,17.79209,20.360770000000002,17.695439999999998,19.84564C17.59879,19.33051,17.35155,18.855620000000002,16.985,18.481L16.917,18.413C16.72962,18.22523,16.62452,17.97071,16.6248,17.70544C16.62508,17.440170000000002,16.73073,17.18588,16.9185,16.9985C17.106270000000002,16.81112,17.36079,16.70602,17.62606,16.7063C17.89133,16.70658,18.14562,16.81223,18.333,17L18.392,17.057000000000002L18.4,17.065C18.75319,17.41067,19.195990000000002,17.65069,19.67841,17.75795C20.16082,17.86522,20.66362,17.83544,21.130000000000003,17.672C21.22088,17.66021,21.30972,17.63598,21.394,17.6C21.869770000000003,17.39607,22.275399999999998,17.05728,22.5608,16.62544C22.8462,16.1936,22.9989,15.68763,23,15.17L23,15C23,14.73478,23.1054,14.48043,23.2929,14.29289C23.4804,14.105360000000001,23.7348,14,24,14C24.2652,14,24.5196,14.105360000000001,24.7071,14.29289C24.8946,14.48043,25,14.73478,25,15L25,15.094C25.002499999999998,15.61649,25.1588,16.12666,25.4494,16.56091C25.740000000000002,16.99515,26.152,17.33425,26.634,17.535899999999998C27.116,17.737560000000002,27.6467,17.79285,28.1599,17.69488C28.6731,17.59692,29.1462,17.35002,29.52,16.985L29.588,16.917C29.6807,16.82411,29.7908,16.75037,29.912,16.7C30.0334,16.64966,30.1636,16.62375,30.295,16.62375C30.4264,16.62375,30.5566,16.64966,30.678,16.7C30.8302,16.76281,30.9645,16.86222,31.069,16.9894C31.1735,17.11657,31.245,17.26759,31.2772,17.42904C31.3093,17.59049,31.3011,17.75738,31.2533,17.9149C31.2055,18.072409999999998,31.1195,18.215690000000002,31.003,18.332L30.935,18.4C30.5893,18.75319,30.3493,19.195990000000002,30.242,19.67841C30.1348,20.16082,30.1646,20.66362,30.328,21.130000000000003C30.3398,21.22088,30.364,21.30972,30.4,21.394C30.6039,21.869770000000003,30.9427,22.275399999999998,31.3746,22.5608C31.8064,22.8462,32.3124,22.9989,32.83,23L33,23C33.2652,23,33.5196,23.1054,33.7071,23.2929C33.8946,23.4804,34,23.7348,34,24C34,24.2652,33.8946,24.5196,33.7071,24.7071C33.5196,24.8946,33.2652,25,33,25L32.906,25C32.383700000000005,25.0027,31.8738,25.159100000000002,31.4397,25.4496C31.0057,25.740099999999998,30.6668,26.152,30.4651,26.6338C30.2635,27.1156,30.2082,27.6461,30.3059,28.1591C30.4037,28.6722,30.6503,29.1451,31.015,29.519L31.084,29.588C31.1769,29.681,31.2506,29.7913,31.3009,29.9128C31.3511,30.0343,31.377,30.1644,31.3769,30.2959C31.3769,30.4273,31.3509,30.5574,31.3006,30.6789C31.2502,30.8003,31.1765,30.9106,31.0835,31.0035C30.9905,31.0964,30.8802,31.1701,30.7587,31.2204C30.6373,31.2706,30.5071,31.2965,30.3756,31.2964C30.2442,31.2964,30.1141,31.2704,29.9926,31.2201C29.8712,31.1697,29.7609,31.096,29.668,31.003L29.6,30.935C29.2262,30.5681,28.7523,30.3196,28.2379,30.2208C27.723399999999998,30.122,27.1913,30.1772,26.7081,30.3796C26.224899999999998,30.5819,25.8122,30.9224,25.5217,31.3583C25.2312,31.7942,25.0758,32.306200000000004,25.075,32.83L25.075,33C25.075,33.2652,24.9696,33.5196,24.7821,33.7071C24.5946,33.8946,24.3402,34,24.075,34C23.8098,34,23.5554,33.8946,23.3679,33.7071C23.1804,33.5196,23.075,33.2652,23.075,33L23.075,32.887C23.0631,32.3614,22.8951,31.8512,22.5923,31.4213ZM21.777720000000002,27.3259C22.435499999999998,27.7654,23.2089,28,24,28C25.0609,28,26.0783,27.5786,26.828400000000002,26.828400000000002C27.5786,26.0783,28,25.0609,28,24C28,23.2089,27.7654,22.435499999999998,27.3259,21.777720000000002C26.886400000000002,21.11992,26.2616,20.60723,25.5307,20.304479999999998C24.799799999999998,20.001730000000002,23.9956,19.92252,23.2196,20.07686C22.4437,20.2312,21.730980000000002,20.61216,21.17157,21.17157C20.61216,21.730980000000002,20.2312,22.4437,20.07686,23.2196C19.92252,23.9956,20.001730000000002,24.799799999999998,20.304479999999998,25.5307C20.60723,26.2616,21.11992,26.886400000000002,21.777720000000002,27.3259ZM22.8889,22.3371C23.2178,22.1173,23.6044,22,24,22C24.5304,22,25.039099999999998,22.2107,25.4142,22.5858C25.7893,22.960900000000002,26,23.4696,26,24C26,24.3956,25.8827,24.7822,25.6629,25.1111C25.443199999999997,25.439999999999998,25.1308,25.6964,24.7654,25.8478C24.399900000000002,25.9991,23.997799999999998,26.0387,23.6098,25.9616C23.221899999999998,25.8844,22.8655,25.6939,22.5858,25.4142C22.3061,25.1345,22.1156,24.778100000000002,22.0384,24.3902C21.96126,24.002200000000002,22.0009,23.600099999999998,22.1522,23.2346C22.3036,22.8692,22.560000000000002,22.556800000000003,22.8889,22.3371Z" fill-rule="evenodd" fill="#FFFFFF" fill-opacity="1"/></g></g></g></svg>