<svg xmlns="http://www.w3.org/2000/svg" xmlns:xlink="http://www.w3.org/1999/xlink" fill="none" version="1.1" width="20" height="20" viewBox="0 0 20 20"><defs><clipPath id="master_svg0_160_8765/37_8758/37_8329"><rect x="0" y="0" width="20" height="20" rx="0"/></clipPath></defs><g style="mix-blend-mode:passthrough" clip-path="url(#master_svg0_160_8765/37_8758/37_8329)"><g style="mix-blend-mode:passthrough"><path d="M18.92251298828125,1.0775970937500001C19.14901298828125,1.30396209375,19.22561298828125,1.6399890937500001,19.11991298828125,1.94214609375C19.11991298828125,1.94214609375,13.28651298828125,18.60879609375,13.28651298828125,18.60879609375C13.17361298828125,18.93129609375,12.87531298828125,19.15229609375,12.53401298828125,19.16619609375C12.19251298828125,19.18009609375,11.87721298828125,18.98419609375,11.73851298828125,18.67199609375C11.73851298828125,18.67199609375,8.53531298828125,11.46479609375,8.53531298828125,11.46479609375C8.53531298828125,11.46479609375,1.3282019882812501,8.26169609375,1.3282019882812501,8.26169609375C1.01596798828125,8.12291609375,0.82008178828125,7.80761609375,0.83400989228125,7.46621609375C0.84793808828125,7.12482609375,1.0688579882812501,6.82651609375,1.39135898828125,6.71363609375C1.39135898828125,6.71363609375,18.05801298828125,0.88030399375,18.05801298828125,0.88030399375C18.36011298828125,0.77454949375,18.69621298828125,0.85123209375,18.92251298828125,1.0775970937500001C18.92251298828125,1.0775970937500001,18.92251298828125,1.0775970937500001,18.92251298828125,1.0775970937500001ZM10.16064298828125,11.01809609375C10.16064298828125,11.01809609375,12.40781298828125,16.07429609375,12.40781298828125,16.07429609375C12.40781298828125,16.07429609375,16.34041298828125,4.83825609375,16.34041298828125,4.83825609375C16.34041298828125,4.83825609375,10.16064298828125,11.01809609375,10.16064298828125,11.01809609375C10.16064298828125,11.01809609375,10.16064298828125,11.01809609375,10.16064298828125,11.01809609375ZM15.16191298828125,3.65974609375C15.16191298828125,3.65974609375,3.92588298828125,7.59235609375,3.92588298828125,7.59235609375C3.92588298828125,7.59235609375,8.98209298828125,9.83957609375,8.98209298828125,9.83957609375C8.98209298828125,9.83957609375,15.16191298828125,3.65974609375,15.16191298828125,3.65974609375C15.16191298828125,3.65974609375,15.16191298828125,3.65974609375,15.16191298828125,3.65974609375Z" fill-rule="evenodd" fill="#000000" fill-opacity="1"/></g></g></svg>