<svg xmlns="http://www.w3.org/2000/svg" xmlns:xlink="http://www.w3.org/1999/xlink" fill="none" version="1.1" width="24" height="24" viewBox="0 0 24 24"><defs><clipPath id="master_svg0_503_01228"><rect x="0" y="0" width="24" height="24" rx="0"/></clipPath></defs><g style="mix-blend-mode:passthrough" clip-path="url(#master_svg0_503_01228)"><g style="mix-blend-mode:passthrough"><path d="M3,21L7,17L19,17C20.1046,17,21,16.104599999999998,21,15L21,5C21,3.895431,20.1046,3,19,3L5,3C3.895431,3,3,3.895431,3,5L3,21Z" fill="#65DECF" fill-opacity="1"/></g><g style="mix-blend-mode:passthrough"><path d="M21.1213,2.87868Q20.2426,2,19,2L5,2Q3.7573600000000003,2,2.87868,2.87868Q2.000000178814,3.7573600000000003,2.000000119209,5L2,21C2,21.5523,2.447715,22,3,22C3.2652200000000002,22,3.51957,21.8946,3.70711,21.7071L7.41421,18L19,18Q20.2426,18,21.1213,17.121299999999998Q22,16.2426,22,15L22,5Q22,3.7573600000000003,21.1213,2.87868ZM5,4L19,4Q19.4142,4,19.7071,4.29289Q20,4.585789999999999,20,5L20,15Q20,15.4142,19.7071,15.7071Q19.4142,16,19,16L7,16C6.73478,16,6.48043,16.1054,6.29289,16.2929L4,18.5858L4,5Q4,4.585789999999999,4.29289,4.29289Q4.585789999999999,4,5,4Z" fill-rule="evenodd" fill="#65DECF" fill-opacity="1"/></g><g style="mix-blend-mode:passthrough"><ellipse cx="7" cy="10" rx="1" ry="1" fill="#FFFFFF" fill-opacity="1"/></g><g style="mix-blend-mode:passthrough"><ellipse cx="12" cy="10" rx="1" ry="1" fill="#FFFFFF" fill-opacity="1"/></g><g style="mix-blend-mode:passthrough"><ellipse cx="17" cy="10" rx="1" ry="1" fill="#FFFFFF" fill-opacity="1"/></g></g></svg>