<svg xmlns="http://www.w3.org/2000/svg" xmlns:xlink="http://www.w3.org/1999/xlink" fill="none" version="1.1" width="24" height="24" viewBox="0 0 24 24"><defs><clipPath id="master_svg0_798_02044"><rect x="0" y="0" width="24" height="24" rx="0"/></clipPath></defs><g style="mix-blend-mode:passthrough" clip-path="url(#master_svg0_798_02044)"><g style="mix-blend-mode:passthrough"><path d="M21.1213,2.87868Q20.2426,2,19,2L5,2Q3.7573600000000003,2,2.87868,2.87868Q2.000000178814,3.7573600000000003,2.000000119209,5L2,21C2,21.5523,2.447715,22,3,22C3.2652200000000002,22,3.51957,21.8946,3.70711,21.7071L7.41421,18L19,18Q20.2426,18,21.1213,17.121299999999998Q22,16.2426,22,15L22,5Q22,3.7573600000000003,21.1213,2.87868ZM5,4L19,4Q19.4142,4,19.7071,4.29289Q20,4.585789999999999,20,5L20,15Q20,15.4142,19.7071,15.7071Q19.4142,16,19,16L7,16C6.73478,16,6.48043,16.1054,6.29289,16.2929L4,18.5858L4,5Q4,4.585789999999999,4.29289,4.29289Q4.585789999999999,4,5,4Z" fill-rule="evenodd" fill="#65DECF" fill-opacity="1"/></g><g style="mix-blend-mode:passthrough"><path d="M21,15C21,16.104599999999998,20.1046,17,19,17L7,17L3,21L3,5C3,3.895431,3.895431,3,5,3L19,3C20.1046,3,21,3.895431,21,5L21,15ZM8,10C8,10.55228,7.55229,11,7,11C6.44771,11,6,10.55228,6,10C6,9.44772,6.44771,9,7,9C7.55229,9,8,9.44772,8,10ZM12,11C12.55228,11,13,10.55228,13,10C13,9.44772,12.55228,9,12,9C11.44772,9,11,9.44772,11,10C11,10.55228,11.44772,11,12,11ZM17,11C17.552300000000002,11,18,10.55228,18,10C18,9.44772,17.552300000000002,9,17,9C16.447699999999998,9,16,9.44772,16,10C16,10.55228,16.447699999999998,11,17,11Z" fill-rule="evenodd" fill="#65DECF" fill-opacity="1"/></g></g></svg>