<svg xmlns="http://www.w3.org/2000/svg" xmlns:xlink="http://www.w3.org/1999/xlink" fill="none" version="1.1" width="24" height="24" viewBox="0 0 24 24"><defs><clipPath id="master_svg0_135_5211/135_5198"><rect x="0" y="0" width="24" height="24" rx="0"/></clipPath></defs><g style="mix-blend-mode:passthrough" clip-path="url(#master_svg0_135_5211/135_5198)"><g style="mix-blend-mode:passthrough"><path d="M16.557779637908936,3.027987440948486C16.074879637908936,2.9734074409484865,15.583779637908936,2.9892274409484862,15.100079637908935,3.0773474409484862C14.100179637908935,3.2595374409484865,13.179479637908935,3.742137440948486,12.460779637908935,4.460827440948487C11.742129637908935,5.179527440948486,11.259529637908935,6.100177440948486,11.077349637908936,7.100107440948486C10.895159637908936,8.100027440948487,11.022029637908936,9.131737440948486,11.441059637908936,10.057727440948486C11.612659637908935,10.436937440948487,11.531429637908936,10.882787440948487,11.237109637908935,11.177057440948486C11.237109637908935,11.177057440948486,4.3271096379089355,18.087057440948485,4.3271096379089355,18.087057440948485C4.116819637908936,18.297357440948485,3.9986796379089355,18.582557440948488,3.9986796379089355,18.879957440948488C3.9986796379089355,19.177357440948487,4.116819637908936,19.462557440948487,4.3271096379089355,19.672857440948487C4.537399637908935,19.883157440948487,4.822609637908935,20.001357440948485,5.119999637908935,20.001357440948485C5.4173896379089355,20.001357440948485,5.702599637908936,19.883157440948487,5.912889637908936,19.672857440948487C5.912889637908936,19.672857440948487,12.822879637908935,12.762857440948487,12.822879637908935,12.762857440948487C13.117179637908935,12.468557440948487,13.563079637908935,12.387357440948486,13.942279637908936,12.558957440948486C14.868279637908936,12.977957440948487,15.899979637908936,13.104857440948486,16.899879637908935,12.922657440948486C17.899779637908935,12.740457440948486,18.820479637908935,12.257857440948486,19.539179637908937,11.539157440948486C20.257879637908935,10.820477440948487,20.740479637908937,9.899817440948487,20.922679637908935,8.899897440948486C21.010779637908936,8.416247440948485,21.026579637908934,7.925157440948486,20.971979637908934,7.442197440948486C20.971979637908934,7.442197440948486,18.400079637908934,10.014177440948487,18.400079637908934,10.014177440948487C18.026179637908935,10.380637440948487,17.523479637908935,10.585857440948486,16.999979637908936,10.585857440948486C16.476479637908938,10.585857440948486,15.973879637908935,10.380597440948486,15.599979637908936,10.014147440948486C15.599979637908936,10.014147440948486,15.592879637908936,10.007147440948486,15.592879637908936,10.007147440948486C15.592879637908936,10.007147440948486,13.985779637908935,8.400037440948486,13.985779637908935,8.400037440948486C13.619379637908935,8.026177440948487,13.414179637908935,7.523507440948486,13.414179637908935,6.999997440948486C13.414179637908935,6.476487440948486,13.619379637908935,5.973857440948486,13.985879637908935,5.599997440948487C13.985879637908935,5.599997440948487,13.992879637908935,5.592857440948486,13.992879637908935,5.592857440948486C13.992879637908935,5.592857440948486,16.557779637908936,3.027987440948486,16.557779637908936,3.027987440948486C16.557779637908936,3.027987440948486,16.557779637908936,3.027987440948486,16.557779637908936,3.027987440948486ZM14.741579637908936,1.1097394409484864C16.141479637908937,0.8546744409484863,17.585879637908935,1.0322985409484864,18.882279637908937,1.6189394409484863C19.181379637908936,1.7542794409484863,19.394979637908936,2.0277874409484866,19.453779637908937,2.3507474409484863C19.512679637908935,2.673707440948486,19.409279637908934,3.0049774409484864,19.177079637908935,3.237107440948486C19.177079637908935,3.237107440948486,15.414179637908935,6.999997440948486,15.414179637908935,6.999997440948486C15.414179637908935,6.999997440948486,16.999979637908936,8.585787440948486,16.999979637908936,8.585787440948486C16.999979637908936,8.585787440948486,20.762879637908934,4.822897440948486,20.762879637908934,4.822897440948486C20.994979637908937,4.590767440948486,21.326279637908936,4.487357440948486,21.649279637908936,4.546197440948486C21.972179637908937,4.605037440948486,22.245679637908935,4.818647440948487,22.381079637908936,5.117727440948486C22.967679637908937,6.414117440948487,23.145279637908935,7.8584974409484865,22.890279637908936,9.258397440948487C22.635179637908937,10.658297440948486,21.959579637908934,11.947257440948487,20.953379637908935,12.953357440948487C19.947179637908935,13.959557440948487,18.658279637908937,14.635157440948486,17.258379637908938,14.890257440948487C16.090979637908937,15.102957440948487,14.892579637908936,15.014757440948486,13.774879637908935,14.639357440948487C13.774879637908935,14.639357440948487,7.3271096379089355,21.087057440948485,7.3271096379089355,21.087057440948485C6.741749637908936,21.672457440948488,5.947829637908935,22.001357440948485,5.119999637908935,22.001357440948485C4.292169637908936,22.001357440948485,3.498249637908936,21.672457440948488,2.9128926379089357,21.087057440948485C2.3275316379089355,20.501757440948488,1.9986796379089355,19.707857440948487,1.9986796379089355,18.879957440948488C1.9986796379089355,18.052157440948488,2.3275326379089356,17.258257440948487,2.9128936379089354,16.672857440948487C2.9128936379089354,16.672857440948487,9.360649637908935,10.225137440948487,9.360649637908935,10.225137440948487C8.985239637908936,9.107447440948487,8.897029637908936,7.909057440948486,9.109739637908936,6.741607440948487C9.364799637908934,5.341707440948486,10.040439637908936,4.052787440948487,11.046609637908935,3.0466174409484865C12.052779637908936,2.0404374409484864,13.341679637908936,1.3648034409484864,14.741579637908936,1.1097394409484864C14.741579637908936,1.1097394409484864,14.741579637908936,1.1097394409484864,14.741579637908936,1.1097394409484864Z" fill-rule="evenodd" fill="#000000" fill-opacity="1"/></g></g></svg>