<svg xmlns="http://www.w3.org/2000/svg" xmlns:xlink="http://www.w3.org/1999/xlink" fill="none" version="1.1" width="24" height="24" viewBox="0 0 24 24"><defs><clipPath id="master_svg0_1_00837/505_01096"><rect x="0" y="0" width="24" height="24" rx="0"/></clipPath></defs><g style="mix-blend-mode:passthrough" clip-path="url(#master_svg0_1_00837/505_01096)"><g style="mix-blend-mode:passthrough"><path d="M16.2426,12.2426Q18,10.48528,18,8Q18,5.5147200000000005,16.2426,3.7573600000000003Q14.48528,2,12,2Q9.51472,2,7.75736,3.7573600000000003Q6,5.5147200000000005,6,8Q6,10.48528,7.75736,12.2426Q9.51472,14,12,14Q14.48528,14,16.2426,12.2426ZM14.82843,5.17157Q16,6.34315,16,8Q16,9.65686,14.82843,10.82843Q13.65685,12,12,12Q10.34315,12,9.17157,10.82843Q8,9.65686,8,8Q8,6.34315,9.17157,5.17157Q10.34315,4,12,4Q13.65686,4,14.82843,5.17157Z" fill-rule="evenodd" fill="#6F7977" fill-opacity="1"/></g><g style="mix-blend-mode:passthrough"><path d="M18.12129952316284,18.87868Q18.999999523162842,19.75736,18.999999523162842,21C18.999999523162842,21.55229,19.447699523162843,22,19.999999523162842,22C20.55229952316284,22,20.999999523162842,21.55229,20.999999523162842,21Q20.999999523162842,18.92893,19.53549952316284,17.46447Q18.071099523162843,16.000000476837,15.999999523162842,16L7.999999523162842,16.000000476837Q5.928929523162841,16.000000476837,4.464469523162842,17.46447Q2.999999999999842,18.92893,2.999999523162842,21C2.999999761581842,21.55229,3.4477155231628416,22,3.999999523162842,22C4.552289523162842,22,4.999999523162842,21.55229,4.999999523162842,21Q4.999999523162842,19.75736,5.878679523162842,18.87868Q6.757359523162842,18,7.999999523162842,18L15.999999523162842,18Q17.24259952316284,18,18.12129952316284,18.87868Z" fill-rule="evenodd" fill="#6F7977" fill-opacity="1"/></g></g></svg>