<svg xmlns="http://www.w3.org/2000/svg" xmlns:xlink="http://www.w3.org/1999/xlink" fill="none" version="1.1" width="22" height="22" viewBox="0 0 22 22"><defs><clipPath id="master_svg0_807_02027/347_00552"><rect x="0" y="0" width="22" height="22" rx="0"/></clipPath></defs><g style="mix-blend-mode:passthrough" clip-path="url(#master_svg0_807_02027/347_00552)"><g style="mix-blend-mode:passthrough"><path d="M9.626881953125,1.28575403125C10.044461953125,1.04512703125,10.517941953125,0.91845703125,10.999921953125,0.91845703125C11.481901953125,0.91845703125,11.955451953125,1.04513703125,12.372951953125,1.28578403125C12.373651953125,1.28615103125,12.374251953125,1.2865190312500001,12.374951953125,1.28688703125C12.374951953125,1.28688703125,18.791551953125,4.95353703125,18.791551953125,4.95353703125C19.130751953125,5.14935703125,19.423251953125,5.41479703125,19.650451953125,5.73123703125C19.705751953125,5.78657703125,19.754851953125,5.84996703125,19.795851953125,5.92091703125C19.831251953125,5.98202703125,19.858751953125,6.04551703125,19.878751953125,6.11023703125C20.067351953125,6.48924703125,20.166151953125,6.90743703125,20.166551953125,7.33229703125C20.166551953125,7.33229703125,20.166551953125,14.66755703125,20.166551953125,14.66755703125C20.166151953125,15.14975703125,20.038751953125,15.62345703125,19.797451953125,16.04085703125C19.556051953125,16.45845703125,19.209251953125,16.805157031249998,18.791551953125,17.04625703125C18.791551953125,17.04625703125,18.788051953125,17.04835703125,18.788051953125,17.04835703125C18.788051953125,17.04835703125,12.374951953125,20.71295703125,12.374951953125,20.71295703125C12.374351953125,20.71325703125,12.373851953125,20.71355703125,12.373251953125,20.71385703125C12.082551953125,20.88155703125,11.764601953125,20.99385703125,11.435611953125,21.04665703125C11.305991953125,21.11675703125,11.157581953125,21.15655703125,10.999921953125,21.15655703125C10.842231953125,21.15655703125,10.693841953125,21.11675703125,10.564261953125,21.04665703125C10.235271953125,20.99385703125,9.917381953125,20.88155703125,9.626611953125,20.71385703125C9.626041953125,20.71355703125,9.625481953125,20.71325703125,9.624921953125,20.71295703125C9.624921953125,20.71295703125,3.211791953125,17.04835703125,3.211791953125,17.04835703125C3.211791953125,17.04835703125,3.208251953125,17.04625703125,3.208251953125,17.04625703125C2.790608953125,16.805157031249998,2.443724953125,16.45845703125,2.202385953125,16.04085703125C1.961047953125,15.62345703125,1.833746587125,15.14975703125,1.833251953125,14.66755703125C1.833251953125,14.66755703125,1.833251953125,7.33229703125,1.833251953125,7.33229703125C1.833687743125,6.90743703125,1.932548953125,6.48924703125,2.121103953125,6.11023703125C2.141081953125,6.04552703125,2.168592953125,5.98203703125,2.203944953125,5.92091703125C2.244986953125,5.84996703125,2.294081953125,5.78657703125,2.3494089531249998,5.73123703125C2.5766099531249997,5.41479703125,2.869101953125,5.14935703125,3.208251953125,4.95354703125C3.208251953125,4.95354703125,3.211791953125,4.95151703125,3.211791953125,4.95151703125C3.211791953125,4.95151703125,9.626881953125,1.28575403125,9.626881953125,1.28575403125C9.626881953125,1.28575403125,9.626881953125,1.28575403125,9.626881953125,1.28575403125ZM3.666581953125,7.82598703125C3.666581953125,7.82598703125,3.666581953125,14.66605703125,3.666581953125,14.66605703125C3.6668119531250003,14.82665703125,3.709251953125,14.98435703125,3.7896319531250002,15.12335703125C3.869801953125,15.26205703125,3.984901953125,15.37745703125,4.123471953125,15.45775703125C4.123951953125,15.45795703125,4.124431953125001,15.45825703125,4.124921953125,15.45855703125C4.124921953125,15.45855703125,10.083251953125,18.86335703125,10.083251953125,18.86335703125C10.083251953125,18.86335703125,10.083251953125,11.53775703125,10.083251953125,11.53775703125C10.083251953125,11.53775703125,3.666581953125,7.82598703125,3.666581953125,7.82598703125C3.666581953125,7.82598703125,3.666581953125,7.82598703125,3.666581953125,7.82598703125ZM11.916551953125,11.53775703125C11.916551953125,11.53775703125,11.916551953125,18.86335703125,11.916551953125,18.86335703125C11.916551953125,18.86335703125,17.874951953125,15.45855703125,17.874951953125,15.45855703125C17.875351953125,15.45825703125,17.875951953125,15.45795703125,17.876351953125,15.45775703125C18.014851953125,15.37745703125,18.130051953125,15.26205703125,18.210251953125,15.12335703125C18.290651953125,14.98425703125,18.333051953125,14.82635703125,18.333251953125,14.66565703125C18.333251953125,14.66565703125,18.333251953125,7.82598703125,18.333251953125,7.82598703125C18.333251953125,7.82598703125,11.916551953125,11.53775703125,11.916551953125,11.53775703125C11.916551953125,11.53775703125,11.916551953125,11.53775703125,11.916551953125,11.53775703125ZM17.380851953125,6.25894703125C17.380851953125,6.25894703125,11.458251953125,2.87460703125,11.458251953125,2.87460703125C11.318921953125,2.79414703125,11.160791953125,2.75178703125,10.999921953125,2.75178703125C10.839011953125,2.75178703125,10.680941953125,2.79414703125,10.541581953125,2.87459703125C10.541581953125,2.87459703125,10.538041953125,2.87663703125,10.538041953125,2.87663703125C10.538041953125,2.87663703125,4.6189919531250005,6.25894703125,4.6189919531250005,6.25894703125C4.6189919531250005,6.25894703125,10.999921953125,9.95008703125,10.999921953125,9.95008703125C10.999921953125,9.95008703125,17.380851953125,6.25894703125,17.380851953125,6.25894703125C17.380851953125,6.25894703125,17.380851953125,6.25894703125,17.380851953125,6.25894703125Z" fill-rule="evenodd" fill="#FFFFFF" fill-opacity="1"/></g></g></svg>