<svg xmlns="http://www.w3.org/2000/svg" xmlns:xlink="http://www.w3.org/1999/xlink" fill="none" version="1.1" width="24" height="24" viewBox="0 0 24 24"><defs><clipPath id="master_svg0_135_5211/135_5200"><rect x="0" y="0" width="24" height="24" rx="0"/></clipPath></defs><g style="mix-blend-mode:passthrough" clip-path="url(#master_svg0_135_5211/135_5200)"><g style="mix-blend-mode:passthrough"><path d="M9.292893,5.292893C9.683417,4.9023689,10.31658,4.9023689,10.70711,5.292893C10.70711,5.292893,16.70711,11.29289,16.70711,11.29289C17.097630000000002,11.68342,17.097630000000002,12.31658,16.70711,12.70711C16.70711,12.70711,10.70711,18.7071,10.70711,18.7071C10.31658,19.0976,9.683417,19.0976,9.292893,18.7071C8.9023689,18.3166,8.9023689,17.6834,9.292893,17.2929C9.292893,17.2929,14.58579,12,14.58579,12C14.58579,12,9.292893,6.70711,9.292893,6.70711C8.9023689,6.31658,8.9023689,5.683417,9.292893,5.292893C9.292893,5.292893,9.292893,5.292893,9.292893,5.292893Z" fill-rule="evenodd" fill="#FFFFFF" fill-opacity="1"/></g></g></svg>