<svg xmlns="http://www.w3.org/2000/svg" xmlns:xlink="http://www.w3.org/1999/xlink" fill="none" version="1.1" width="30" height="30" viewBox="0 0 30 30"><defs><clipPath id="master_svg0_129_5457/120_05713"><rect x="0" y="0" width="30" height="30" rx="0"/></clipPath></defs><g style="mix-blend-mode:passthrough" clip-path="url(#master_svg0_129_5457/120_05713)"><g style="mix-blend-mode:passthrough"><path d="M15,3.75C8.7868,3.75,3.75,8.7868,3.75,15C3.75,21.2132,8.7868,26.25,15,26.25C21.2132,26.25,26.25,21.2132,26.25,15C26.25,8.7868,21.2132,3.75,15,3.75C15,3.75,15,3.75,15,3.75ZM1.25,15C1.25,7.40609,7.40609,1.25,15,1.25C22.5939,1.25,28.75,7.40609,28.75,15C28.75,22.5939,22.5939,28.75,15,28.75C7.40609,28.75,1.25,22.5939,1.25,15C1.25,15,1.25,15,1.25,15ZM15,6.25C15.6904,6.25,16.25,6.80965,16.25,7.5C16.25,7.5,16.25,14.2275,16.25,14.2275C16.25,14.2275,20.559,16.381999999999998,20.559,16.381999999999998C21.1765,16.6908,21.4268,17.4415,21.118,18.059C20.8092,18.6765,20.0585,18.9268,19.441,18.618C19.441,18.618,14.441,16.118000000000002,14.441,16.118000000000002C14.0175,15.9062,13.75,15.4735,13.75,15C13.75,15,13.75,7.5,13.75,7.5C13.75,6.80965,14.3096,6.25,15,6.25C15,6.25,15,6.25,15,6.25Z" fill-rule="evenodd" fill="#000000" fill-opacity="1"/></g></g></svg>