<svg xmlns="http://www.w3.org/2000/svg" xmlns:xlink="http://www.w3.org/1999/xlink" fill="none" version="1.1" width="24" height="24" viewBox="0 0 24 24"><defs><clipPath id="master_svg0_135_5539/135_5198"><rect x="0" y="0" width="24" height="24" rx="0"/></clipPath></defs><g style="mix-blend-mode:passthrough" clip-path="url(#master_svg0_135_5539/135_5198)"><g style="mix-blend-mode:passthrough"><path d="M11.99999535560608,1C12.552295355606079,1,12.99999535560608,1.447715,12.99999535560608,2C12.99999535560608,2,12.99999535560608,12,12.99999535560608,12C12.99999535560608,12.5523,12.552295355606079,13,11.99999535560608,13C11.447715355606078,13,10.99999535560608,12.5523,10.99999535560608,12C10.99999535560608,12,10.99999535560608,2,10.99999535560608,2C10.99999535560608,1.447715,11.447715355606078,1,11.99999535560608,1C11.99999535560608,1,11.99999535560608,1,11.99999535560608,1ZM6.336995355606079,5.93278C6.727575355606079,6.32324,6.727685355606079,6.9564,6.337225355606079,7.34699C5.218665355606079,8.46592,4.456995355606079,9.89138,4.148525355606079,11.4432C3.8400553556060792,12.9949,3.998635355606079,14.6033,4.60421535560608,16.064999999999998C5.209795355606079,17.5266,6.235175355606079,18.7759,7.5507053556060795,19.6549C8.866245355606079,20.5338,10.41286535560608,21.0029,11.994995355606079,21.0029C13.57709535560608,21.0029,15.12379535560608,20.5338,16.439295355606077,19.6549C17.754795355606078,18.7759,18.78019535560608,17.5266,19.385795355606078,16.064999999999998C19.99139535560608,14.6033,20.14989535560608,12.9949,19.841495355606078,11.4432C19.53299535560608,9.89138,18.771295355606078,8.46592,17.65279535560608,7.34699C17.262295355606078,6.9564,17.26239535560608,6.32324,17.65299535560608,5.93278C18.04359535560608,5.54232,18.676795355606078,5.54242,19.067195355606078,5.93301C20.46539535560608,7.33166,21.41749535560608,9.1135,21.80309535560608,11.0532C22.18869535560608,12.9929,21.99049535560608,15.0034,21.233495355606077,16.8305C20.47649535560608,18.6576,19.19479535560608,20.2192,17.550395355606078,21.3178C15.905895355606079,22.4165,13.97269535560608,23.0029,11.994995355606079,23.0029C10.01732535560608,23.0029,8.084055355606079,22.4165,6.439635355606079,21.3178C4.795215355606079,20.2192,3.513485355606079,18.6576,2.7565173556060794,16.8305C1.999544675606079,15.0034,1.801320355606079,12.9929,2.186908355606079,11.0532C2.5724953556060792,9.1135,3.5245753556060793,7.33166,4.922775355606079,5.93301C5.3132353556060785,5.54242,5.946405355606079,5.54232,6.336995355606079,5.93278C6.336995355606079,5.93278,6.336995355606079,5.93278,6.336995355606079,5.93278Z" fill-rule="evenodd" fill="#000000" fill-opacity="1"/></g></g></svg>