<svg xmlns="http://www.w3.org/2000/svg" xmlns:xlink="http://www.w3.org/1999/xlink" fill="none" version="1.1" width="20" height="20" viewBox="0 0 20 20"><defs><clipPath id="master_svg0_27_1061/147_6426/1_06347"><rect x="0" y="0" width="20" height="20" rx="0"/></clipPath></defs><g style="mix-blend-mode:passthrough" clip-path="url(#master_svg0_27_1061/147_6426/1_06347)"><g style="mix-blend-mode:passthrough"><path d="M14.1250974609375,1.6650390625C13.4135974609375,1.6650390625,12.7090974609375,1.8052290625,12.0515974609375,2.0776010625C11.3943974609375,2.3499490625,10.7970974609375,2.7492590625,10.2940674609375,3.2524390624999997L10.0001474609375,3.5463790625L9.7060674609375,3.2523090625C8.6900374609375,2.2362810625,7.3120174609375,1.6654847065,5.8751374609375,1.6654847065C4.4382674609374995,1.6654847065,3.0602374609375,2.2362810625,2.0442174609375,3.2523090625C1.0281944609375,4.268329062499999,0.4573974609375,5.6463590625,0.4573974609375,7.0832290625C0.4573974609375,8.5200990625,1.0281944609375,9.8981190625,2.0442174609375,10.9141190625L9.4108974609375,18.2807390625C9.7363174609375,18.6062390625,10.2639774609375,18.6062390625,10.5893974609375,18.2807390625L17.9560974609375,10.9141190625C18.4591974609375,10.4111190625,18.8583974609375,9.8139690625,19.1306974609375,9.1566790625C19.4030974609375,8.499339062499999,19.5432974609375,7.7947690625,19.5432974609375,7.0832290625C19.5432974609375,6.3716790625,19.4030974609375,5.6671190625,19.1306974609375,5.0097690625C18.8584974609375,4.3525490625,18.4590974609375,3.7551190625,17.9558974609375,3.2521590625C17.4529974609375,2.7490490625,16.8557974609375,2.3499230625000003,16.1985974609375,2.0776010625C15.5411974609375,1.8052300625,14.8365974609375,1.6650390625,14.1250974609375,1.6650390625Z" fill-rule="evenodd" fill="#FF3B30" fill-opacity="1"/></g></g></svg>