<svg xmlns="http://www.w3.org/2000/svg" xmlns:xlink="http://www.w3.org/1999/xlink" fill="none" version="1.1" width="48" height="48" viewBox="0 0 48 48"><defs><clipPath id="master_svg0_135_09299/135_09264"><rect x="12" y="12" width="24" height="24" rx="0"/></clipPath></defs><g style="mix-blend-mode:passthrough"><g style="mix-blend-mode:passthrough" clip-path="url(#master_svg0_135_09299/135_09264)"><g style="mix-blend-mode:passthrough"><path d="M14,18C14,17.447715,14.447715,17,15,17C15,17,33,17,33,17C33.5523,17,34,17.447715,34,18C34,18.55228,33.5523,19,33,19C33,19,15,19,15,19C14.447715,19,14,18.55228,14,18C14,18,14,18,14,18ZM17,22C17,21.44772,17.44772,21,18,21C18,21,30,21,30,21C30.5523,21,31,21.44772,31,22C31,22.55228,30.5523,23,30,23C30,23,18,23,18,23C17.44772,23,17,22.55228,17,22C17,22,17,22,17,22ZM14,26C14,25.44772,14.447715,25,15,25C15,25,33,25,33,25C33.5523,25,34,25.44772,34,26C34,26.55229,33.5523,27,33,27C33,27,15,27,15,27C14.447715,27,14,26.55229,14,26C14,26,14,26,14,26ZM17,30C17,29.447699999999998,17.44772,29,18,29C18,29,30,29,30,29C30.5523,29,31,29.447699999999998,31,30C31,30.552300000000002,30.5523,31,30,31C30,31,18,31,18,31C17.44772,31,17,30.552300000000002,17,30C17,30,17,30,17,30Z" fill-rule="evenodd" fill="#000000" fill-opacity="1"/></g></g></g></svg>