<svg xmlns="http://www.w3.org/2000/svg" xmlns:xlink="http://www.w3.org/1999/xlink" fill="none" version="1.1" width="20" height="20" viewBox="0 0 20 20"><defs><clipPath id="master_svg0_101_6595/101_6268/101_6376"><rect x="0" y="0" width="20" height="20" rx="0"/></clipPath></defs><g style="mix-blend-mode:passthrough" clip-path="url(#master_svg0_101_6595/101_6268/101_6376)"><g style="mix-blend-mode:passthrough"><path d="M17.2559,4.4110691875C17.5813,4.7365061875,17.5813,5.2641421875,17.2559,5.5895821875C17.2559,5.5895821875,8.08926,14.7561921875,8.08926,14.7561921875C7.76382,15.0816921875,7.23618,15.0816921875,6.91074,14.7561921875C6.91074,14.7561921875,2.744077,10.5895821875,2.744077,10.5895821875C2.4186408,10.2641421875,2.4186408,9.7365121875,2.744077,9.4110621875C3.069514,9.0856321875,3.59715,9.0856321875,3.92259,9.4110621875C3.92259,9.4110621875,7.5,12.9884921875,7.5,12.9884921875C7.5,12.9884921875,16.0774,4.4110691875,16.0774,4.4110691875C16.4028,4.0856329875,16.930500000000002,4.0856329875,17.2559,4.4110691875C17.2559,4.4110691875,17.2559,4.4110691875,17.2559,4.4110691875Z" fill-rule="evenodd" fill="#FFFFFF" fill-opacity="1"/></g></g></svg>