<svg xmlns="http://www.w3.org/2000/svg" xmlns:xlink="http://www.w3.org/1999/xlink" fill="none" version="1.1" width="24" height="24" viewBox="0 0 24 24"><defs><clipPath id="master_svg0_135_5597/135_5198"><rect x="0" y="0" width="24" height="24" rx="0"/></clipPath></defs><g style="mix-blend-mode:passthrough" clip-path="url(#master_svg0_135_5597/135_5198)"><g style="mix-blend-mode:passthrough"><path d="M10.08619,1.5938620000000001C10.24669,1.232734,10.60481,1,11,1C12.0609,1,13.0783,1.421427,13.8284,2.17157C14.5786,2.92172,15,3.93913,15,5C15,5,15,8,15,8C15,8,19.6549,8,19.6549,8C20.0876,7.996,20.5162,8.08567,20.911,8.262889999999999C21.3078,8.44096,21.6611,8.70317,21.9465,9.03134C22.2318,9.35951,22.4424,9.7458,22.5637,10.16344C22.6849,10.58109,22.7139,11.0201,22.6487,11.4501C22.6487,11.4501,21.2687,20.4499,21.2687,20.4499C21.2687,20.4502,21.2687,20.4497,21.2687,20.4499C21.1601,21.165,20.7966,21.8175,20.2456,22.2859C19.6958,22.7532,18.9961,23.0067,18.2748,23C18.2748,23,4,23,4,23C3.20435,23,2.44129,22.6839,1.8786800000000001,22.1213C1.31607,21.5587,1,20.7957,1,20C1,20,1,13,1,13C1,12.2044,1.31607,11.4413,1.8786800000000001,10.87868C2.44129,10.31607,3.20435,10,4,10C4,10,6.35013,10,6.35013,10C6.35013,10,10.08619,1.5938620000000001,10.08619,1.5938620000000001C10.08619,1.5938620000000001,10.08619,1.5938620000000001,10.08619,1.5938620000000001ZM6,12C6,12,4,12,4,12C3.73478,12,3.48043,12.1054,3.29289,12.2929C3.10536,12.4804,3,12.7348,3,13C3,13,3,20,3,20C3,20.2652,3.10536,20.5196,3.29289,20.7071C3.48043,20.8946,3.73478,21,4,21C4,21,6,21,6,21C6,21,6,12,6,12C6,12,6,12,6,12ZM8,21C8,21,18.2913,21,18.2913,21C18.5325,21.0027,18.7665,20.9183,18.9503,20.7621C19.134,20.6059,19.2551,20.3885,19.2913,20.1501C19.2913,20.1501,20.6713,11.1499,20.6713,11.1499C20.6713,11.1498,20.6713,11.1501,20.6713,11.1499C20.693,11.0067,20.6834,10.86015,20.643,10.72106C20.6026,10.58185,20.5324,10.45308,20.4373,10.34369C20.3421,10.2343,20.2244,10.1469,20.0921,10.08754C19.9599,10.02819,19.8163,9.99829,19.6713,9.99994C19.6713,9.99994,19.66,10.00006,19.66,10.00006C19.66,10.00006,14,10,14,10C13.4477,10,13,9.55228,13,9C13,9,13,5,13,5C13,4.46957,12.7893,3.96086,12.4142,3.58579C12.1864,3.35794,11.9092,3.19075,11.6078,3.0946C11.6078,3.0946,8,11.2122,8,11.2122C8,11.2122,8,21,8,21C8,21,8,21,8,21Z" fill-rule="evenodd" fill="#000000" fill-opacity="1"/></g></g></svg>