<svg xmlns="http://www.w3.org/2000/svg" xmlns:xlink="http://www.w3.org/1999/xlink" fill="none" version="1.1" width="24" height="24" viewBox="0 0 24 24"><defs><clipPath id="master_svg0_847_04938"><rect x="0" y="0" width="24" height="24" rx="0"/></clipPath></defs><g style="mix-blend-mode:passthrough" clip-path="url(#master_svg0_847_04938)"><g style="mix-blend-mode:passthrough"><path d="M19.4332,3.098696801675415C19.7797,3.2652167016754152,20,3.6155947016754153,20,4.000000701675415C20,4.000000701675415,20,19.999990701675415,20,19.999990701675415C20,20.384390701675414,19.7797,20.734790701675415,19.4332,20.901290701675414C19.0867,21.067790701675413,18.6755,21.020990701675416,18.3753,20.780890701675414C18.3753,20.780890701675414,8.375309999999999,12.780870701675415,8.375309999999999,12.780870701675415C8.13809,12.591100701675416,8,12.303780701675414,8,12.000000701675415C8,11.696220701675415,8.13809,11.408900701675416,8.375309999999999,11.219130701675414C8.375309999999999,11.219130701675414,18.3753,3.219131701675415,18.3753,3.219131701675415C18.6755,2.978995301675415,19.0867,2.932176901675415,19.4332,3.098696801675415C19.4332,3.098696801675415,19.4332,3.098696801675415,19.4332,3.098696801675415ZM10.60078,12.000000701675415C10.60078,12.000000701675415,18,17.919390701675415,18,17.919390701675415C18,17.919390701675415,18,6.080620701675415,18,6.080620701675415C18,6.080620701675415,10.60078,12.000000701675415,10.60078,12.000000701675415C10.60078,12.000000701675415,10.60078,12.000000701675415,10.60078,12.000000701675415ZM5,4.000000701675415C5.55228,4.000000701675415,6,4.447710701675415,6,5.000000701675415C6,5.000000701675415,6,18.999990701675415,6,18.999990701675415C6,19.552290701675414,5.55228,19.999990701675415,5,19.999990701675415C4.447715,19.999990701675415,4,19.552290701675414,4,18.999990701675415C4,18.999990701675415,4,5.000000701675415,4,5.000000701675415C4,4.447710701675415,4.447715,4.000000701675415,5,4.000000701675415C5,4.000000701675415,5,4.000000701675415,5,4.000000701675415Z" fill-rule="evenodd" fill="#FFFFFF" fill-opacity="1"/></g></g></svg>