<svg xmlns="http://www.w3.org/2000/svg" xmlns:xlink="http://www.w3.org/1999/xlink" fill="none" version="1.1" width="24" height="24" viewBox="0 0 24 24"><defs><clipPath id="master_svg0_135_5216/135_5198"><rect x="0" y="0" width="24" height="24" rx="0"/></clipPath></defs><g style="mix-blend-mode:passthrough" clip-path="url(#master_svg0_135_5216/135_5198)"><g style="mix-blend-mode:passthrough"><path d="M7.050252156333923,3.05025C8.363012156333923,1.737498,10.143482156333924,1,12.000022156333923,1C13.856522156333924,1,15.637022156333924,1.737498,16.949722156333923,3.05025C18.262522156333922,4.36301,19.000022156333923,6.14349,19.000022156333923,8C19.000022156333923,11.3527,19.717022156333922,13.4346,20.377922156333923,14.6461C20.709722156333925,15.2544,21.032822156333925,15.6535,21.257222156333924,15.8904C21.369722156333925,16.0091,21.458022156333925,16.0878,21.51132215633392,16.132199999999997C21.537922156333924,16.154400000000003,21.555722156333925,16.168,21.563422156333925,16.1737C21.56462215633392,16.174599999999998,21.565622156333923,16.1753,21.566322156333925,16.175800000000002C21.924822156333924,16.4221,22.083422156333924,16.872500000000002,21.957122156333924,17.2898C21.829422156333923,17.7115,21.440622156333923,18,21.000022156333923,18C21.000022156333923,18,3.0000021563339234,18,3.0000021563339234,18C2.559333156333923,18,2.1706061563339234,17.7115,2.042907956333923,17.2898C1.9165653563339233,16.872500000000002,2.075204556333923,16.4221,2.4336891563339234,16.175800000000002C2.4343911563339233,16.1753,2.435346156333923,16.174599999999998,2.436547156333923,16.1737C2.4442471563339234,16.168,2.462100156333923,16.154400000000003,2.4887221563339232,16.132199999999997C2.5419381563339236,16.0878,2.630322156333923,16.0091,2.742797156333923,15.8904C2.9672261563339233,15.6535,3.2903121563339233,15.2544,3.6221021563339235,14.6461C4.282932156333923,13.4346,5.000002156333924,11.3527,5.000002156333924,8C5.000002156333924,6.14348,5.737502156333923,4.36301,7.050252156333923,3.05025C7.050252156333923,3.05025,7.050252156333923,3.05025,7.050252156333923,3.05025ZM2.4437971563339236,16.169C2.4438761563339235,16.1689,2.4439551563339235,16.168799999999997,2.4440341563339234,16.168799999999997C2.444029156333923,16.168799999999997,2.4440251563339235,16.168799999999997,2.4440211563339234,16.168799999999997C2.4440211563339234,16.168799999999997,2.4437971563339236,16.169,2.4437971563339236,16.169C2.4437971563339236,16.169,2.4437971563339236,16.169,2.4437971563339236,16.169ZM5.149322156333923,16C5.149322156333923,16,18.850722156333923,16,18.850722156333923,16C18.774622156333923,15.8753,18.698222156333923,15.7434,18.622122156333923,15.6039C17.782922156333925,14.0654,17.000022156333923,11.6473,17.000022156333923,8C17.000022156333923,6.67392,16.473222156333925,5.40215,15.535522156333924,4.46447C14.597822156333923,3.52678,13.326122156333923,3,12.000022156333923,3C10.673922156333923,3,9.402152156333923,3.52678,8.464462156333923,4.46447C7.5267821563339234,5.40215,7.000002156333923,6.67392,7.000002156333923,8C7.000002156333923,11.6473,6.2170721563339235,14.0654,5.377892156333923,15.6039C5.301802156333924,15.7434,5.225412156333924,15.8753,5.149322156333923,16C5.149322156333923,16,5.149322156333923,16,5.149322156333923,16ZM9.768232156333923,20.135C10.245952156333923,19.8579,10.857882156333924,20.0205,11.135002156333924,20.4982C11.222902156333923,20.6498,11.349082156333923,20.7756,11.500892156333924,20.863C11.652692156333924,20.9504,11.824812156333923,20.9965,12.000022156333923,20.9965C12.175222156333923,20.9965,12.347322156333924,20.9504,12.499122156333923,20.863C12.650922156333923,20.7756,12.777122156333924,20.6498,12.865022156333923,20.4982C13.142122156333924,20.0205,13.754022156333923,19.8579,14.231722156333923,20.135C14.709522156333923,20.4121,14.872122156333923,21.024,14.595022156333924,21.5018C14.331322156333924,21.9564,13.952722156333923,22.3337,13.497322156333924,22.5961C13.041922156333923,22.8584,12.525522156333924,22.9965,12.000022156333923,22.9965C11.474432156333924,22.9965,10.958082156333923,22.8584,10.502662156333923,22.5961C10.047232156333923,22.3337,9.668712156333925,21.9564,9.405002156333923,21.5018C9.127882156333923,21.024,9.290502156333924,20.4121,9.768232156333923,20.135C9.768232156333923,20.135,9.768232156333923,20.135,9.768232156333923,20.135Z" fill-rule="evenodd" fill="#000000" fill-opacity="1"/></g></g></svg>