<svg xmlns="http://www.w3.org/2000/svg" xmlns:xlink="http://www.w3.org/1999/xlink" fill="none" version="1.1" width="24" height="24" viewBox="0 0 24 24"><defs><clipPath id="master_svg0_321_00181/214_7833/214_6934/214_6818"><rect x="0" y="0" width="24" height="24" rx="0"/></clipPath></defs><g style="mix-blend-mode:passthrough" clip-path="url(#master_svg0_321_00181/214_7833/214_6934/214_6818)"><g style="mix-blend-mode:passthrough"><path d="M2,3L12,3C12.5523,3,13,3.447715,13,4C13,4.55228,12.5523,5,12,5L2,5C1.447715,5,1,4.55228,1,4C1,3.447715,1.447715,3,2,3Z" fill-rule="evenodd" fill="#FFFFFF" fill-opacity="1"/></g><g style="mix-blend-mode:passthrough"><path d="M2,8L10,8C10.55229,8,11,8.447715,11,9C11,9.55228,10.55229,10,10,10L2,10C1.447715,10,1,9.55228,1,9C1,8.447715,1.447715,8,2,8Z" fill-rule="evenodd" fill="#FFFFFF" fill-opacity="1"/></g><g style="mix-blend-mode:passthrough"><path d="M2,13L8,13C8.55228,13,9,13.447715,9,14C9,14.55228,8.55228,15,8,15L2,15C1.447715,15,1,14.55228,1,14C1,13.447715,1.447715,13,2,13Z" fill-rule="evenodd" fill="#FFFFFF" fill-opacity="1"/></g><g style="mix-blend-mode:passthrough"><path d="M17.38909,20.38909Q19,18.77817,19,16.5Q19,14.22183,17.38909,12.61091Q15.77817,11,13.5,11Q11.22183,11.000000119209,9.61091,12.61091Q8,14.221820000000001,8,16.5Q8.000000119209,18.77817,9.61091,20.38909Q11.22183,22,13.5,22Q15.77817,22,17.38909,20.38909ZM15.97487,14.02513Q17,15.05025,17,16.5Q17,17.94975,15.97487,18.97487Q14.94975,20,13.5,20Q12.05025,20,11.02513,18.97487Q10,17.94975,10,16.5Q10,15.05025,11.02513,14.02513Q12.05025,13,13.5,13Q14.94975,13,15.97487,14.02513Z" fill-rule="evenodd" fill="#FFFFFF" fill-opacity="1"/></g><g style="mix-blend-mode:passthrough"><path d="M19.37345,7.30966Q20.8715,9.225850000000001,22.628610000000002,9.9287C22.74673,9.97594,22.87278,10.000219999999999,23,10.000219999999999C23.55228,10.000219999999999,24,9.5525,24,9.000219999999999C24,8.59131,23.75105,8.22361,23.371389999999998,8.07174Q21.2244,7.21294,19.39443,3.553006C19.14744,3.0590270999999998,18.54676,2.858803,18.05279,3.105792C17.726355,3.269007,17.514765,3.597095,17.500739,3.961786L17.0007388,16.9618C17.000246286,16.974600000000002,17,16.9874,17,17.0002C17,17.552500000000002,17.447715,18.0002,18,18.0002C18.53733,18.0002,18.97861,17.5756,18.99926,17.0387L19.37345,7.30966Z" fill-rule="evenodd" fill="#FFFFFF" fill-opacity="1"/></g></g></svg>