<svg xmlns="http://www.w3.org/2000/svg" xmlns:xlink="http://www.w3.org/1999/xlink" fill="none" version="1.1" width="24" height="24" viewBox="0 0 24 24"><defs><clipPath id="master_svg0_135_5086/37_6856"><rect x="0" y="0" width="24" height="24" rx="0"/></clipPath></defs><g style="mix-blend-mode:passthrough" clip-path="url(#master_svg0_135_5086/37_6856)"><g style="mix-blend-mode:passthrough"><path d="M14.70711,5.292893C15.09763,5.683417,15.09763,6.31658,14.70711,6.70711C14.70711,6.70711,9.41421,12,9.41421,12C9.41421,12,14.70711,17.2929,14.70711,17.2929C15.09763,17.6834,15.09763,18.3166,14.70711,18.7071C14.31658,19.0976,13.68342,19.0976,13.29289,18.7071C13.29289,18.7071,7.292893,12.70711,7.292893,12.70711C6.9023689,12.31658,6.9023689,11.68342,7.292893,11.29289C7.292893,11.29289,13.29289,5.292893,13.29289,5.292893C13.68342,4.9023689,14.31658,4.9023689,14.70711,5.292893C14.70711,5.292893,14.70711,5.292893,14.70711,5.292893Z" fill-rule="evenodd" fill="#000000" fill-opacity="1"/></g></g></svg>