<svg xmlns="http://www.w3.org/2000/svg" xmlns:xlink="http://www.w3.org/1999/xlink" fill="none" version="1.1" width="24" height="24" viewBox="0 0 24 24"><defs><clipPath id="master_svg0_135_5327/135_5198"><rect x="0" y="0" width="24" height="24" rx="0"/></clipPath></defs><g style="mix-blend-mode:passthrough" clip-path="url(#master_svg0_135_5327/135_5198)"><g style="mix-blend-mode:passthrough"><path d="M0,3C0,2.447715,0.447715,2,1,2C1,2,23,2,23,2C23.5523,2,24,2.447715,24,3C24,3,24,8,24,8C24,8.55228,23.5523,9,23,9C23,9,22,9,22,9C22,9,22,21,22,21C22,21.5523,21.5523,22,21,22C21,22,3,22,3,22C2.44772,22,2,21.5523,2,21C2,21,2,9,2,9C2,9,1,9,1,9C0.447715,9,0,8.55228,0,8C0,8,0,3,0,3C0,3,0,3,0,3ZM4,9C4,9,4,20,4,20C4,20,20,20,20,20C20,20,20,9,20,9C20,9,4,9,4,9C4,9,4,9,4,9ZM22,7C22,7,2,7,2,7C2,7,2,4,2,4C2,4,22,4,22,4C22,4,22,7,22,7C22,7,22,7,22,7ZM9,12C9,11.44771,9.44771,11,10,11C10,11,14,11,14,11C14.5523,11,15,11.44771,15,12C15,12.5523,14.5523,13,14,13C14,13,10,13,10,13C9.44771,13,9,12.5523,9,12C9,12,9,12,9,12Z" fill-rule="evenodd" fill="#000000" fill-opacity="1"/></g></g></svg>