<svg xmlns="http://www.w3.org/2000/svg" xmlns:xlink="http://www.w3.org/1999/xlink" fill="none" version="1.1" width="30" height="30" viewBox="0 0 30 30"><defs><clipPath id="master_svg0_120_05238/120_05713"><rect x="0" y="0" width="30" height="30" rx="0"/></clipPath></defs><g style="mix-blend-mode:passthrough" clip-path="url(#master_svg0_120_05238/120_05713)"><g style="mix-blend-mode:passthrough"><path d="M2.5,7.5C2.5,6.8096440000000005,3.059644,6.25,3.75,6.25C3.75,6.25,3.7625,6.25,3.7625,6.25C4.45285,6.25,5.0125,6.8096440000000005,5.0125,7.5C5.0125,8.19035,4.45285,8.75,3.7625,8.75C3.7625,8.75,3.75,8.75,3.75,8.75C3.059644,8.75,2.5,8.19035,2.5,7.5C2.5,7.5,2.5,7.5,2.5,7.5ZM8.75,7.5C8.75,6.8096440000000005,9.309650000000001,6.25,10,6.25C10,6.25,26.25,6.25,26.25,6.25C26.9404,6.25,27.5,6.8096440000000005,27.5,7.5C27.5,8.19035,26.9404,8.75,26.25,8.75C26.25,8.75,10,8.75,10,8.75C9.309650000000001,8.75,8.75,8.19035,8.75,7.5C8.75,7.5,8.75,7.5,8.75,7.5ZM2.5,15C2.5,14.30965,3.059644,13.75,3.75,13.75C3.75,13.75,3.7625,13.75,3.7625,13.75C4.45285,13.75,5.0125,14.30965,5.0125,15C5.0125,15.69035,4.45285,16.25,3.7625,16.25C3.7625,16.25,3.75,16.25,3.75,16.25C3.059644,16.25,2.5,15.69035,2.5,15C2.5,15,2.5,15,2.5,15ZM8.75,15C8.75,14.30965,9.309650000000001,13.75,10,13.75C10,13.75,26.25,13.75,26.25,13.75C26.9404,13.75,27.5,14.30965,27.5,15C27.5,15.69035,26.9404,16.25,26.25,16.25C26.25,16.25,10,16.25,10,16.25C9.309650000000001,16.25,8.75,15.69035,8.75,15C8.75,15,8.75,15,8.75,15ZM2.5,22.5C2.5,21.8096,3.059644,21.25,3.75,21.25C3.75,21.25,3.7625,21.25,3.7625,21.25C4.45285,21.25,5.0125,21.8096,5.0125,22.5C5.0125,23.1904,4.45285,23.75,3.7625,23.75C3.7625,23.75,3.75,23.75,3.75,23.75C3.059644,23.75,2.5,23.1904,2.5,22.5C2.5,22.5,2.5,22.5,2.5,22.5ZM8.75,22.5C8.75,21.8096,9.309650000000001,21.25,10,21.25C10,21.25,26.25,21.25,26.25,21.25C26.9404,21.25,27.5,21.8096,27.5,22.5C27.5,23.1904,26.9404,23.75,26.25,23.75C26.25,23.75,10,23.75,10,23.75C9.309650000000001,23.75,8.75,23.1904,8.75,22.5C8.75,22.5,8.75,22.5,8.75,22.5Z" fill-rule="evenodd" fill="#FFFFFF" fill-opacity="1"/></g></g></svg>