<svg xmlns="http://www.w3.org/2000/svg" xmlns:xlink="http://www.w3.org/1999/xlink" fill="none" version="1.1" width="239" height="238" viewBox="0 0 239 238"><g style="mix-blend-mode:passthrough"><g style="mix-blend-mode:passthrough"><g style="mix-blend-mode:passthrough"><path d="M17,0L32,0C33.1046,0,34,0.89543,34,2C34,3.10457,33.1046,4,32,4L19,4C10.7157,4,4,10.7157,4,19L4,32C4,33.1046,3.10457,34,2,34C0.89543,34,0,33.1046,0,32L0,17C0,7.61116,7.61116,0,17,0" fill-rule="evenodd" fill="#65DECF" fill-opacity="1"/></g><g style="mix-blend-mode:passthrough" transform="matrix(-1,0,0,1,478,0)"><path d="M256,0L271,0C272.1046,0,273,0.89543,273,2C273,3.10457,272.1046,4,271,4L258,4C249.7157,4,243,10.7157,243,19L243,32C243,33.1046,242.10457,34,241,34C239.89543,34,239,33.1046,239,32L239,17C239,7.61116,246.61116,0,256,0" fill-rule="evenodd" fill="#65DECF" fill-opacity="1"/></g></g><g style="mix-blend-mode:passthrough" transform="matrix(1,0,0,-1,0,476)"><g style="mix-blend-mode:passthrough"><path d="M17,238L32,238C33.1046,238,34,238.89543,34,240C34,241.10457,33.1046,242,32,242L19,242C10.7157,242,4,248.7157,4,257L4,270C4,271.1046,3.10457,272,2,272C0.89543,272,0,271.1046,0,270L0,255C0,245.61116,7.61116,238,17,238" fill-rule="evenodd" fill="#65DECF" fill-opacity="1"/></g><g style="mix-blend-mode:passthrough" transform="matrix(-1,0,0,1,478,0)"><path d="M256,238L271,238C272.1046,238,273,238.89543,273,240C273,241.10457,272.1046,242,271,242L258,242C249.7157,242,243,248.7157,243,257L243,270C243,271.1046,242.10457,272,241,272C239.89543,272,239,271.1046,239,270L239,255C239,245.61116,246.61116,238,256,238" fill-rule="evenodd" fill="#65DECF" fill-opacity="1"/></g></g></g></svg>