<svg xmlns="http://www.w3.org/2000/svg" xmlns:xlink="http://www.w3.org/1999/xlink" fill="none" version="1.1" width="24" height="24" viewBox="0 0 24 24"><defs><clipPath id="master_svg0_214_9987/37_6860"><rect x="0" y="0" width="24" height="24" rx="0"/></clipPath></defs><g style="mix-blend-mode:passthrough" clip-path="url(#master_svg0_214_9987/37_6860)"><g style="mix-blend-mode:passthrough" transform="matrix(-1,0,0,1,38,0)"><path d="M19.292893,5.292893C19.683417,4.9023689,20.316580000000002,4.9023689,20.70711,5.292893C20.70711,5.292893,26,10.58579,26,10.58579C26,10.58579,31.2929,5.292893,31.2929,5.292893C31.6834,4.9023689,32.3166,4.9023689,32.7071,5.292893C33.0976,5.683417,33.0976,6.31658,32.7071,6.70711C32.7071,6.70711,27.41421,12,27.41421,12C27.41421,12,32.7071,17.2929,32.7071,17.2929C33.0976,17.6834,33.0976,18.3166,32.7071,18.7071C32.3166,19.0976,31.6834,19.0976,31.2929,18.7071C31.2929,18.7071,26,13.41421,26,13.41421C26,13.41421,20.70711,18.7071,20.70711,18.7071C20.316580000000002,19.0976,19.683417,19.0976,19.292893,18.7071C18.9023689,18.3166,18.9023689,17.6834,19.292893,17.2929C19.292893,17.2929,24.58579,12,24.58579,12C24.58579,12,19.292893,6.70711,19.292893,6.70711C18.9023689,6.31658,18.9023689,5.683417,19.292893,5.292893C19.292893,5.292893,19.292893,5.292893,19.292893,5.292893Z" fill-rule="evenodd" fill="#000000" fill-opacity="1"/></g></g></svg>