<svg xmlns="http://www.w3.org/2000/svg" xmlns:xlink="http://www.w3.org/1999/xlink" fill="none" version="1.1" width="48" height="48" viewBox="0 0 48 48"><defs><clipPath id="master_svg0_135_09299/135_09260"><rect x="12" y="12" width="24" height="24" rx="0"/></clipPath></defs><g style="mix-blend-mode:passthrough"><g style="mix-blend-mode:passthrough" clip-path="url(#master_svg0_135_09299/135_09260)"><g style="mix-blend-mode:passthrough"><path d="M15,24C15,22.89543,15.89543,22,17,22C18.10457,22,19,22.89543,19,24C19,25.10457,18.10457,26,17,26C15.89543,26,15,25.10457,15,24C15,24,15,24,15,24ZM22,24C22,22.89543,22.89543,22,24,22C25.104599999999998,22,26,22.89543,26,24C26,25.10457,25.104599999999998,26,24,26C22.89543,26,22,25.10457,22,24C22,24,22,24,22,24ZM29,24C29,22.89543,29.895400000000002,22,31,22C32.104600000000005,22,33,22.89543,33,24C33,25.10457,32.104600000000005,26,31,26C29.895400000000002,26,29,25.10457,29,24C29,24,29,24,29,24Z" fill-rule="evenodd" fill="#000000" fill-opacity="1"/></g></g></g></svg>